Playpen-Th18ShortSlow.ufo
<glyph name="numbersign" format="2">
  <advance width="925"/>
  <unicode hex="0023"/>
  <outline>
    <contour>
      <point x="176" y="-19" type="curve" smooth="yes"/>
      <point x="189" y="-22"/>
      <point x="200" y="-19"/>
      <point x="204" y="-7" type="curve" smooth="yes"/>
      <point x="301" y="251" type="line"/>
      <point x="605" y="251" type="line"/>
      <point x="511" y="0" type="line" smooth="yes"/>
      <point x="508" y="-10"/>
      <point x="509" y="-15"/>
      <point x="520" y="-19" type="curve" smooth="yes"/>
      <point x="533" y="-22"/>
      <point x="544" y="-19"/>
      <point x="548" y="-7" type="curve" smooth="yes"/>
      <point x="645" y="251" type="line"/>
      <point x="840" y="251" type="line" smooth="yes"/>
      <point x="851" y="251"/>
      <point x="856" y="256"/>
      <point x="860" y="268" type="curve" smooth="yes"/>
      <point x="864" y="280"/>
      <point x="861" y="286"/>
      <point x="850" y="286" type="curve" smooth="yes"/>
      <point x="658" y="286" type="line"/>
      <point x="771" y="590" type="line"/>
      <point x="980" y="590" type="line" smooth="yes"/>
      <point x="991" y="590"/>
      <point x="998" y="595"/>
      <point x="1000" y="606" type="curve" smooth="yes"/>
      <point x="1004" y="619"/>
      <point x="1003" y="625"/>
      <point x="991" y="625" type="curve" smooth="yes"/>
      <point x="784" y="625" type="line"/>
      <point x="878" y="875" type="line" smooth="yes"/>
      <point x="881" y="885"/>
      <point x="876" y="890"/>
      <point x="866" y="894" type="curve" smooth="yes"/>
      <point x="854" y="898"/>
      <point x="845" y="894"/>
      <point x="841" y="883" type="curve" smooth="yes"/>
      <point x="745" y="625" type="line"/>
      <point x="440" y="625" type="line"/>
      <point x="534" y="875" type="line" smooth="yes"/>
      <point x="538" y="885"/>
      <point x="533" y="890"/>
      <point x="523" y="894" type="curve" smooth="yes"/>
      <point x="510" y="898"/>
      <point x="501" y="894"/>
      <point x="498" y="883" type="curve"/>
      <point x="402" y="625" type="line"/>
      <point x="209" y="625" type="line" smooth="yes"/>
      <point x="198" y="625"/>
      <point x="191" y="619"/>
      <point x="188" y="606" type="curve" smooth="yes"/>
      <point x="185" y="595"/>
      <point x="186" y="590"/>
      <point x="198" y="590" type="curve" smooth="yes"/>
      <point x="388" y="590" type="line"/>
      <point x="275" y="286" type="line"/>
      <point x="68" y="286" type="line" smooth="yes"/>
      <point x="56" y="286"/>
      <point x="51" y="280"/>
      <point x="48" y="268" type="curve" smooth="yes"/>
      <point x="44" y="256"/>
      <point x="46" y="251"/>
      <point x="58" y="251" type="curve" smooth="yes"/>
      <point x="262" y="251" type="line"/>
      <point x="168" y="0" type="line" smooth="yes"/>
      <point x="164" y="-10"/>
      <point x="165" y="-15"/>
    </contour>
    <contour>
      <point x="314" y="286" type="line"/>
      <point x="427" y="590" type="line"/>
      <point x="731" y="590" type="line"/>
      <point x="618" y="286" type="line"/>
    </contour>
  </outline>
</glyph>
<glyph name="dollar" format="2">
  <advance width="534"/>
  <unicode hex="0024"/>
  <outline>
    <contour>
      <point x="230" y="-15" type="curve" smooth="yes"/>
      <point x="384" y="-15"/>
      <point x="478" y="75"/>
      <point x="478" y="197" type="curve" smooth="yes"/>
      <point x="478" y="303"/>
      <point x="398" y="337"/>
      <point x="321" y="376" type="curve" smooth="yes"/>
      <point x="252" y="411"/>
      <point x="186" y="443"/>
      <point x="186" y="525" type="curve" smooth="yes"/>
      <point x="186" y="615"/>
      <point x="257" y="682"/>
      <point x="365" y="682" type="curve" smooth="yes"/>
      <point x="425" y="682"/>
      <point x="491" y="661"/>
      <point x="545" y="615" type="curve" smooth="yes"/>
      <point x="551" y="609"/>
      <point x="556" y="606"/>
      <point x="565" y="614" type="curve" smooth="yes"/>
      <point x="573" y="621"/>
      <point x="573" y="625"/>
      <point x="565" y="634" type="curve" smooth="yes"/>
      <point x="521" y="681"/>
      <point x="437" y="712"/>
      <point x="365" y="712" type="curve" smooth="yes"/>
      <point x="240" y="712"/>
      <point x="154" y="635"/>
      <point x="154" y="523" type="curve" smooth="yes"/>
      <point x="154" y="426"/>
      <point x="232" y="387"/>
      <point x="307" y="350" type="curve" smooth="yes"/>
      <point x="380" y="314"/>
      <point x="446" y="283"/>
      <point x="446" y="194" type="curve" smooth="yes"/>
      <point x="446" y="91"/>
      <point x="368" y="15"/>
      <point x="233" y="15" type="curve" smooth="yes"/>
      <point x="148" y="15"/>
      <point x="85" y="43"/>
      <point x="50" y="82" type="curve" smooth="yes"/>
      <point x="43" y="90"/>
      <point x="38" y="94"/>
      <point x="28" y="86" type="curve" smooth="yes"/>
      <point x="19" y="79"/>
      <point x="21" y="73"/>
      <point x="26" y="66" type="curve" smooth="yes"/>
      <point x="50" y="33"/>
      <point x="123" y="-15"/>
    </contour>
    <contour>
      <point x="156" y="-101" type="curve" smooth="yes"/>
      <point x="167" y="-101"/>
      <point x="172" y="-98"/>
      <point x="175" y="-89" type="curve" smooth="yes"/>
      <point x="463" y="797" type="line" smooth="yes"/>
      <point x="466" y="806"/>
      <point x="462" y="809"/>
      <point x="452" y="809" type="curve" smooth="yes"/>
      <point x="441" y="809"/>
      <point x="436" y="806"/>
      <point x="433" y="797" type="curve" smooth="yes"/>
      <point x="145" y="-89" type="line" smooth="yes"/>
      <point x="142" y="-98"/>
      <point x="145" y="-101"/>
    </contour>
  </outline>
</glyph>
<glyph name="ampersand" format="2">
  <advance width="853"/>
  <unicode hex="0026"/>
  <outline>
    <contour>
      <point x="304" y="-19" type="curve" smooth="yes"/>
      <point x="404" y="-19"/>
      <point x="504" y="30"/>
      <point x="589" y="116" type="curve"/>
      <point x="670" y="-9" type="line" smooth="yes"/>
      <point x="675" y="-17"/>
      <point x="680" y="-20"/>
      <point x="693" y="-12" type="curve" smooth="yes"/>
      <point x="705" y="-5"/>
      <point x="705" y="4"/>
      <point x="700" y="13" type="curve" smooth="yes"/>
      <point x="615" y="144" type="line"/>
      <point x="683" y="222"/>
      <point x="741" y="325"/>
      <point x="780" y="446" type="curve" smooth="yes"/>
      <point x="784" y="458"/>
      <point x="780" y="461"/>
      <point x="766" y="461" type="curve" smooth="yes"/>
      <point x="753" y="461"/>
      <point x="746" y="458"/>
      <point x="743" y="446" type="curve" smooth="yes"/>
      <point x="708" y="338"/>
      <point x="656" y="246"/>
      <point x="595" y="176" type="curve"/>
      <point x="398" y="480" type="line"/>
      <point x="541" y="540"/>
      <point x="689" y="591"/>
      <point x="689" y="740" type="curve" smooth="yes"/>
      <point x="689" y="830"/>
      <point x="616" y="890"/>
      <point x="525" y="890" type="curve" smooth="yes"/>
      <point x="381" y="890"/>
      <point x="298" y="778"/>
      <point x="298" y="661" type="curve" smooth="yes"/>
      <point x="298" y="594"/>
      <point x="320" y="539"/>
      <point x="345" y="496" type="curve"/>
      <point x="216" y="441"/>
      <point x="94" y="370"/>
      <point x="94" y="205" type="curve" smooth="yes"/>
      <point x="94" y="79"/>
      <point x="171" y="-19"/>
    </contour>
    <contour>
      <point x="308" y="19" type="curve" smooth="yes"/>
      <point x="196" y="19"/>
      <point x="134" y="94"/>
      <point x="134" y="205" type="curve" smooth="yes"/>
      <point x="134" y="349"/>
      <point x="243" y="414"/>
      <point x="364" y="466" type="curve"/>
      <point x="569" y="147" type="line"/>
      <point x="489" y="65"/>
      <point x="397" y="19"/>
    </contour>
    <contour>
      <point x="380" y="510" type="curve"/>
      <point x="357" y="551"/>
      <point x="338" y="602"/>
      <point x="338" y="663" type="curve" smooth="yes"/>
      <point x="338" y="765"/>
      <point x="400" y="853"/>
      <point x="520" y="853" type="curve" smooth="yes"/>
      <point x="596" y="853"/>
      <point x="649" y="808"/>
      <point x="649" y="739" type="curve" smooth="yes"/>
      <point x="649" y="611"/>
      <point x="516" y="565"/>
    </contour>
  </outline>
</glyph>
<glyph name="quotesingle" format="2">
	<unicode hex="0027"/>
	<advance width="135"/>
	<outline>
		<contour>
			<point x="175" y="528" type="curve" smooth="yes"/>
			<point x="186" y="528"/>
			<point x="192" y="533"/>
			<point x="195" y="543" type="curve" smooth="yes"/>
			<point x="252" y="693" type="line" smooth="yes"/>
			<point x="256" y="704"/>
			<point x="251" y="715"/>
			<point x="232" y="715" type="curve" smooth="yes"/>
			<point x="215" y="715"/>
			<point x="207" y="706"/>
			<point x="204" y="695" type="curve" smooth="yes"/>
			<point x="163" y="544" type="line" smooth="yes"/>
			<point x="160" y="535"/>
			<point x="163" y="528"/>
		</contour>
	</outline>
</glyph>
<glyph name="parenright" format="2">
  <advance width="286"/>
  <unicode hex="0029"/>
  <outline>
    <contour>
      <point x="-29" y="-54" type="curve" smooth="yes"/>
      <point x="-37" y="-65"/>
      <point x="-37" y="-70"/>
      <point x="-26" y="-75" type="curve"/>
      <point x="-16" y="-80"/>
      <point x="-11" y="-79"/>
      <point x="-4" y="-69" type="curve" smooth="yes"/>
      <point x="191" y="188"/>
      <point x="319" y="456"/>
      <point x="319" y="761" type="curve" smooth="yes"/>
      <point x="319" y="818"/>
      <point x="316" y="886"/>
      <point x="306" y="944" type="curve" smooth="yes"/>
      <point x="305" y="951"/>
      <point x="299" y="953"/>
      <point x="286" y="950" type="curve" smooth="yes"/>
      <point x="274" y="948"/>
      <point x="269" y="944"/>
      <point x="271" y="929" type="curve" smooth="yes"/>
      <point x="279" y="879"/>
      <point x="283" y="815"/>
      <point x="283" y="764" type="curve" smooth="yes"/>
      <point x="283" y="470"/>
      <point x="160" y="196"/>
    </contour>
  </outline>
</glyph>
<glyph name="asterisk" format="2">
	<unicode hex="002A"/>
	<advance width="286"/>
	<outline>
		<contour>
			<point x="216" y="415" type="curve" smooth="yes"/>
			<point x="226" y="414"/>
			<point x="230" y="418"/>
			<point x="233" y="427" type="curve" smooth="yes"/>
			<point x="316" y="701" type="line" smooth="yes"/>
			<point x="318" y="709"/>
			<point x="316" y="714"/>
			<point x="306" y="715" type="curve" smooth="yes"/>
			<point x="296" y="716"/>
			<point x="291" y="710"/>
			<point x="289" y="703" type="curve" smooth="yes"/>
			<point x="206" y="432" type="line" smooth="yes"/>
			<point x="203" y="421"/>
			<point x="206" y="416"/>
		</contour>
		<contour>
			<point x="368" y="451" type="curve" smooth="yes"/>
			<point x="377" y="460"/>
			<point x="374" y="465"/>
			<point x="367" y="472" type="curve" smooth="yes"/>
			<point x="172" y="679" type="line" smooth="yes"/>
			<point x="166" y="685"/>
			<point x="161" y="686"/>
			<point x="154" y="679" type="curve" smooth="yes"/>
			<point x="145" y="670"/>
			<point x="150" y="663"/>
			<point x="154" y="659" type="curve" smooth="yes"/>
			<point x="347" y="454" type="line" smooth="yes"/>
			<point x="354" y="447"/>
			<point x="359" y="442"/>
		</contour>
		<contour>
			<point x="413" y="600" type="curve" smooth="yes"/>
			<point x="410" y="613"/>
			<point x="405" y="612"/>
			<point x="395" y="610" type="curve" smooth="yes"/>
			<point x="121" y="546" type="line" smooth="yes"/>
			<point x="110" y="543"/>
			<point x="106" y="539"/>
			<point x="109" y="529" type="curve" smooth="yes"/>
			<point x="112" y="517"/>
			<point x="118" y="517"/>
			<point x="129" y="520" type="curve" smooth="yes"/>
			<point x="400" y="584" type="line" smooth="yes"/>
			<point x="410" y="586"/>
			<point x="415" y="590"/>
		</contour>
	</outline>
</glyph>
<glyph name="slash" format="2">
  <advance width="258"/>
  <unicode hex="002F"/>
  <outline>
    <contour>
      <point x="-54" y="-60" type="curve"/>
      <point x="-44" y="-63"/>
      <point x="-39" y="-61"/>
      <point x="-34" y="-52" type="curve" smooth="yes"/>
      <point x="417" y="745" type="line"/>
      <point x="421" y="753"/>
      <point x="418" y="757"/>
      <point x="410" y="760" type="curve"/>
      <point x="400" y="763"/>
      <point x="395" y="761"/>
      <point x="390" y="752" type="curve" smooth="yes"/>
      <point x="-61" y="-45" type="line"/>
      <point x="-65" y="-53"/>
      <point x="-63" y="-57"/>
    </contour>
  </outline>
</glyph>
<glyph name="two" format="2">
	<unicode hex="0032"/>
	<advance width="530"/>
	<outline>
		<contour>
			<point x="3" y="0" type="curve" smooth="yes"/>
			<point x="395" y="0" type="line" smooth="yes"/>
			<point x="400" y="0"/>
			<point x="408" y="3"/>
			<point x="410" y="13" type="curve" smooth="yes"/>
			<point x="412" y="23"/>
			<point x="407" y="28"/>
			<point x="402" y="28" type="curve" smooth="yes"/>
			<point x="54" y="28" type="line"/>
			<point x="150" y="100" type="line" smooth="yes"/>
			<point x="327" y="233"/>
			<point x="567" y="403"/>
			<point x="567" y="563" type="curve" smooth="yes"/>
			<point x="567" y="663"/>
			<point x="503" y="712"/>
			<point x="410" y="712" type="curve" smooth="yes"/>
			<point x="333" y="712"/>
			<point x="258" y="679"/>
			<point x="204" y="638" type="curve" smooth="yes"/>
			<point x="193" y="630"/>
			<point x="191" y="624"/>
			<point x="198" y="615" type="curve" smooth="yes"/>
			<point x="204" y="607"/>
			<point x="210" y="606"/>
			<point x="222" y="614" type="curve" smooth="yes"/>
			<point x="282" y="657"/>
			<point x="335" y="682"/>
			<point x="407" y="682" type="curve" smooth="yes"/>
			<point x="482" y="682"/>
			<point x="533" y="642"/>
			<point x="533" y="563" type="curve" smooth="yes"/>
			<point x="533" y="415"/>
			<point x="306" y="254"/>
			<point x="133" y="123" type="curve" smooth="yes"/>
			<point x="-3" y="20" type="line" smooth="yes"/>
			<point x="-9" y="15"/>
			<point x="-12" y="0"/>
		</contour>
	</outline>
</glyph>
<glyph name="three" format="2">
  <advance width="663"/>
  <unicode hex="0033"/>
  <outline>
    <contour>
      <point x="284" y="-19" type="curve" smooth="yes"/>
      <point x="476" y="-19"/>
      <point x="593" y="111"/>
      <point x="593" y="280" type="curve" smooth="yes"/>
      <point x="593" y="364"/>
      <point x="540" y="444"/>
      <point x="455" y="468" type="curve"/>
      <point x="605" y="495"/>
      <point x="686" y="589"/>
      <point x="686" y="711" type="curve" smooth="yes"/>
      <point x="686" y="824"/>
      <point x="599" y="890"/>
      <point x="491" y="890" type="curve" smooth="yes"/>
      <point x="395" y="890"/>
      <point x="309" y="848"/>
      <point x="245" y="798" type="curve" smooth="yes"/>
      <point x="233" y="788"/>
      <point x="231" y="779"/>
      <point x="240" y="769" type="curve" smooth="yes"/>
      <point x="248" y="760"/>
      <point x="256" y="760"/>
      <point x="270" y="770" type="curve" smooth="yes"/>
      <point x="349" y="824"/>
      <point x="401" y="854"/>
      <point x="486" y="854" type="curve" smooth="yes"/>
      <point x="576" y="854"/>
      <point x="645" y="801"/>
      <point x="645" y="710" type="curve" smooth="yes"/>
      <point x="645" y="565"/>
      <point x="530" y="489"/>
      <point x="380" y="489" type="curve" smooth="yes"/>
      <point x="316" y="489" type="line" smooth="yes"/>
      <point x="308" y="489"/>
      <point x="299" y="484"/>
      <point x="296" y="471" type="curve" smooth="yes"/>
      <point x="294" y="459"/>
      <point x="300" y="454"/>
      <point x="306" y="454" type="curve" smooth="yes"/>
      <point x="368" y="454" type="line" smooth="yes"/>
      <point x="485" y="454"/>
      <point x="550" y="384"/>
      <point x="550" y="271" type="curve" smooth="yes"/>
      <point x="550" y="130"/>
      <point x="451" y="18"/>
      <point x="286" y="18" type="curve" smooth="yes"/>
      <point x="179" y="18"/>
      <point x="116" y="55"/>
      <point x="48" y="138" type="curve" smooth="yes"/>
      <point x="38" y="149"/>
      <point x="33" y="153"/>
      <point x="20" y="144" type="curve" smooth="yes"/>
      <point x="11" y="138"/>
      <point x="6" y="128"/>
      <point x="15" y="116" type="curve" smooth="yes"/>
      <point x="86" y="24"/>
      <point x="176" y="-19"/>
    </contour>
  </outline>
</glyph>
<glyph name="five" format="2">
  <advance width="663"/>
  <unicode hex="0035"/>
  <outline>
    <contour>
      <point x="293" y="-19" type="curve" smooth="yes"/>
      <point x="471" y="-19"/>
      <point x="616" y="108"/>
      <point x="616" y="331" type="curve" smooth="yes"/>
      <point x="616" y="444"/>
      <point x="546" y="540"/>
      <point x="410" y="540" type="curve" smooth="yes"/>
      <point x="344" y="540"/>
      <point x="274" y="518"/>
      <point x="220" y="480" type="curve"/>
      <point x="345" y="840" type="line"/>
      <point x="724" y="840" type="line" smooth="yes"/>
      <point x="730" y="840"/>
      <point x="739" y="844"/>
      <point x="743" y="856" type="curve" smooth="yes"/>
      <point x="746" y="869"/>
      <point x="741" y="875"/>
      <point x="735" y="875" type="curve" smooth="yes"/>
      <point x="336" y="875" type="line" smooth="yes"/>
      <point x="323" y="875"/>
      <point x="316" y="871"/>
      <point x="313" y="860" type="curve" smooth="yes"/>
      <point x="165" y="434" type="line" smooth="yes"/>
      <point x="160" y="420"/>
      <point x="178" y="410"/>
      <point x="191" y="423" type="curve" smooth="yes"/>
      <point x="256" y="481"/>
      <point x="341" y="504"/>
      <point x="408" y="504" type="curve" smooth="yes"/>
      <point x="523" y="504"/>
      <point x="576" y="426"/>
      <point x="576" y="318" type="curve" smooth="yes"/>
      <point x="576" y="138"/>
      <point x="456" y="19"/>
      <point x="296" y="19" type="curve" smooth="yes"/>
      <point x="191" y="19"/>
      <point x="130" y="63"/>
      <point x="70" y="138" type="curve" smooth="yes"/>
      <point x="63" y="148"/>
      <point x="58" y="154"/>
      <point x="44" y="144" type="curve" smooth="yes"/>
      <point x="35" y="138"/>
      <point x="29" y="128"/>
      <point x="38" y="116" type="curve" smooth="yes"/>
      <point x="100" y="29"/>
      <point x="191" y="-19"/>
    </contour>
  </outline>
</glyph>
<glyph name="six" format="2">
  <advance width="713"/>
  <unicode hex="0036"/>
  <outline>
    <contour>
      <point x="358" y="-20" type="curve" smooth="yes"/>
      <point x="546" y="-20"/>
      <point x="661" y="131"/>
      <point x="661" y="325" type="curve" smooth="yes"/>
      <point x="661" y="430"/>
      <point x="601" y="528"/>
      <point x="464" y="528" type="curve" smooth="yes"/>
      <point x="336" y="528"/>
      <point x="226" y="458"/>
      <point x="155" y="333" type="curve"/>
      <point x="151" y="261" type="line"/>
      <point x="204" y="383"/>
      <point x="314" y="491"/>
      <point x="455" y="491" type="curve" smooth="yes"/>
      <point x="584" y="491"/>
      <point x="621" y="405"/>
      <point x="621" y="316" type="curve" smooth="yes"/>
      <point x="621" y="150"/>
      <point x="519" y="18"/>
      <point x="364" y="18" type="curve" smooth="yes"/>
      <point x="238" y="18"/>
      <point x="166" y="109"/>
      <point x="166" y="240" type="curve" smooth="yes"/>
      <point x="166" y="569"/>
      <point x="355" y="845"/>
      <point x="709" y="854" type="curve" smooth="yes"/>
      <point x="723" y="854"/>
      <point x="729" y="858"/>
      <point x="728" y="876" type="curve" smooth="yes"/>
      <point x="726" y="890"/>
      <point x="719" y="890"/>
      <point x="699" y="890" type="curve" smooth="yes"/>
      <point x="340" y="885"/>
      <point x="126" y="593"/>
      <point x="126" y="240" type="curve" smooth="yes"/>
      <point x="126" y="95"/>
      <point x="205" y="-20"/>
    </contour>
  </outline>
</glyph>
<glyph name="seven" format="2">
	<unicode hex="0037"/>
	<advance width="430"/>
	<outline>
		<contour>
			<point x="44" y="-9" type="curve" smooth="yes"/>
			<point x="56" y="-11"/>
			<point x="61" y="-8"/>
			<point x="68" y="2" type="curve" smooth="yes"/>
			<point x="553" y="685" type="line" smooth="yes"/>
			<point x="560" y="695"/>
			<point x="553" y="700"/>
			<point x="546" y="700" type="curve" smooth="yes"/>
			<point x="171" y="700" type="line" smooth="yes"/>
			<point x="166" y="700"/>
			<point x="159" y="697"/>
			<point x="156" y="687" type="curve" smooth="yes"/>
			<point x="153" y="677"/>
			<point x="157" y="672"/>
			<point x="162" y="672" type="curve" smooth="yes"/>
			<point x="505" y="672" type="line"/>
			<point x="35" y="10" type="line" smooth="yes"/>
			<point x="28" y="0"/>
			<point x="31" y="-7"/>
		</contour>
	</outline>
</glyph>
<glyph name="eight" format="2">
	<unicode hex="0038"/>
	<advance width="530"/>
	<outline>
		<contour>
			<point x="220" y="-15" type="curve" smooth="yes"/>
			<point x="357" y="-15"/>
			<point x="475" y="59"/>
			<point x="475" y="204" type="curve" smooth="yes"/>
			<point x="475" y="287"/>
			<point x="418" y="339"/>
			<point x="354" y="376" type="curve"/>
			<point x="459" y="411"/>
			<point x="562" y="469"/>
			<point x="562" y="580" type="curve" smooth="yes"/>
			<point x="562" y="661"/>
			<point x="492" y="712"/>
			<point x="395" y="712" type="curve" smooth="yes"/>
			<point x="268" y="712"/>
			<point x="177" y="642"/>
			<point x="177" y="530" type="curve" smooth="yes"/>
			<point x="177" y="473"/>
			<point x="208" y="422"/>
			<point x="285" y="380" type="curve"/>
			<point x="152" y="339"/>
			<point x="32" y="268"/>
			<point x="32" y="138" type="curve" smooth="yes"/>
			<point x="32" y="49"/>
			<point x="104" y="-15"/>
		</contour>
		<contour>
			<point x="226" y="15" type="curve" smooth="yes"/>
			<point x="125" y="15"/>
			<point x="65" y="64"/>
			<point x="65" y="138" type="curve" smooth="yes"/>
			<point x="65" y="262"/>
			<point x="182" y="322"/>
			<point x="318" y="363" type="curve"/>
			<point x="394" y="322"/>
			<point x="441" y="278"/>
			<point x="441" y="201" type="curve" smooth="yes"/>
			<point x="441" y="80"/>
			<point x="341" y="15"/>
		</contour>
		<contour>
			<point x="323" y="393" type="curve"/>
			<point x="255" y="428"/>
			<point x="211" y="466"/>
			<point x="211" y="533" type="curve" smooth="yes"/>
			<point x="211" y="630"/>
			<point x="290" y="682"/>
			<point x="390" y="682" type="curve" smooth="yes"/>
			<point x="470" y="682"/>
			<point x="529" y="644"/>
			<point x="529" y="577" type="curve" smooth="yes"/>
			<point x="529" y="479"/>
			<point x="435" y="428"/>
		</contour>
	</outline>
</glyph>
<glyph name="question" format="2">
	<unicode hex="003F"/>
	<advance width="398"/>
	<outline>
		<contour>
			<point x="137" y="173" type="curve" smooth="yes"/>
			<point x="148" y="173"/>
			<point x="153" y="176"/>
			<point x="156" y="185" type="curve" smooth="yes"/>
			<point x="195" y="309" type="line"/>
			<point x="351" y="314"/>
			<point x="494" y="381"/>
			<point x="494" y="558" type="curve" smooth="yes"/>
			<point x="494" y="653"/>
			<point x="422" y="712"/>
			<point x="342" y="712" type="curve" smooth="yes"/>
			<point x="262" y="712"/>
			<point x="193" y="679"/>
			<point x="142" y="636" type="curve" smooth="yes"/>
			<point x="132" y="628"/>
			<point x="131" y="623"/>
			<point x="137" y="615" type="curve" smooth="yes"/>
			<point x="142" y="608"/>
			<point x="149" y="607"/>
			<point x="160" y="615" type="curve" smooth="yes"/>
			<point x="223" y="658"/>
			<point x="266" y="683"/>
			<point x="334" y="683" type="curve" smooth="yes"/>
			<point x="403" y="683"/>
			<point x="461" y="638"/>
			<point x="461" y="559" type="curve" smooth="yes"/>
			<point x="461" y="393"/>
			<point x="331" y="341"/>
			<point x="185" y="339" type="curve" smooth="yes"/>
			<point x="180" y="339"/>
			<point x="171" y="336"/>
			<point x="168" y="326" type="curve" smooth="yes"/>
			<point x="125" y="185" type="line" smooth="yes"/>
			<point x="122" y="176"/>
			<point x="126" y="173"/>
		</contour>
		<contour>
			<point x="89" y="-11" type="curve" smooth="yes"/>
			<point x="113" y="-11"/>
			<point x="131" y="9"/>
			<point x="131" y="37" type="curve" smooth="yes"/>
			<point x="131" y="52"/>
			<point x="120" y="61"/>
			<point x="102" y="61" type="curve" smooth="yes"/>
			<point x="78" y="61"/>
			<point x="60" y="41"/>
			<point x="60" y="13" type="curve" smooth="yes"/>
			<point x="60" y="-2"/>
			<point x="71" y="-11"/>
		</contour>
	</outline>
</glyph>
<glyph name="at" format="2">
  <advance width="702"/>
  <unicode hex="0040"/>
  <outline>
    <contour>
      <point x="201" y="146" type="curve" smooth="yes"/>
      <point x="201" y="82"/>
      <point x="233" y="42"/>
      <point x="288" y="42" type="curve" smooth="yes"/>
      <point x="327" y="42"/>
      <point x="371" y="63"/>
      <point x="406" y="108" type="curve"/>
      <point x="405" y="104"/>
      <point x="405" y="100"/>
      <point x="405" y="98" type="curve" smooth="yes"/>
      <point x="403" y="62"/>
      <point x="419" y="42"/>
      <point x="454" y="42" type="curve" smooth="yes"/>
      <point x="567" y="42"/>
      <point x="668" y="158"/>
      <point x="668" y="296" type="curve" smooth="yes"/>
      <point x="668" y="431"/>
      <point x="561" y="515"/>
      <point x="412" y="515" type="curve" smooth="yes"/>
      <point x="191" y="515"/>
      <point x="54" y="339"/>
      <point x="54" y="141" type="curve" smooth="yes"/>
      <point x="54" y="-4"/>
      <point x="140" y="-107"/>
      <point x="286" y="-107" type="curve" smooth="yes"/>
      <point x="349" y="-107"/>
      <point x="403" y="-98"/>
      <point x="462" y="-77" type="curve" smooth="yes"/>
      <point x="470" y="-74"/>
      <point x="473" y="-70"/>
      <point x="470" y="-60" type="curve" smooth="yes"/>
      <point x="468" y="-52"/>
      <point x="462" y="-49"/>
      <point x="454" y="-52" type="curve" smooth="yes"/>
      <point x="397" y="-72"/>
      <point x="345" y="-81"/>
      <point x="290" y="-81" type="curve" smooth="yes"/>
      <point x="159" y="-81"/>
      <point x="81" y="11"/>
      <point x="81" y="143" type="curve" smooth="yes"/>
      <point x="81" y="330"/>
      <point x="208" y="489"/>
      <point x="408" y="489" type="curve" smooth="yes"/>
      <point x="544" y="489"/>
      <point x="640" y="421"/>
      <point x="640" y="295" type="curve" smooth="yes"/>
      <point x="640" y="166"/>
      <point x="554" y="67"/>
      <point x="457" y="67" type="curve" smooth="yes"/>
      <point x="435" y="67"/>
      <point x="426" y="88"/>
      <point x="438" y="124" type="curve" smooth="yes"/>
      <point x="514" y="355" type="line" smooth="yes"/>
      <point x="517" y="364"/>
      <point x="514" y="370"/>
      <point x="502" y="370" type="curve" smooth="yes"/>
      <point x="491" y="370"/>
      <point x="489" y="367"/>
      <point x="486" y="359" type="curve" smooth="yes"/>
      <point x="481" y="345" type="line"/>
      <point x="458" y="362"/>
      <point x="427" y="373"/>
      <point x="399" y="373" type="curve" smooth="yes"/>
      <point x="263" y="373"/>
      <point x="201" y="241"/>
    </contour>
    <contour>
      <point x="232" y="148" type="curve" smooth="yes"/>
      <point x="232" y="229"/>
      <point x="281" y="347"/>
      <point x="396" y="347" type="curve" smooth="yes"/>
      <point x="419" y="347"/>
      <point x="443" y="342"/>
      <point x="474" y="322" type="curve"/>
      <point x="424" y="170" type="line"/>
      <point x="383" y="96"/>
      <point x="336" y="68"/>
      <point x="295" y="68" type="curve" smooth="yes"/>
      <point x="251" y="68"/>
      <point x="232" y="100"/>
    </contour>
  </outline>
</glyph>
<glyph name="A" format="2">
	<unicode hex="0041"/>
	<advance width="600"/>
	<outline>
		<contour>
			<point x="-25" y="-11" type="curve" smooth="yes"/>
			<point x="-16" y="-11"/>
			<point x="-11" y="-8"/>
			<point x="-5" y="1" type="curve" smooth="yes"/>
			<point x="138" y="217" type="line"/>
			<point x="464" y="217" type="line"/>
			<point x="479" y="3" type="line" smooth="yes"/>
			<point x="480" y="-8"/>
			<point x="483" y="-11"/>
			<point x="494" y="-11" type="curve" smooth="yes"/>
			<point x="505" y="-11"/>
			<point x="509" y="-8"/>
			<point x="508" y="4" type="curve" smooth="yes"/>
			<point x="458" y="700" type="line" smooth="yes"/>
			<point x="457" y="709"/>
			<point x="454" y="712"/>
			<point x="444" y="712" type="curve" smooth="yes"/>
			<point x="434" y="712"/>
			<point x="430" y="709"/>
			<point x="426" y="702" type="curve" smooth="yes"/>
			<point x="-35" y="8" type="line" smooth="yes"/>
			<point x="-43" y="-5"/>
			<point x="-37" y="-11"/>
		</contour>
		<contour>
			<point x="156" y="245" type="line"/>
			<point x="434" y="666" type="line"/>
			<point x="462" y="245" type="line"/>
		</contour>
	</outline>
	<anchor name="bottom" x="235" y="0"/>
	<anchor name="ogonek" x="508" y="0"/>
	<anchor name="top" x="422" y="670"/>
</glyph>
<glyph name="B" format="2">
  <advance width="724"/>
  <unicode hex="0042"/>
  <anchor x="280" y="0" name="bottom"/>
  <anchor x="169" y="258" name="center"/>
  <anchor x="554" y="838" name="top"/>
  <outline>
    <contour>
      <point x="88" y="0" type="curve" smooth="yes"/>
      <point x="287" y="0" type="line" smooth="yes"/>
      <point x="487" y="0"/>
      <point x="683" y="100"/>
      <point x="683" y="309" type="curve" smooth="yes"/>
      <point x="683" y="411"/>
      <point x="607" y="458"/>
      <point x="505" y="463" type="curve"/>
      <point x="507" y="466" type="line"/>
      <point x="653" y="481"/>
      <point x="779" y="574"/>
      <point x="779" y="724" type="curve" smooth="yes"/>
      <point x="779" y="819"/>
      <point x="707" y="875"/>
      <point x="560" y="875" type="curve" smooth="yes"/>
      <point x="373" y="875" type="line" smooth="yes"/>
      <point x="359" y="875"/>
      <point x="352" y="871"/>
      <point x="348" y="860" type="curve" smooth="yes"/>
      <point x="74" y="15" type="line" smooth="yes"/>
      <point x="70" y="4"/>
      <point x="74" y="0"/>
    </contour>
    <contour>
      <point x="118" y="35" type="line"/>
      <point x="252" y="445" type="line"/>
      <point x="435" y="445" type="line" smooth="yes"/>
      <point x="560" y="445"/>
      <point x="639" y="400"/>
      <point x="639" y="305" type="curve" smooth="yes"/>
      <point x="639" y="124"/>
      <point x="470" y="35"/>
      <point x="277" y="35" type="curve" smooth="yes"/>
    </contour>
    <contour>
      <point x="262" y="480" type="line"/>
      <point x="379" y="840" type="line"/>
      <point x="552" y="840" type="line" smooth="yes"/>
      <point x="675" y="840"/>
      <point x="739" y="800"/>
      <point x="739" y="719" type="curve" smooth="yes"/>
      <point x="739" y="566"/>
      <point x="578" y="480"/>
      <point x="424" y="480" type="curve" smooth="yes"/>
    </contour>
  </outline>
</glyph>
<glyph name="C" format="2">
  <advance width="775"/>
  <unicode hex="0043"/>
  <anchor x="356" y="0" name="bottom"/>
  <anchor x="615" y="838" name="top"/>
  <outline>
    <contour>
      <point x="385" y="-19" type="curve" smooth="yes"/>
      <point x="490" y="-19"/>
      <point x="599" y="29"/>
      <point x="693" y="123" type="curve" smooth="yes"/>
      <point x="703" y="133"/>
      <point x="704" y="139"/>
      <point x="695" y="148" type="curve" smooth="yes"/>
      <point x="685" y="158"/>
      <point x="679" y="156"/>
      <point x="669" y="148" type="curve" smooth="yes"/>
      <point x="585" y="65"/>
      <point x="488" y="19"/>
      <point x="388" y="19" type="curve" smooth="yes"/>
      <point x="256" y="19"/>
      <point x="171" y="118"/>
      <point x="171" y="268" type="curve" smooth="yes"/>
      <point x="171" y="550"/>
      <point x="351" y="854"/>
      <point x="640" y="853" type="curve" smooth="yes"/>
      <point x="713" y="853"/>
      <point x="773" y="826"/>
      <point x="816" y="776" type="curve" smooth="yes"/>
      <point x="830" y="761"/>
      <point x="834" y="758"/>
      <point x="845" y="763" type="curve" smooth="yes"/>
      <point x="860" y="770"/>
      <point x="865" y="779"/>
      <point x="858" y="790" type="curve" smooth="yes"/>
      <point x="811" y="855"/>
      <point x="736" y="890"/>
      <point x="643" y="890" type="curve" smooth="yes"/>
      <point x="323" y="891"/>
      <point x="130" y="566"/>
      <point x="130" y="268" type="curve" smooth="yes"/>
      <point x="130" y="95"/>
      <point x="231" y="-19"/>
    </contour>
  </outline>
</glyph>
<glyph name="D" format="2">
  <advance width="695"/>
  <unicode hex="0044"/>
  <anchor x="278" y="0" name="bottom"/>
  <anchor x="235" y="350" name="center"/>
  <anchor x="464" y="670" name="top"/>
  <outline>
    <contour>
      <point x="73" y="0" type="curve" smooth="yes"/>
      <point x="227" y="0" type="line" smooth="yes"/>
      <point x="494" y="0"/>
      <point x="688" y="200"/>
      <point x="688" y="477" type="curve" smooth="yes"/>
      <point x="688" y="633"/>
      <point x="592" y="700"/>
      <point x="455" y="700" type="curve" smooth="yes"/>
      <point x="298" y="700" type="line" smooth="yes"/>
      <point x="285" y="700"/>
      <point x="282" y="697"/>
      <point x="279" y="688" type="curve" smooth="yes"/>
      <point x="61" y="12" type="line" smooth="yes"/>
      <point x="58" y="3"/>
      <point x="63" y="0"/>
    </contour>
    <contour>
      <point x="97" y="28" type="line"/>
      <point x="305" y="672" type="line"/>
      <point x="453" y="672" type="line" smooth="yes"/>
      <point x="575" y="672"/>
      <point x="655" y="616"/>
      <point x="655" y="477" type="curve" smooth="yes"/>
      <point x="655" y="217"/>
      <point x="475" y="28"/>
      <point x="227" y="28" type="curve" smooth="yes"/>
    </contour>
  </outline>
</glyph>
<glyph name="F" format="2">
  <advance width="624"/>
  <unicode hex="0046"/>
  <outline>
    <contour>
      <point x="88" y="-14" type="curve" smooth="yes"/>
      <point x="103" y="-14"/>
      <point x="108" y="-10"/>
      <point x="112" y="1" type="curve" smooth="yes"/>
      <point x="245" y="420" type="line"/>
      <point x="580" y="420" type="line" smooth="yes"/>
      <point x="593" y="420"/>
      <point x="598" y="424"/>
      <point x="602" y="438" type="curve" smooth="yes"/>
      <point x="604" y="449"/>
      <point x="604" y="455"/>
      <point x="590" y="455" type="curve" smooth="yes"/>
      <point x="257" y="455" type="line"/>
      <point x="379" y="840" type="line"/>
      <point x="779" y="840" type="line" smooth="yes"/>
      <point x="792" y="840"/>
      <point x="797" y="844"/>
      <point x="800" y="858" type="curve" smooth="yes"/>
      <point x="803" y="869"/>
      <point x="803" y="875"/>
      <point x="789" y="875" type="curve" smooth="yes"/>
      <point x="372" y="875" type="line" smooth="yes"/>
      <point x="355" y="875"/>
      <point x="352" y="871"/>
      <point x="348" y="860" type="curve" smooth="yes"/>
      <point x="73" y="1" type="line" smooth="yes"/>
      <point x="69" y="-10"/>
      <point x="75" y="-14"/>
    </contour>
  </outline>
</glyph>
<glyph name="G" format="2">
  <advance width="700"/>
  <unicode hex="0047"/>
  <anchor x="295" y="0" name="bottom"/>
  <anchor x="495" y="670" name="top"/>
  <outline>
    <contour>
      <point x="318" y="-15" type="curve" smooth="yes"/>
      <point x="464" y="-15"/>
      <point x="579" y="87"/>
      <point x="666" y="350" type="curve" smooth="yes"/>
      <point x="669" y="359"/>
      <point x="666" y="362"/>
      <point x="655" y="362" type="curve" smooth="yes"/>
      <point x="439" y="362" type="line" smooth="yes"/>
      <point x="430" y="362"/>
      <point x="426" y="358"/>
      <point x="423" y="349" type="curve" smooth="yes"/>
      <point x="421" y="343"/>
      <point x="419" y="334"/>
      <point x="430" y="334" type="curve" smooth="yes"/>
      <point x="629" y="334" type="line"/>
      <point x="548" y="103"/>
      <point x="443" y="15"/>
      <point x="318" y="15" type="curve" smooth="yes"/>
      <point x="201" y="15"/>
      <point x="137" y="94"/>
      <point x="137" y="214" type="curve" smooth="yes"/>
      <point x="137" y="440"/>
      <point x="280" y="682"/>
      <point x="511" y="682" type="curve" smooth="yes"/>
      <point x="569" y="682"/>
      <point x="617" y="661"/>
      <point x="652" y="621" type="curve" smooth="yes"/>
      <point x="663" y="609"/>
      <point x="666" y="606"/>
      <point x="675" y="610" type="curve" smooth="yes"/>
      <point x="687" y="616"/>
      <point x="691" y="623"/>
      <point x="685" y="632" type="curve" smooth="yes"/>
      <point x="648" y="684"/>
      <point x="588" y="712"/>
      <point x="513" y="712" type="curve" smooth="yes"/>
      <point x="257" y="712"/>
      <point x="104" y="453"/>
      <point x="104" y="214" type="curve" smooth="yes"/>
      <point x="104" y="76"/>
      <point x="180" y="-15"/>
    </contour>
  </outline>
</glyph>
<glyph name="H" format="2">
	<unicode hex="0048"/>
	<advance width="710"/>
	<outline>
		<contour>
			<point x="68" y="-11" type="curve" smooth="yes"/>
			<point x="81" y="-11"/>
			<point x="84" y="-8"/>
			<point x="87" y="1" type="curve" smooth="yes"/>
			<point x="201" y="353" type="line"/>
			<point x="607" y="353" type="line"/>
			<point x="494" y="1" type="line" smooth="yes"/>
			<point x="491" y="-8"/>
			<point x="496" y="-11"/>
			<point x="506" y="-11" type="curve" smooth="yes"/>
			<point x="519" y="-11"/>
			<point x="522" y="-8"/>
			<point x="525" y="1" type="curve" smooth="yes"/>
			<point x="751" y="700" type="line" smooth="yes"/>
			<point x="754" y="709"/>
			<point x="749" y="712"/>
			<point x="739" y="712" type="curve" smooth="yes"/>
			<point x="726" y="712"/>
			<point x="723" y="709"/>
			<point x="720" y="700" type="curve" smooth="yes"/>
			<point x="616" y="381" type="line"/>
			<point x="210" y="381" type="line"/>
			<point x="313" y="700" type="line" smooth="yes"/>
			<point x="316" y="709"/>
			<point x="311" y="712"/>
			<point x="301" y="712" type="curve" smooth="yes"/>
			<point x="288" y="712"/>
			<point x="285" y="709"/>
			<point x="282" y="700" type="curve" smooth="yes"/>
			<point x="56" y="1" type="line" smooth="yes"/>
			<point x="53" y="-8"/>
			<point x="58" y="-11"/>
		</contour>
	</outline>
	<anchor name="bottom" x="290" y="0"/>
	<anchor name="center" x="467" y="541"/>
	<anchor name="top" x="494" y="670"/>
</glyph>
<glyph name="J" format="2">
	<unicode hex="004A"/>
	<advance width="520"/>
	<outline>
		<contour>
			<point x="186" y="-15" type="curve" smooth="yes"/>
			<point x="301" y="-15"/>
			<point x="366" y="53"/>
			<point x="417" y="210" type="curve" smooth="yes"/>
			<point x="577" y="700" type="line" smooth="yes"/>
			<point x="580" y="708"/>
			<point x="577" y="712"/>
			<point x="565" y="712" type="curve" smooth="yes"/>
			<point x="552" y="712"/>
			<point x="549" y="709"/>
			<point x="546" y="700" type="curve" smooth="yes"/>
			<point x="385" y="208" type="line" smooth="yes"/>
			<point x="341" y="73"/>
			<point x="283" y="15"/>
			<point x="190" y="15" type="curve" smooth="yes"/>
			<point x="105" y="15"/>
			<point x="64" y="54"/>
			<point x="64" y="131" type="curve" smooth="yes"/>
			<point x="64" y="140"/>
			<point x="59" y="144"/>
			<point x="49" y="143" type="curve" smooth="yes"/>
			<point x="38" y="142"/>
			<point x="34" y="137"/>
			<point x="34" y="123" type="curve" smooth="yes"/>
			<point x="34" y="37"/>
			<point x="93" y="-15"/>
		</contour>
	</outline>
	<anchor name="bottom" x="195" y="0"/>
	<anchor name="top" x="546" y="670"/>
</glyph>
<glyph name="M" format="2">
  <advance width="1050"/>
  <unicode hex="004D"/>
  <anchor x="456" y="0" name="bottom"/>
  <anchor x="705" y="838" name="top"/>
  <outline>
    <contour>
      <point x="84" y="-14" type="curve" smooth="yes"/>
      <point x="100" y="-14"/>
      <point x="104" y="-10"/>
      <point x="108" y="1" type="curve" smooth="yes"/>
      <point x="373" y="820" type="line"/>
      <point x="511" y="280" type="line" smooth="yes"/>
      <point x="515" y="268"/>
      <point x="520" y="265"/>
      <point x="531" y="265" type="curve" smooth="yes"/>
      <point x="541" y="265"/>
      <point x="546" y="266"/>
      <point x="559" y="280" type="curve" smooth="yes"/>
      <point x="1046" y="820" type="line"/>
      <point x="781" y="1" type="line" smooth="yes"/>
      <point x="778" y="-10"/>
      <point x="784" y="-14"/>
      <point x="796" y="-14" type="curve" smooth="yes"/>
      <point x="811" y="-14"/>
      <point x="815" y="-10"/>
      <point x="819" y="1" type="curve" smooth="yes"/>
      <point x="1100" y="871" type="line" smooth="yes"/>
      <point x="1105" y="885"/>
      <point x="1098" y="890"/>
      <point x="1085" y="890" type="curve" smooth="yes"/>
      <point x="1066" y="890"/>
      <point x="1061" y="888"/>
      <point x="1053" y="878" type="curve" smooth="yes"/>
      <point x="539" y="309" type="line"/>
      <point x="393" y="878" type="line" smooth="yes"/>
      <point x="390" y="888"/>
      <point x="386" y="890"/>
      <point x="376" y="890" type="curve" smooth="yes"/>
      <point x="360" y="890"/>
      <point x="356" y="886"/>
      <point x="353" y="875" type="curve" smooth="yes"/>
      <point x="70" y="1" type="line" smooth="yes"/>
      <point x="66" y="-10"/>
      <point x="73" y="-14"/>
    </contour>
  </outline>
</glyph>
<glyph name="N" format="2">
  <advance width="887"/>
  <unicode hex="004E"/>
  <anchor x="363" y="0" name="bottom"/>
  <anchor x="636" y="838" name="top"/>
  <outline>
    <contour>
      <point x="85" y="-14" type="curve" smooth="yes"/>
      <point x="101" y="-14"/>
      <point x="105" y="-10"/>
      <point x="109" y="1" type="curve" smooth="yes"/>
      <point x="373" y="820" type="line"/>
      <point x="616" y="-4" type="line" smooth="yes"/>
      <point x="619" y="-11"/>
      <point x="624" y="-14"/>
      <point x="636" y="-14" type="curve" smooth="yes"/>
      <point x="649" y="-14"/>
      <point x="653" y="-10"/>
      <point x="656" y="1" type="curve" smooth="yes"/>
      <point x="938" y="875" type="line" smooth="yes"/>
      <point x="941" y="886"/>
      <point x="935" y="890"/>
      <point x="923" y="890" type="curve" smooth="yes"/>
      <point x="908" y="890"/>
      <point x="904" y="886"/>
      <point x="900" y="875" type="curve" smooth="yes"/>
      <point x="636" y="56" type="line"/>
      <point x="393" y="880" type="line" smooth="yes"/>
      <point x="390" y="888"/>
      <point x="385" y="890"/>
      <point x="373" y="890" type="curve" smooth="yes"/>
      <point x="360" y="890"/>
      <point x="356" y="886"/>
      <point x="353" y="875" type="curve" smooth="yes"/>
      <point x="70" y="1" type="line" smooth="yes"/>
      <point x="66" y="-10"/>
      <point x="73" y="-14"/>
    </contour>
  </outline>
</glyph>
<glyph name="Q" format="2">
  <advance width="925"/>
  <unicode hex="0051"/>
  <anchor x="381" y="0" name="bottom"/>
  <anchor x="524" y="438" name="center"/>
  <anchor x="755" y="13" name="ogonek"/>
  <anchor x="630" y="838" name="top"/>
  <anchor x="743" y="875" name="topright"/>
  <outline>
    <contour>
      <point x="583" y="-169" type="curve" smooth="yes"/>
      <point x="596" y="-166"/>
      <point x="601" y="-160"/>
      <point x="596" y="-146" type="curve" smooth="yes"/>
      <point x="494" y="161" type="line" smooth="yes"/>
      <point x="490" y="174"/>
      <point x="484" y="178"/>
      <point x="473" y="175" type="curve" smooth="yes"/>
      <point x="459" y="173"/>
      <point x="454" y="166"/>
      <point x="459" y="153" type="curve" smooth="yes"/>
      <point x="561" y="-155" type="line" smooth="yes"/>
      <point x="565" y="-167"/>
      <point x="571" y="-171"/>
    </contour>
    <component base="O"/>
  </outline>
</glyph>
<glyph name="S" format="2">
	<unicode hex="0053"/>
	<advance width="550"/>
	<outline>
		<contour>
			<point x="240" y="-15" type="curve" smooth="yes"/>
			<point x="394" y="-15"/>
			<point x="488" y="75"/>
			<point x="488" y="197" type="curve" smooth="yes"/>
			<point x="488" y="303"/>
			<point x="409" y="337"/>
			<point x="332" y="376" type="curve" smooth="yes"/>
			<point x="263" y="411"/>
			<point x="196" y="443"/>
			<point x="196" y="525" type="curve" smooth="yes"/>
			<point x="196" y="615"/>
			<point x="267" y="682"/>
			<point x="375" y="682" type="curve" smooth="yes"/>
			<point x="435" y="682"/>
			<point x="501" y="661"/>
			<point x="555" y="615" type="curve" smooth="yes"/>
			<point x="561" y="609"/>
			<point x="566" y="606"/>
			<point x="575" y="614" type="curve" smooth="yes"/>
			<point x="583" y="621"/>
			<point x="583" y="625"/>
			<point x="575" y="634" type="curve" smooth="yes"/>
			<point x="531" y="681"/>
			<point x="447" y="712"/>
			<point x="375" y="712" type="curve" smooth="yes"/>
			<point x="250" y="712"/>
			<point x="164" y="635"/>
			<point x="164" y="523" type="curve" smooth="yes"/>
			<point x="164" y="426"/>
			<point x="241" y="387"/>
			<point x="316" y="350" type="curve" smooth="yes"/>
			<point x="389" y="314"/>
			<point x="456" y="283"/>
			<point x="456" y="194" type="curve" smooth="yes"/>
			<point x="456" y="91"/>
			<point x="378" y="15"/>
			<point x="243" y="15" type="curve" smooth="yes"/>
			<point x="158" y="15"/>
			<point x="95" y="43"/>
			<point x="60" y="82" type="curve" smooth="yes"/>
			<point x="53" y="90"/>
			<point x="48" y="94"/>
			<point x="38" y="86" type="curve" smooth="yes"/>
			<point x="29" y="79"/>
			<point x="31" y="73"/>
			<point x="36" y="66" type="curve" smooth="yes"/>
			<point x="60" y="33"/>
			<point x="133" y="-15"/>
		</contour>
	</outline>
	<anchor name="bottom" x="229" y="0"/>
	<anchor name="top" x="387" y="670"/>
</glyph>
<glyph name="T" format="2">
	<unicode hex="0054"/>
	<advance width="552"/>
	<outline>
		<contour>
			<point x="214" y="-11" type="curve" smooth="yes"/>
			<point x="227" y="-11"/>
			<point x="230" y="-8"/>
			<point x="233" y="1" type="curve" smooth="yes"/>
			<point x="451" y="672" type="line"/>
			<point x="672" y="672" type="line" smooth="yes"/>
			<point x="682" y="672"/>
			<point x="686" y="675"/>
			<point x="689" y="686" type="curve" smooth="yes"/>
			<point x="691" y="695"/>
			<point x="691" y="700"/>
			<point x="680" y="700" type="curve" smooth="yes"/>
			<point x="196" y="700" type="line" smooth="yes"/>
			<point x="186" y="700"/>
			<point x="182" y="697"/>
			<point x="179" y="687" type="curve" smooth="yes"/>
			<point x="176" y="677"/>
			<point x="177" y="672"/>
			<point x="188" y="672" type="curve" smooth="yes"/>
			<point x="420" y="672" type="line"/>
			<point x="202" y="1" type="line" smooth="yes"/>
			<point x="199" y="-8"/>
			<point x="204" y="-11"/>
		</contour>
	</outline>
	<anchor name="bottom" x="210" y="0"/>
	<anchor name="center" x="330" y="350"/>
	<anchor name="top" x="426" y="670"/>
</glyph>
<glyph name="U" format="2">
  <advance width="863"/>
  <unicode hex="0055"/>
  <anchor x="350" y="0" name="bottom"/>
  <anchor x="515" y="13" name="ogonek"/>
  <anchor x="601" y="838" name="top"/>
  <anchor x="913" y="888" name="topright"/>
  <outline>
    <contour>
      <point x="373" y="-19" type="curve" smooth="yes"/>
      <point x="549" y="-19"/>
      <point x="664" y="76"/>
      <point x="725" y="263" type="curve" smooth="yes"/>
      <point x="926" y="875" type="line" smooth="yes"/>
      <point x="930" y="886"/>
      <point x="924" y="890"/>
      <point x="911" y="890" type="curve" smooth="yes"/>
      <point x="895" y="890"/>
      <point x="891" y="886"/>
      <point x="888" y="875" type="curve" smooth="yes"/>
      <point x="686" y="263" type="line" smooth="yes"/>
      <point x="633" y="100"/>
      <point x="529" y="19"/>
      <point x="373" y="19" type="curve" smooth="yes"/>
      <point x="174" y="19"/>
      <point x="138" y="129"/>
      <point x="185" y="274" type="curve" smooth="yes"/>
      <point x="381" y="875" type="line" smooth="yes"/>
      <point x="385" y="886"/>
      <point x="379" y="890"/>
      <point x="366" y="890" type="curve" smooth="yes"/>
      <point x="350" y="890"/>
      <point x="346" y="886"/>
      <point x="343" y="875" type="curve" smooth="yes"/>
      <point x="148" y="276" type="line" smooth="yes"/>
      <point x="95" y="116"/>
      <point x="145" y="-19"/>
    </contour>
  </outline>
</glyph>
<glyph name="V" format="2">
	<unicode hex="0056"/>
	<advance width="580"/>
	<outline>
		<contour>
			<point x="245" y="-11" type="curve" smooth="yes"/>
			<point x="255" y="-11"/>
			<point x="259" y="-8"/>
			<point x="263" y="-1" type="curve" smooth="yes"/>
			<point x="713" y="693" type="line" smooth="yes"/>
			<point x="719" y="702"/>
			<point x="715" y="712"/>
			<point x="702" y="712" type="curve" smooth="yes"/>
			<point x="692" y="712"/>
			<point x="689" y="709"/>
			<point x="683" y="700" type="curve" smooth="yes"/>
			<point x="256" y="37" type="line"/>
			<point x="219" y="698" type="line" smooth="yes"/>
			<point x="218" y="709"/>
			<point x="215" y="712"/>
			<point x="204" y="712" type="curve" smooth="yes"/>
			<point x="193" y="712"/>
			<point x="189" y="709"/>
			<point x="190" y="697" type="curve" smooth="yes"/>
			<point x="231" y="1" type="line" smooth="yes"/>
			<point x="232" y="-8"/>
			<point x="235" y="-11"/>
		</contour>
	</outline>
</glyph>
<glyph name="Y" format="2">
	<unicode hex="0059"/>
	<advance width="490"/>
	<outline>
		<contour>
			<point x="184" y="-11" type="curve" smooth="yes"/>
			<point x="195" y="-11"/>
			<point x="201" y="-8"/>
			<point x="204" y="1" type="curve" smooth="yes"/>
			<point x="303" y="306" type="line"/>
			<point x="636" y="690" type="line" smooth="yes"/>
			<point x="643" y="698"/>
			<point x="642" y="703"/>
			<point x="636" y="709" type="curve" smooth="yes"/>
			<point x="627" y="717"/>
			<point x="622" y="715"/>
			<point x="609" y="700" type="curve" smooth="yes"/>
			<point x="294" y="335" type="line"/>
			<point x="203" y="700" type="line" smooth="yes"/>
			<point x="201" y="709"/>
			<point x="198" y="712"/>
			<point x="187" y="712" type="curve" smooth="yes"/>
			<point x="179" y="712"/>
			<point x="172" y="708"/>
			<point x="176" y="693" type="curve" smooth="yes"/>
			<point x="273" y="307" type="line"/>
			<point x="173" y="1" type="line" smooth="yes"/>
			<point x="170" y="-8"/>
			<point x="173" y="-11"/>
		</contour>
	</outline>
	<anchor name="bottom" x="189" y="0"/>
	<anchor name="top" x="376" y="670"/>
</glyph>
<glyph name="Z" format="2">
	<unicode hex="005A"/>
	<advance width="490"/>
	<outline>
		<contour>
			<point x="-31" y="0" type="curve" smooth="yes"/>
			<point x="392" y="0" type="line" smooth="yes"/>
			<point x="402" y="0"/>
			<point x="406" y="3"/>
			<point x="409" y="14" type="curve" smooth="yes"/>
			<point x="411" y="23"/>
			<point x="411" y="28"/>
			<point x="400" y="28" type="curve" smooth="yes"/>
			<point x="9" y="28" type="line"/>
			<point x="593" y="679" type="line" smooth="yes"/>
			<point x="601" y="687"/>
			<point x="596" y="700"/>
			<point x="588" y="700" type="curve" smooth="yes"/>
			<point x="201" y="700" type="line" smooth="yes"/>
			<point x="191" y="700"/>
			<point x="187" y="697"/>
			<point x="184" y="687" type="curve" smooth="yes"/>
			<point x="181" y="677"/>
			<point x="182" y="672"/>
			<point x="193" y="672" type="curve" smooth="yes"/>
			<point x="548" y="672" type="line"/>
			<point x="-37" y="20" type="line" smooth="yes"/>
			<point x="-44" y="12"/>
			<point x="-39" y="0"/>
		</contour>
	</outline>
	<anchor name="bottom" x="190" y="0"/>
	<anchor name="center" x="294" y="369"/>
	<anchor name="top" x="367" y="670"/>
</glyph>
<glyph name="backslash" format="2">
	<unicode hex="005C"/>
	<advance width="258"/>
	<outline>
		<contour>
			<point x="211" y="-61" type="curve" smooth="yes"/>
			<point x="222" y="-60"/>
			<point x="223" y="-54"/>
			<point x="222" y="-45" type="curve" smooth="yes"/>
			<point x="165" y="747" type="line" smooth="yes"/>
			<point x="164" y="760"/>
			<point x="159" y="761"/>
			<point x="149" y="760" type="curve" smooth="yes"/>
			<point x="138" y="759"/>
			<point x="137" y="753"/>
			<point x="138" y="744" type="curve" smooth="yes"/>
			<point x="195" y="-48" type="line" smooth="yes"/>
			<point x="196" y="-61"/>
			<point x="201" y="-62"/>
		</contour>
	</outline>
</glyph>
<glyph name="bracketright" format="2">
  <advance width="375"/>
  <unicode hex="005D"/>
  <outline>
    <contour>
      <point x="-6" y="-57" type="curve" smooth="yes"/>
      <point x="-10" y="-70"/>
      <point x="-6" y="-75"/>
      <point x="0" y="-75" type="curve" smooth="yes"/>
      <point x="145" y="-75" type="line" smooth="yes"/>
      <point x="159" y="-75"/>
      <point x="165" y="-71"/>
      <point x="168" y="-60" type="curve"/>
      <point x="473" y="935" type="line"/>
      <point x="475" y="946"/>
      <point x="471" y="950"/>
      <point x="458" y="950" type="curve" smooth="yes"/>
      <point x="313" y="950" type="line" smooth="yes"/>
      <point x="306" y="950"/>
      <point x="300" y="945"/>
      <point x="296" y="933" type="curve" smooth="yes"/>
      <point x="293" y="920"/>
      <point x="296" y="915"/>
      <point x="303" y="915" type="curve" smooth="yes"/>
      <point x="429" y="915" type="line"/>
      <point x="136" y="-40" type="line"/>
      <point x="10" y="-40" type="line" smooth="yes"/>
      <point x="4" y="-40"/>
      <point x="-2" y="-45"/>
    </contour>
  </outline>
</glyph>
<glyph name="asciicircum" format="2">
  <advance width="610"/>
  <unicode hex="005E"/>
  <outline>
    <contour>
      <point x="170" y="401" type="line" smooth="yes"/>
      <point x="162" y="393"/>
      <point x="161" y="386"/>
      <point x="169" y="380" type="curve" smooth="yes"/>
      <point x="177" y="374"/>
      <point x="184" y="375"/>
      <point x="191" y="383" type="curve" smooth="yes"/>
      <point x="462" y="680" type="line"/>
      <point x="541" y="387" type="line" smooth="yes"/>
      <point x="543" y="379"/>
      <point x="548" y="375"/>
      <point x="559" y="379" type="curve" smooth="yes"/>
      <point x="571" y="383"/>
      <point x="572" y="390"/>
      <point x="570" y="398" type="curve" smooth="yes"/>
      <point x="491" y="687" type="line" smooth="yes"/>
      <point x="486" y="704"/>
      <point x="484" y="712"/>
      <point x="470" y="712" type="curve" smooth="yes"/>
      <point x="457" y="712"/>
      <point x="449" y="704"/>
      <point x="433" y="687" type="curve" smooth="yes"/>
    </contour>
  </outline>
</glyph>
<glyph name="underscore" format="2">
	<unicode hex="005F"/>
	<advance width="440"/>
	<outline>
		<contour>
			<point x="-40" y="-90" type="curve" smooth="yes"/>
			<point x="293" y="-90" type="line" smooth="yes"/>
			<point x="303" y="-90"/>
			<point x="307" y="-87"/>
			<point x="310" y="-76" type="curve" smooth="yes"/>
			<point x="312" y="-67"/>
			<point x="312" y="-62"/>
			<point x="301" y="-62" type="curve" smooth="yes"/>
			<point x="-32" y="-62" type="line" smooth="yes"/>
			<point x="-42" y="-62"/>
			<point x="-46" y="-65"/>
			<point x="-49" y="-75" type="curve" smooth="yes"/>
			<point x="-52" y="-85"/>
			<point x="-51" y="-90"/>
		</contour>
	</outline>
</glyph>
<glyph name="a" format="2">
  <advance width="498"/>
  <unicode hex="0061"/>
  <anchor x="186" y="0" name="bottom"/>
  <anchor x="437" y="10" name="ogonek"/>
  <anchor x="300" y="400" name="top"/>
  <outline>
    <contour>
      <point x="160" y="-14" type="curve" smooth="yes"/>
      <point x="197" y="-14"/>
      <point x="259" y="1"/>
      <point x="315" y="72" type="curve"/>
      <point x="314" y="67"/>
      <point x="313" y="62"/>
      <point x="313" y="58" type="curve" smooth="yes"/>
      <point x="309" y="12"/>
      <point x="334" y="-14"/>
      <point x="373" y="-14" type="curve" smooth="yes"/>
      <point x="422" y="-14"/>
      <point x="450" y="19"/>
      <point x="470" y="53" type="curve" smooth="yes"/>
      <point x="475" y="60"/>
      <point x="474" y="68"/>
      <point x="465" y="72" type="curve" smooth="yes"/>
      <point x="455" y="77"/>
      <point x="449" y="71"/>
      <point x="445" y="65" type="curve" smooth="yes"/>
      <point x="429" y="37"/>
      <point x="406" y="13"/>
      <point x="377" y="13" type="curve" smooth="yes"/>
      <point x="350" y="13"/>
      <point x="333" y="37"/>
      <point x="351" y="92" type="curve" smooth="yes"/>
      <point x="450" y="395" type="line" smooth="yes"/>
      <point x="453" y="404"/>
      <point x="451" y="412"/>
      <point x="438" y="412" type="curve" smooth="yes"/>
      <point x="427" y="412"/>
      <point x="423" y="409"/>
      <point x="420" y="400" type="curve" smooth="yes"/>
      <point x="413" y="379" type="line"/>
      <point x="382" y="402"/>
      <point x="340" y="415"/>
      <point x="305" y="415" type="curve" smooth="yes"/>
      <point x="128" y="415"/>
      <point x="48" y="245"/>
      <point x="48" y="121" type="curve" smooth="yes"/>
      <point x="48" y="38"/>
      <point x="89" y="-14"/>
    </contour>
    <contour>
      <point x="82" y="122" type="curve" smooth="yes"/>
      <point x="82" y="233"/>
      <point x="148" y="388"/>
      <point x="300" y="388" type="curve" smooth="yes"/>
      <point x="330" y="388"/>
      <point x="363" y="381"/>
      <point x="405" y="353" type="curve"/>
      <point x="339" y="149" type="line"/>
      <point x="283" y="48"/>
      <point x="220" y="14"/>
      <point x="166" y="14" type="curve" smooth="yes"/>
      <point x="107" y="14"/>
      <point x="82" y="58"/>
    </contour>
  </outline>
</glyph>
<glyph name="b" format="2">
  <advance width="478"/>
  <unicode hex="0062"/>
  <anchor x="189" y="0" name="bottom"/>
  <anchor x="254" y="200" name="center"/>
  <anchor x="319" y="400" name="top"/>
  <outline>
    <contour>
      <point x="42" y="-11" type="curve" smooth="yes"/>
      <point x="53" y="-11"/>
      <point x="57" y="-8"/>
      <point x="60" y="1" type="curve" smooth="yes"/>
      <point x="67" y="24" type="line"/>
      <point x="100" y="0"/>
      <point x="141" y="-14"/>
      <point x="175" y="-14" type="curve" smooth="yes"/>
      <point x="355" y="-14"/>
      <point x="431" y="164"/>
      <point x="431" y="280" type="curve" smooth="yes"/>
      <point x="431" y="363"/>
      <point x="390" y="415"/>
      <point x="320" y="415" type="curve" smooth="yes"/>
      <point x="283" y="415"/>
      <point x="223" y="400"/>
      <point x="168" y="333" type="curve"/>
      <point x="288" y="701" type="line" smooth="yes"/>
      <point x="291" y="709"/>
      <point x="284" y="713"/>
      <point x="274" y="713" type="curve" smooth="yes"/>
      <point x="262" y="713"/>
      <point x="259" y="710"/>
      <point x="256" y="701" type="curve" smooth="yes"/>
      <point x="30" y="6" type="line" smooth="yes"/>
      <point x="27" y="-3"/>
      <point x="29" y="-11"/>
    </contour>
    <contour>
      <point x="76" y="49" type="curve"/>
      <point x="143" y="255" type="line"/>
      <point x="198" y="353"/>
      <point x="260" y="387"/>
      <point x="314" y="387" type="curve" smooth="yes"/>
      <point x="371" y="387"/>
      <point x="397" y="344"/>
      <point x="397" y="279" type="curve" smooth="yes"/>
      <point x="397" y="170"/>
      <point x="331" y="13"/>
      <point x="180" y="13" type="curve" smooth="yes"/>
      <point x="151" y="13"/>
      <point x="118" y="21"/>
    </contour>
  </outline>
</glyph>
<glyph name="c" format="2">
  <advance width="523"/>
  <unicode hex="0063"/>
  <anchor x="215" y="0" name="bottom"/>
  <anchor x="355" y="500" name="top"/>
  <outline>
    <contour>
      <point x="231" y="-19" type="curve" smooth="yes"/>
      <point x="294" y="-19"/>
      <point x="369" y="9"/>
      <point x="431" y="71" type="curve" smooth="yes"/>
      <point x="439" y="79"/>
      <point x="436" y="88"/>
      <point x="430" y="93" type="curve" smooth="yes"/>
      <point x="425" y="98"/>
      <point x="418" y="100"/>
      <point x="409" y="93" type="curve" smooth="yes"/>
      <point x="344" y="36"/>
      <point x="296" y="15"/>
      <point x="236" y="15" type="curve" smooth="yes"/>
      <point x="143" y="15"/>
      <point x="106" y="84"/>
      <point x="106" y="174" type="curve" smooth="yes"/>
      <point x="106" y="338"/>
      <point x="213" y="485"/>
      <point x="364" y="485" type="curve" smooth="yes"/>
      <point x="430" y="485"/>
      <point x="460" y="459"/>
      <point x="486" y="426" type="curve" smooth="yes"/>
      <point x="490" y="421"/>
      <point x="498" y="416"/>
      <point x="511" y="426" type="curve" smooth="yes"/>
      <point x="523" y="435"/>
      <point x="523" y="440"/>
      <point x="520" y="446" type="curve" smooth="yes"/>
      <point x="500" y="485"/>
      <point x="441" y="519"/>
      <point x="369" y="519" type="curve" smooth="yes"/>
      <point x="198" y="519"/>
      <point x="68" y="368"/>
      <point x="68" y="174" type="curve" smooth="yes"/>
      <point x="68" y="56"/>
      <point x="125" y="-19"/>
    </contour>
  </outline>
</glyph>
<glyph name="d" format="2">
  <advance width="629"/>
  <unicode hex="0064"/>
  <anchor x="196" y="0" name="bottom"/>
  <anchor x="583" y="698" name="center"/>
  <anchor x="340" y="500" name="top"/>
  <anchor x="684" y="875" name="topright"/>
  <outline>
    <contour>
      <point x="198" y="-17" type="curve" smooth="yes"/>
      <point x="244" y="-17"/>
      <point x="323" y="1"/>
      <point x="391" y="90" type="curve"/>
      <point x="391" y="89"/>
      <point x="390" y="84"/>
      <point x="390" y="81" type="curve" smooth="yes"/>
      <point x="380" y="18"/>
      <point x="411" y="-17"/>
      <point x="464" y="-17" type="curve" smooth="yes"/>
      <point x="523" y="-17"/>
      <point x="558" y="24"/>
      <point x="583" y="66" type="curve" smooth="yes"/>
      <point x="589" y="75"/>
      <point x="588" y="85"/>
      <point x="576" y="90" type="curve" smooth="yes"/>
      <point x="564" y="96"/>
      <point x="556" y="89"/>
      <point x="551" y="81" type="curve" smooth="yes"/>
      <point x="531" y="46"/>
      <point x="503" y="16"/>
      <point x="469" y="16" type="curve" smooth="yes"/>
      <point x="435" y="16"/>
      <point x="414" y="48"/>
      <point x="436" y="115" type="curve" smooth="yes"/>
      <point x="683" y="869" type="line" smooth="yes"/>
      <point x="686" y="880"/>
      <point x="684" y="890"/>
      <point x="668" y="890" type="curve" smooth="yes"/>
      <point x="654" y="890"/>
      <point x="649" y="886"/>
      <point x="645" y="875" type="curve" smooth="yes"/>
      <point x="515" y="474" type="line"/>
      <point x="475" y="503"/>
      <point x="423" y="519"/>
      <point x="379" y="519" type="curve" smooth="yes"/>
      <point x="153" y="519"/>
      <point x="60" y="296"/>
      <point x="60" y="151" type="curve" smooth="yes"/>
      <point x="60" y="48"/>
      <point x="110" y="-17"/>
    </contour>
    <contour>
      <point x="103" y="153" type="curve" smooth="yes"/>
      <point x="103" y="289"/>
      <point x="185" y="485"/>
      <point x="373" y="485" type="curve" smooth="yes"/>
      <point x="410" y="485"/>
      <point x="451" y="476"/>
      <point x="504" y="441" type="curve"/>
      <point x="421" y="186" type="line"/>
      <point x="351" y="60"/>
      <point x="273" y="18"/>
      <point x="205" y="18" type="curve" smooth="yes"/>
      <point x="134" y="18"/>
      <point x="103" y="71"/>
    </contour>
  </outline>
</glyph>
<glyph name="e" format="2">
	<unicode hex="0065"/>
	<advance width="421"/>
	<outline>
		<contour>
			<point x="189" y="-15" type="curve" smooth="yes"/>
			<point x="260" y="-15"/>
			<point x="317" y="27"/>
			<point x="346" y="55" type="curve" smooth="yes"/>
			<point x="353" y="62"/>
			<point x="349" y="70"/>
			<point x="345" y="74" type="curve" smooth="yes"/>
			<point x="340" y="78"/>
			<point x="335" y="80"/>
			<point x="328" y="74" type="curve" smooth="yes"/>
			<point x="298" y="48"/>
			<point x="256" y="12"/>
			<point x="190" y="12" type="curve" smooth="yes"/>
			<point x="132" y="12"/>
			<point x="85" y="47"/>
			<point x="85" y="137" type="curve" smooth="yes"/>
			<point x="85" y="268"/>
			<point x="169" y="388"/>
			<point x="296" y="388" type="curve" smooth="yes"/>
			<point x="347" y="388"/>
			<point x="377" y="368"/>
			<point x="377" y="329" type="curve" smooth="yes"/>
			<point x="377" y="231"/>
			<point x="227" y="196"/>
			<point x="86" y="194" type="curve"/>
			<point x="77" y="167" type="line"/>
			<point x="231" y="169"/>
			<point x="410" y="201"/>
			<point x="410" y="334" type="curve" smooth="yes"/>
			<point x="410" y="377"/>
			<point x="380" y="415"/>
			<point x="300" y="415" type="curve" smooth="yes"/>
			<point x="160" y="415"/>
			<point x="54" y="293"/>
			<point x="54" y="138" type="curve" smooth="yes"/>
			<point x="54" y="56"/>
			<point x="87" y="-15"/>
		</contour>
	</outline>
	<anchor name="bottom" x="174" y="0"/>
	<anchor name="ogonek" x="284" y="10"/>
	<anchor name="top" x="276" y="400"/>
</glyph>
<glyph name="g" format="2">
	<unicode hex="0067"/>
	<advance width="478"/>
	<outline>
		<contour>
			<point x="87" y="-315" type="curve" smooth="yes"/>
			<point x="191" y="-315"/>
			<point x="238" y="-255"/>
			<point x="280" y="-127" type="curve" smooth="yes"/>
			<point x="450" y="395" type="line" smooth="yes"/>
			<point x="453" y="404"/>
			<point x="451" y="412"/>
			<point x="438" y="412" type="curve" smooth="yes"/>
			<point x="427" y="412"/>
			<point x="423" y="409"/>
			<point x="420" y="400" type="curve" smooth="yes"/>
			<point x="250" y="-125" type="line" smooth="yes"/>
			<point x="214" y="-236"/>
			<point x="173" y="-287"/>
			<point x="90" y="-287" type="curve" smooth="yes"/>
			<point x="35" y="-287"/>
			<point x="4" y="-270"/>
			<point x="-16" y="-211" type="curve" smooth="yes"/>
			<point x="-18" y="-204"/>
			<point x="-23" y="-201"/>
			<point x="-33" y="-205" type="curve" smooth="yes"/>
			<point x="-44" y="-209"/>
			<point x="-46" y="-215"/>
			<point x="-44" y="-223" type="curve" smooth="yes"/>
			<point x="-26" y="-284"/>
			<point x="16" y="-315"/>
		</contour>
		<contour>
			<point x="160" y="-14" type="curve" smooth="yes"/>
			<point x="205" y="-14"/>
			<point x="286" y="8"/>
			<point x="348" y="123" type="curve"/>
			<point x="341" y="153" type="line"/>
			<point x="285" y="49"/>
			<point x="221" y="14"/>
			<point x="166" y="14" type="curve" smooth="yes"/>
			<point x="109" y="14"/>
			<point x="84" y="57"/>
			<point x="84" y="122" type="curve" smooth="yes"/>
			<point x="84" y="231"/>
			<point x="150" y="388"/>
			<point x="300" y="388" type="curve" smooth="yes"/>
			<point x="331" y="388"/>
			<point x="366" y="380"/>
			<point x="410" y="350" type="curve"/>
			<point x="419" y="375" type="line"/>
			<point x="387" y="400"/>
			<point x="342" y="415"/>
			<point x="305" y="415" type="curve" smooth="yes"/>
			<point x="124" y="415"/>
			<point x="50" y="237"/>
			<point x="50" y="121" type="curve" smooth="yes"/>
			<point x="50" y="38"/>
			<point x="90" y="-14"/>
		</contour>
	</outline>
	<anchor name="top" x="290" y="400"/>
	<guideline x="409" y="261" angle="72"/>
</glyph>
<glyph name="h" format="2">
	<unicode hex="0068"/>
	<advance width="521"/>
	<outline>
		<contour>
			<point x="395" y="-14" type="curve" smooth="yes"/>
			<point x="442" y="-14"/>
			<point x="473" y="19"/>
			<point x="493" y="53" type="curve" smooth="yes"/>
			<point x="498" y="60"/>
			<point x="497" y="68"/>
			<point x="488" y="72" type="curve" smooth="yes"/>
			<point x="478" y="77"/>
			<point x="472" y="71"/>
			<point x="469" y="65" type="curve" smooth="yes"/>
			<point x="454" y="39"/>
			<point x="426" y="13"/>
			<point x="398" y="13" type="curve" smooth="yes"/>
			<point x="370" y="13"/>
			<point x="358" y="37"/>
			<point x="376" y="93" type="curve" smooth="yes"/>
			<point x="429" y="257" type="line" smooth="yes"/>
			<point x="464" y="366"/>
			<point x="417" y="415"/>
			<point x="336" y="415" type="curve" smooth="yes"/>
			<point x="290" y="415"/>
			<point x="222" y="400"/>
			<point x="165" y="323" type="curve"/>
			<point x="288" y="699" type="line" smooth="yes"/>
			<point x="291" y="707"/>
			<point x="285" y="712"/>
			<point x="275" y="712" type="curve" smooth="yes"/>
			<point x="263" y="712"/>
			<point x="259" y="709"/>
			<point x="256" y="700" type="curve" smooth="yes"/>
			<point x="28" y="0" type="line" smooth="yes"/>
			<point x="25" y="-8"/>
			<point x="32" y="-12"/>
			<point x="42" y="-12" type="curve" smooth="yes"/>
			<point x="54" y="-12"/>
			<point x="57" y="-9"/>
			<point x="60" y="0" type="curve" smooth="yes"/>
			<point x="142" y="250" type="line"/>
			<point x="194" y="354"/>
			<point x="267" y="387"/>
			<point x="332" y="387" type="curve" smooth="yes"/>
			<point x="406" y="387"/>
			<point x="425" y="339"/>
			<point x="402" y="269" type="curve" smooth="yes"/>
			<point x="347" y="99" type="line" smooth="yes"/>
			<point x="321" y="18"/>
			<point x="347" y="-14"/>
		</contour>
	</outline>
	<anchor name="bottom" x="203" y="0"/>
	<anchor name="center" x="246" y="558"/>
	<anchor name="top" x="264" y="670"/>
</glyph>
<glyph name="i" format="2">
	<unicode hex="0069"/>
	<advance width="240"/>
	<outline>
		<contour>
			<point x="106" y="-14" type="curve" smooth="yes"/>
			<point x="152" y="-14"/>
			<point x="183" y="19"/>
			<point x="203" y="53" type="curve" smooth="yes"/>
			<point x="208" y="60"/>
			<point x="207" y="68"/>
			<point x="198" y="72" type="curve" smooth="yes"/>
			<point x="188" y="77"/>
			<point x="182" y="71"/>
			<point x="179" y="65" type="curve" smooth="yes"/>
			<point x="164" y="39"/>
			<point x="136" y="13"/>
			<point x="109" y="13" type="curve" smooth="yes"/>
			<point x="81" y="13"/>
			<point x="69" y="37"/>
			<point x="87" y="93" type="curve" smooth="yes"/>
			<point x="187" y="399" type="line"/>
			<point x="190" y="407"/>
			<point x="184" y="412"/>
			<point x="174" y="412" type="curve" smooth="yes"/>
			<point x="162" y="412"/>
			<point x="158" y="409"/>
			<point x="155" y="400" type="curve"/>
			<point x="57" y="99" type="line" smooth="yes"/>
			<point x="31" y="18"/>
			<point x="58" y="-14"/>
		</contour>
		<contour>
			<point x="217" y="552" type="curve" smooth="yes"/>
			<point x="242" y="552"/>
			<point x="257" y="574"/>
			<point x="257" y="597" type="curve" smooth="yes"/>
			<point x="257" y="613"/>
			<point x="245" y="620"/>
			<point x="228" y="620" type="curve" smooth="yes"/>
			<point x="203" y="620"/>
			<point x="188" y="598"/>
			<point x="188" y="575" type="curve" smooth="yes"/>
			<point x="188" y="559"/>
			<point x="199" y="552"/>
		</contour>
	</outline>
	<anchor name="bottom" x="100" y="0"/>
	<anchor name="ogonek" x="143" y="0"/>
	<guideline x="184" y="489" angle="72"/>
</glyph>
<glyph name="j" format="2">
	<unicode hex="006A"/>
	<advance width="214"/>
	<outline>
		<contour>
			<point x="-118" y="-314" type="curve" smooth="yes"/>
			<point x="-64" y="-314"/>
			<point x="-37" y="-287"/>
			<point x="-11" y="-209" type="curve" smooth="yes"/>
			<point x="188" y="399" type="line" smooth="yes"/>
			<point x="191" y="408"/>
			<point x="184" y="412"/>
			<point x="174" y="412" type="curve" smooth="yes"/>
			<point x="164" y="412"/>
			<point x="159" y="409"/>
			<point x="156" y="400" type="curve" smooth="yes"/>
			<point x="-41" y="-206" type="line" smooth="yes"/>
			<point x="-62" y="-269"/>
			<point x="-78" y="-286"/>
			<point x="-115" y="-286" type="curve" smooth="yes"/>
			<point x="-140" y="-286"/>
			<point x="-158" y="-272"/>
			<point x="-170" y="-243" type="curve" smooth="yes"/>
			<point x="-174" y="-235"/>
			<point x="-180" y="-233"/>
			<point x="-189" y="-238" type="curve" smooth="yes"/>
			<point x="-198" y="-243"/>
			<point x="-200" y="-249"/>
			<point x="-197" y="-257" type="curve" smooth="yes"/>
			<point x="-183" y="-293"/>
			<point x="-153" y="-314"/>
		</contour>
		<contour>
			<point x="220" y="552" type="curve" smooth="yes"/>
			<point x="245" y="552"/>
			<point x="260" y="574"/>
			<point x="260" y="597" type="curve" smooth="yes"/>
			<point x="260" y="613"/>
			<point x="248" y="620"/>
			<point x="231" y="620" type="curve" smooth="yes"/>
			<point x="206" y="620"/>
			<point x="191" y="598"/>
			<point x="191" y="575" type="curve" smooth="yes"/>
			<point x="191" y="559"/>
			<point x="202" y="552"/>
		</contour>
	</outline>
</glyph>
<glyph name="l" format="2">
	<unicode hex="006C"/>
	<advance width="239"/>
	<outline>
		<contour>
			<point x="104" y="-14" type="curve" smooth="yes"/>
			<point x="151" y="-14"/>
			<point x="182" y="19"/>
			<point x="202" y="53" type="curve" smooth="yes"/>
			<point x="207" y="60"/>
			<point x="206" y="68"/>
			<point x="197" y="72" type="curve" smooth="yes"/>
			<point x="187" y="77"/>
			<point x="181" y="71"/>
			<point x="178" y="65" type="curve" smooth="yes"/>
			<point x="163" y="39"/>
			<point x="135" y="13"/>
			<point x="107" y="13" type="curve" smooth="yes"/>
			<point x="79" y="13"/>
			<point x="67" y="37"/>
			<point x="85" y="93" type="curve" smooth="yes"/>
			<point x="283" y="699" type="line" smooth="yes"/>
			<point x="286" y="707"/>
			<point x="280" y="712"/>
			<point x="270" y="712" type="curve" smooth="yes"/>
			<point x="258" y="712"/>
			<point x="254" y="709"/>
			<point x="251" y="700" type="curve" smooth="yes"/>
			<point x="55" y="99" type="line" smooth="yes"/>
			<point x="29" y="18"/>
			<point x="56" y="-14"/>
		</contour>
	</outline>
	<anchor name="bottom" x="101" y="0"/>
	<anchor name="center" x="154" y="350"/>
	<anchor name="top" x="260" y="670"/>
	<anchor name="topright" x="283" y="699"/>
</glyph>
<glyph name="n" format="2">
	<unicode hex="006E"/>
	<advance width="517"/>
	<outline>
		<contour>
			<point x="391" y="-14" type="curve" smooth="yes"/>
			<point x="438" y="-14"/>
			<point x="469" y="19"/>
			<point x="489" y="53" type="curve" smooth="yes"/>
			<point x="494" y="60"/>
			<point x="493" y="68"/>
			<point x="484" y="72" type="curve" smooth="yes"/>
			<point x="474" y="77"/>
			<point x="468" y="71"/>
			<point x="465" y="65" type="curve" smooth="yes"/>
			<point x="450" y="39"/>
			<point x="422" y="13"/>
			<point x="394" y="13" type="curve" smooth="yes"/>
			<point x="366" y="13"/>
			<point x="354" y="37"/>
			<point x="372" y="93" type="curve" smooth="yes"/>
			<point x="425" y="257" type="line" smooth="yes"/>
			<point x="460" y="366"/>
			<point x="413" y="415"/>
			<point x="333" y="415" type="curve" smooth="yes"/>
			<point x="287" y="415"/>
			<point x="219" y="400"/>
			<point x="162" y="323" type="curve"/>
			<point x="187" y="399" type="line" smooth="yes"/>
			<point x="190" y="407"/>
			<point x="184" y="412"/>
			<point x="174" y="412" type="curve" smooth="yes"/>
			<point x="162" y="412"/>
			<point x="158" y="409"/>
			<point x="155" y="400" type="curve" smooth="yes"/>
			<point x="25" y="0" type="line" smooth="yes"/>
			<point x="22" y="-8"/>
			<point x="29" y="-12"/>
			<point x="39" y="-12" type="curve" smooth="yes"/>
			<point x="51" y="-12"/>
			<point x="54" y="-9"/>
			<point x="57" y="0" type="curve" smooth="yes"/>
			<point x="138" y="250" type="line"/>
			<point x="191" y="354"/>
			<point x="264" y="387"/>
			<point x="329" y="387" type="curve" smooth="yes"/>
			<point x="402" y="387"/>
			<point x="421" y="339"/>
			<point x="398" y="269" type="curve" smooth="yes"/>
			<point x="343" y="99" type="line" smooth="yes"/>
			<point x="317" y="18"/>
			<point x="343" y="-14"/>
		</contour>
	</outline>
	<anchor name="bottom" x="200" y="0"/>
	<anchor name="top" x="294" y="400"/>
</glyph>
<glyph name="p" format="2">
  <advance width="599"/>
  <unicode hex="0070"/>
  <guideline x="81" y="159" angle="72"/>
  <outline>
    <contour>
      <point x="-69" y="-390" type="curve" smooth="yes"/>
      <point x="-55" y="-390"/>
      <point x="-50" y="-386"/>
      <point x="-46" y="-375" type="curve" smooth="yes"/>
      <point x="85" y="30" type="line"/>
      <point x="126" y="0"/>
      <point x="177" y="-17"/>
      <point x="220" y="-17" type="curve" smooth="yes"/>
      <point x="444" y="-17"/>
      <point x="540" y="205"/>
      <point x="540" y="350" type="curve" smooth="yes"/>
      <point x="540" y="454"/>
      <point x="489" y="519"/>
      <point x="401" y="519" type="curve" smooth="yes"/>
      <point x="355" y="519"/>
      <point x="280" y="500"/>
      <point x="211" y="416" type="curve"/>
      <point x="239" y="500" type="line" smooth="yes"/>
      <point x="242" y="510"/>
      <point x="234" y="515"/>
      <point x="221" y="515" type="curve" smooth="yes"/>
      <point x="206" y="515"/>
      <point x="202" y="511"/>
      <point x="199" y="500" type="curve" smooth="yes"/>
      <point x="-84" y="-369" type="line" smooth="yes"/>
      <point x="-88" y="-380"/>
      <point x="-85" y="-390"/>
    </contour>
    <contour>
      <point x="96" y="61" type="curve"/>
      <point x="180" y="319" type="line"/>
      <point x="249" y="443"/>
      <point x="326" y="484"/>
      <point x="394" y="484" type="curve" smooth="yes"/>
      <point x="465" y="484"/>
      <point x="497" y="430"/>
      <point x="497" y="349" type="curve" smooth="yes"/>
      <point x="497" y="213"/>
      <point x="414" y="16"/>
      <point x="226" y="16" type="curve" smooth="yes"/>
      <point x="190" y="16"/>
      <point x="149" y="26"/>
    </contour>
  </outline>
</glyph>
<glyph name="q" format="2">
  <advance width="478"/>
  <unicode hex="0071"/>
  <guideline x="409" y="261" angle="72"/>
  <outline>
    <contour>
      <point x="160" y="-14" type="curve" smooth="yes"/>
      <point x="197" y="-14"/>
      <point x="257" y="1"/>
      <point x="312" y="68" type="curve"/>
      <point x="192" y="-300" type="line" smooth="yes"/>
      <point x="189" y="-308"/>
      <point x="196" y="-312"/>
      <point x="206" y="-312" type="curve" smooth="yes"/>
      <point x="218" y="-312"/>
      <point x="221" y="-309"/>
      <point x="224" y="-300" type="curve" smooth="yes"/>
      <point x="450" y="395" type="line" smooth="yes"/>
      <point x="453" y="404"/>
      <point x="451" y="412"/>
      <point x="438" y="412" type="curve" smooth="yes"/>
      <point x="427" y="412"/>
      <point x="423" y="409"/>
      <point x="420" y="400" type="curve" smooth="yes"/>
      <point x="413" y="379" type="line"/>
      <point x="382" y="402"/>
      <point x="340" y="415"/>
      <point x="305" y="415" type="curve" smooth="yes"/>
      <point x="124" y="415"/>
      <point x="50" y="237"/>
      <point x="50" y="121" type="curve" smooth="yes"/>
      <point x="50" y="38"/>
      <point x="90" y="-14"/>
    </contour>
    <contour>
      <point x="84" y="122" type="curve" smooth="yes"/>
      <point x="84" y="231"/>
      <point x="150" y="388"/>
      <point x="300" y="388" type="curve" smooth="yes"/>
      <point x="330" y="388"/>
      <point x="363" y="381"/>
      <point x="405" y="353" type="curve"/>
      <point x="337" y="146" type="line"/>
      <point x="282" y="48"/>
      <point x="220" y="14"/>
      <point x="166" y="14" type="curve" smooth="yes"/>
      <point x="109" y="14"/>
      <point x="84" y="57"/>
    </contour>
  </outline>
</glyph>
<glyph name="r" format="2">
  <advance width="453"/>
  <unicode hex="0072"/>
  <anchor x="50" y="0" name="bottom"/>
  <anchor x="334" y="500" name="top"/>
  <outline>
    <contour>
      <point x="48" y="-15" type="curve" smooth="yes"/>
      <point x="60" y="-15"/>
      <point x="67" y="-11"/>
      <point x="70" y="0" type="curve" smooth="yes"/>
      <point x="172" y="310" type="line"/>
      <point x="237" y="433"/>
      <point x="319" y="484"/>
      <point x="393" y="484" type="curve" smooth="yes"/>
      <point x="429" y="484"/>
      <point x="459" y="470"/>
      <point x="475" y="461" type="curve" smooth="yes"/>
      <point x="482" y="458"/>
      <point x="488" y="459"/>
      <point x="498" y="469" type="curve" smooth="yes"/>
      <point x="509" y="481"/>
      <point x="509" y="488"/>
      <point x="503" y="493" type="curve" smooth="yes"/>
      <point x="485" y="506"/>
      <point x="445" y="519"/>
      <point x="404" y="519" type="curve" smooth="yes"/>
      <point x="348" y="519"/>
      <point x="269" y="496"/>
      <point x="202" y="403" type="curve"/>
      <point x="232" y="496" type="line" smooth="yes"/>
      <point x="235" y="508"/>
      <point x="229" y="515"/>
      <point x="217" y="515" type="curve" smooth="yes"/>
      <point x="204" y="515"/>
      <point x="197" y="511"/>
      <point x="193" y="500" type="curve" smooth="yes"/>
      <point x="32" y="3" type="line" smooth="yes"/>
      <point x="28" y="-9"/>
      <point x="35" y="-15"/>
    </contour>
  </outline>
</glyph>
<glyph name="s" format="2">
  <advance width="479"/>
  <unicode hex="0073"/>
  <guideline x="356" y="342" angle="135"/>
  <anchor x="173" y="0" name="bottom"/>
  <anchor x="319" y="500" name="top"/>
  <outline>
    <contour>
      <point x="181" y="-19" type="curve" smooth="yes"/>
      <point x="289" y="-19"/>
      <point x="379" y="41"/>
      <point x="379" y="143" type="curve" smooth="yes"/>
      <point x="379" y="276"/>
      <point x="178" y="256"/>
      <point x="178" y="375" type="curve" smooth="yes"/>
      <point x="178" y="448"/>
      <point x="235" y="485"/>
      <point x="313" y="485" type="curve" smooth="yes"/>
      <point x="369" y="485"/>
      <point x="410" y="463"/>
      <point x="445" y="428" type="curve" smooth="yes"/>
      <point x="451" y="421"/>
      <point x="460" y="420"/>
      <point x="468" y="426" type="curve" smooth="yes"/>
      <point x="478" y="434"/>
      <point x="481" y="440"/>
      <point x="476" y="449" type="curve" smooth="yes"/>
      <point x="459" y="476"/>
      <point x="401" y="519"/>
      <point x="320" y="519" type="curve" smooth="yes"/>
      <point x="219" y="519"/>
      <point x="138" y="470"/>
      <point x="138" y="373" type="curve" smooth="yes"/>
      <point x="138" y="230"/>
      <point x="338" y="253"/>
      <point x="338" y="138" type="curve" smooth="yes"/>
      <point x="338" y="59"/>
      <point x="266" y="16"/>
      <point x="184" y="16" type="curve" smooth="yes"/>
      <point x="115" y="16"/>
      <point x="68" y="49"/>
      <point x="41" y="79" type="curve" smooth="yes"/>
      <point x="34" y="88"/>
      <point x="26" y="88"/>
      <point x="15" y="79" type="curve" smooth="yes"/>
      <point x="6" y="71"/>
      <point x="1" y="63"/>
      <point x="8" y="53" type="curve" smooth="yes"/>
      <point x="24" y="29"/>
      <point x="84" y="-19"/>
    </contour>
  </outline>
</glyph>
<glyph name="u" format="2">
  <advance width="646"/>
  <unicode hex="0075"/>
  <anchor x="216" y="0" name="bottom"/>
  <anchor x="504" y="13" name="ogonek"/>
  <anchor x="379" y="500" name="top"/>
  <anchor x="550" y="514" name="topright"/>
  <outline>
    <contour>
      <point x="198" y="-17" type="curve" smooth="yes"/>
      <point x="254" y="-17"/>
      <point x="341" y="2"/>
      <point x="411" y="101" type="curve"/>
      <point x="410" y="97" type="line" smooth="yes"/>
      <point x="390" y="19"/>
      <point x="425" y="-17"/>
      <point x="479" y="-17" type="curve" smooth="yes"/>
      <point x="536" y="-17"/>
      <point x="575" y="24"/>
      <point x="600" y="66" type="curve" smooth="yes"/>
      <point x="606" y="75"/>
      <point x="605" y="85"/>
      <point x="594" y="90" type="curve" smooth="yes"/>
      <point x="581" y="96"/>
      <point x="574" y="89"/>
      <point x="570" y="81" type="curve" smooth="yes"/>
      <point x="551" y="49"/>
      <point x="516" y="16"/>
      <point x="483" y="16" type="curve" smooth="yes"/>
      <point x="448" y="16"/>
      <point x="431" y="45"/>
      <point x="454" y="116" type="curve" smooth="yes"/>
      <point x="579" y="501" type="line" smooth="yes"/>
      <point x="583" y="511"/>
      <point x="574" y="516"/>
      <point x="561" y="516" type="curve" smooth="yes"/>
      <point x="546" y="516"/>
      <point x="543" y="513"/>
      <point x="539" y="501" type="curve" smooth="yes"/>
      <point x="440" y="193" type="line"/>
      <point x="374" y="60"/>
      <point x="283" y="18"/>
      <point x="203" y="18" type="curve" smooth="yes"/>
      <point x="115" y="18"/>
      <point x="91" y="78"/>
      <point x="120" y="165" type="curve" smooth="yes"/>
      <point x="230" y="499" type="line" smooth="yes"/>
      <point x="234" y="509"/>
      <point x="226" y="515"/>
      <point x="214" y="515" type="curve" smooth="yes"/>
      <point x="199" y="515"/>
      <point x="194" y="511"/>
      <point x="190" y="500" type="curve" smooth="yes"/>
      <point x="85" y="180" type="line" smooth="yes"/>
      <point x="40" y="44"/>
      <point x="101" y="-17"/>
    </contour>
  </outline>
</glyph>
<glyph name="v" format="2">
	<unicode hex="0076"/>
	<advance width="407"/>
	<outline>
		<contour>
			<point x="128" y="-12" type="curve" smooth="yes"/>
			<point x="138" y="-12"/>
			<point x="142" y="-8"/>
			<point x="148" y="0" type="curve" smooth="yes"/>
			<point x="429" y="393" type="line" smooth="yes"/>
			<point x="436" y="402"/>
			<point x="426" y="412"/>
			<point x="414" y="412" type="curve" smooth="yes"/>
			<point x="406" y="412"/>
			<point x="403" y="410"/>
			<point x="396" y="400" type="curve" smooth="yes"/>
			<point x="142" y="36" type="line"/>
			<point x="115" y="400" type="line" smooth="yes"/>
			<point x="114" y="408"/>
			<point x="113" y="412"/>
			<point x="102" y="412" type="curve" smooth="yes"/>
			<point x="91" y="412"/>
			<point x="84" y="407"/>
			<point x="85" y="397" type="curve" smooth="yes"/>
			<point x="116" y="0" type="line" smooth="yes"/>
			<point x="117" y="-8"/>
			<point x="119" y="-12"/>
		</contour>
	</outline>
</glyph>
<glyph name="w" format="2">
	<unicode hex="0077"/>
	<advance width="643"/>
	<outline>
		<contour>
			<point x="95" y="-12" type="curve" smooth="yes"/>
			<point x="105" y="-12"/>
			<point x="112" y="-7"/>
			<point x="117" y="1" type="curve" smooth="yes"/>
			<point x="368" y="365" type="line"/>
			<point x="384" y="3" type="line" smooth="yes"/>
			<point x="384" y="-5"/>
			<point x="386" y="-12"/>
			<point x="396" y="-12" type="curve" smooth="yes"/>
			<point x="405" y="-12"/>
			<point x="409" y="-7"/>
			<point x="414" y="1" type="curve" smooth="yes"/>
			<point x="665" y="393" type="line" smooth="yes"/>
			<point x="670" y="400"/>
			<point x="669" y="407"/>
			<point x="658" y="411" type="curve" smooth="yes"/>
			<point x="648" y="415"/>
			<point x="643" y="408"/>
			<point x="638" y="400" type="curve" smooth="yes"/>
			<point x="409" y="36" type="line"/>
			<point x="394" y="397" type="line" smooth="yes"/>
			<point x="394" y="405"/>
			<point x="391" y="412"/>
			<point x="380" y="412" type="curve" smooth="yes"/>
			<point x="370" y="412"/>
			<point x="367" y="409"/>
			<point x="360" y="399" type="curve" smooth="yes"/>
			<point x="109" y="35" type="line"/>
			<point x="114" y="400" type="line" smooth="yes"/>
			<point x="114" y="408"/>
			<point x="110" y="412"/>
			<point x="100" y="412" type="curve" smooth="yes"/>
			<point x="88" y="412"/>
			<point x="85" y="405"/>
			<point x="85" y="396" type="curve" smooth="yes"/>
			<point x="82" y="4" type="line" smooth="yes"/>
			<point x="82" y="-4"/>
			<point x="85" y="-12"/>
		</contour>
	</outline>
	<anchor name="bottom" x="257" y="0"/>
	<anchor name="top" x="376" y="400"/>
</glyph>
<glyph name="y" format="2">
	<unicode hex="0079"/>
	<advance width="492"/>
	<outline>
		<contour>
			<point x="160" y="-14" type="curve" smooth="yes"/>
			<point x="204" y="-14"/>
			<point x="273" y="1"/>
			<point x="330" y="78" type="curve"/>
			<point x="264" y="-125" type="line" smooth="yes"/>
			<point x="228" y="-236"/>
			<point x="187" y="-287"/>
			<point x="104" y="-287" type="curve" smooth="yes"/>
			<point x="49" y="-287"/>
			<point x="18" y="-270"/>
			<point x="-2" y="-211" type="curve" smooth="yes"/>
			<point x="-4" y="-204"/>
			<point x="-9" y="-201"/>
			<point x="-19" y="-205" type="curve" smooth="yes"/>
			<point x="-30" y="-209"/>
			<point x="-32" y="-215"/>
			<point x="-30" y="-223" type="curve" smooth="yes"/>
			<point x="-10" y="-284"/>
			<point x="30" y="-315"/>
			<point x="101" y="-315" type="curve" smooth="yes"/>
			<point x="205" y="-315"/>
			<point x="252" y="-255"/>
			<point x="294" y="-127" type="curve" smooth="yes"/>
			<point x="464" y="395" type="line" smooth="yes"/>
			<point x="467" y="404"/>
			<point x="465" y="412"/>
			<point x="452" y="412" type="curve" smooth="yes"/>
			<point x="441" y="412"/>
			<point x="437" y="409"/>
			<point x="434" y="400" type="curve" smooth="yes"/>
			<point x="353" y="150" type="line"/>
			<point x="300" y="47"/>
			<point x="227" y="14"/>
			<point x="164" y="14" type="curve" smooth="yes"/>
			<point x="94" y="14"/>
			<point x="75" y="62"/>
			<point x="98" y="132" type="curve" smooth="yes"/>
			<point x="186" y="399" type="line" smooth="yes"/>
			<point x="189" y="407"/>
			<point x="183" y="412"/>
			<point x="173" y="412" type="curve" smooth="yes"/>
			<point x="161" y="412"/>
			<point x="157" y="409"/>
			<point x="154" y="400" type="curve" smooth="yes"/>
			<point x="70" y="144" type="line" smooth="yes"/>
			<point x="34" y="35"/>
			<point x="83" y="-14"/>
		</contour>
	</outline>
	<anchor name="bottom" x="181" y="0"/>
	<anchor name="top" x="297" y="400"/>
</glyph>
<glyph name="z" format="2">
  <advance width="396"/>
  <unicode hex="007A"/>
  <anchor x="140" y="0" name="bottom"/>
  <anchor x="205" y="200" name="center"/>
  <anchor x="260" y="400" name="top"/>
  <outline>
    <contour>
      <point x="5" y="0" type="curve" smooth="yes"/>
      <point x="289" y="0" type="line" smooth="yes"/>
      <point x="298" y="0"/>
      <point x="302" y="4"/>
      <point x="305" y="12" type="curve" smooth="yes"/>
      <point x="308" y="23"/>
      <point x="307" y="28"/>
      <point x="298" y="28" type="curve" smooth="yes"/>
      <point x="46" y="28" type="line"/>
      <point x="409" y="374" type="line" smooth="yes"/>
      <point x="421" y="386"/>
      <point x="420" y="400"/>
      <point x="408" y="400" type="curve" smooth="yes"/>
      <point x="133" y="400" type="line" smooth="yes"/>
      <point x="124" y="400"/>
      <point x="119" y="395"/>
      <point x="116" y="386" type="curve" smooth="yes"/>
      <point x="113" y="376"/>
      <point x="115" y="372"/>
      <point x="124" y="372" type="curve" smooth="yes"/>
      <point x="367" y="372" type="line"/>
      <point x="1" y="24" type="line" smooth="yes"/>
      <point x="-6" y="17"/>
      <point x="-12" y="0"/>
    </contour>
  </outline>
</glyph>
<glyph name="bar" format="2">
  <advance width="310"/>
  <unicode hex="007C"/>
  <outline>
    <contour>
      <point x="70" y="-61" type="curve" smooth="yes"/>
      <point x="81" y="-61"/>
      <point x="86" y="-58"/>
      <point x="89" y="-49" type="curve" smooth="yes"/>
      <point x="349" y="751" type="line" smooth="yes"/>
      <point x="352" y="760"/>
      <point x="348" y="763"/>
      <point x="338" y="763" type="curve" smooth="yes"/>
      <point x="327" y="763"/>
      <point x="322" y="760"/>
      <point x="319" y="751" type="curve" smooth="yes"/>
      <point x="59" y="-49" type="line" smooth="yes"/>
      <point x="56" y="-58"/>
      <point x="59" y="-61"/>
    </contour>
  </outline>
</glyph>
<glyph name="braceright" format="2">
	<unicode hex="007D"/>
	<advance width="263"/>
	<outline>
		<contour>
			<point x="-27" y="-60" type="curve" smooth="yes"/>
			<point x="70" y="-60"/>
			<point x="146" y="6"/>
			<point x="146" y="83" type="curve" smooth="yes"/>
			<point x="146" y="132"/>
			<point x="127" y="153"/>
			<point x="127" y="213" type="curve" smooth="yes"/>
			<point x="127" y="277"/>
			<point x="172" y="323"/>
			<point x="256" y="336" type="curve" smooth="yes"/>
			<point x="262" y="337"/>
			<point x="267" y="340"/>
			<point x="270" y="350" type="curve" smooth="yes"/>
			<point x="273" y="361"/>
			<point x="269" y="363"/>
			<point x="264" y="364" type="curve" smooth="yes"/>
			<point x="215" y="373"/>
			<point x="193" y="394"/>
			<point x="193" y="423" type="curve" smooth="yes"/>
			<point x="193" y="499"/>
			<point x="327" y="581"/>
			<point x="327" y="675" type="curve" smooth="yes"/>
			<point x="327" y="731"/>
			<point x="290" y="760"/>
			<point x="221" y="760" type="curve" smooth="yes"/>
			<point x="213" y="760"/>
			<point x="211" y="756"/>
			<point x="208" y="746" type="curve" smooth="yes"/>
			<point x="206" y="740"/>
			<point x="206" y="732"/>
			<point x="215" y="732" type="curve" smooth="yes"/>
			<point x="267" y="732"/>
			<point x="297" y="721"/>
			<point x="297" y="675" type="curve" smooth="yes"/>
			<point x="297" y="584"/>
			<point x="164" y="518"/>
			<point x="164" y="423" type="curve" smooth="yes"/>
			<point x="164" y="393"/>
			<point x="178" y="366"/>
			<point x="215" y="354" type="curve"/>
			<point x="141" y="335"/>
			<point x="97" y="276"/>
			<point x="97" y="213" type="curve" smooth="yes"/>
			<point x="97" y="149"/>
			<point x="116" y="123"/>
			<point x="116" y="83" type="curve" smooth="yes"/>
			<point x="116" y="16"/>
			<point x="55" y="-32"/>
			<point x="-21" y="-32" type="curve" smooth="yes"/>
			<point x="-29" y="-32"/>
			<point x="-31" y="-36"/>
			<point x="-34" y="-46" type="curve" smooth="yes"/>
			<point x="-36" y="-52"/>
			<point x="-36" y="-60"/>
		</contour>
	</outline>
</glyph>
<glyph name="asciitilde" format="2">
	<unicode hex="007E"/>
	<advance width="610"/>
	<outline>
		<contour>
			<point x="465" y="273" type="curve" smooth="yes"/>
			<point x="527" y="273"/>
			<point x="576" y="319"/>
			<point x="598" y="410" type="curve" smooth="yes"/>
			<point x="600" y="418"/>
			<point x="597" y="421"/>
			<point x="587" y="421" type="curve" smooth="yes"/>
			<point x="577" y="421"/>
			<point x="572" y="418"/>
			<point x="570" y="411" type="curve" smooth="yes"/>
			<point x="552" y="331"/>
			<point x="510" y="300"/>
			<point x="465" y="300" type="curve" smooth="yes"/>
			<point x="425" y="300"/>
			<point x="393" y="333"/>
			<point x="357" y="366" type="curve" smooth="yes"/>
			<point x="325" y="396"/>
			<point x="289" y="425"/>
			<point x="242" y="425" type="curve" smooth="yes"/>
			<point x="180" y="425"/>
			<point x="130" y="379"/>
			<point x="108" y="288" type="curve" smooth="yes"/>
			<point x="106" y="280"/>
			<point x="109" y="277"/>
			<point x="119" y="277" type="curve" smooth="yes"/>
			<point x="129" y="277"/>
			<point x="134" y="280"/>
			<point x="136" y="287" type="curve" smooth="yes"/>
			<point x="154" y="367"/>
			<point x="197" y="398"/>
			<point x="242" y="398" type="curve" smooth="yes"/>
			<point x="277" y="398"/>
			<point x="307" y="372"/>
			<point x="337" y="344" type="curve" smooth="yes"/>
			<point x="373" y="310"/>
			<point x="412" y="273"/>
		</contour>
	</outline>
</glyph>
<glyph name="sterling" format="2">
  <advance width="540"/>
  <unicode hex="00A3"/>
  <outline>
    <contour>
      <point x="99" y="15" type="line"/>
      <point x="129" y="15" type="line"/>
      <point x="305" y="557" type="line" smooth="yes"/>
      <point x="332" y="641"/>
      <point x="386" y="682"/>
      <point x="460" y="682" type="curve" smooth="yes"/>
      <point x="511" y="682"/>
      <point x="560" y="659"/>
      <point x="598" y="624" type="curve" smooth="yes"/>
      <point x="603" y="619"/>
      <point x="611" y="617"/>
      <point x="620" y="626" type="curve" smooth="yes"/>
      <point x="629" y="635"/>
      <point x="627" y="641"/>
      <point x="622" y="646" type="curve" smooth="yes"/>
      <point x="586" y="683"/>
      <point x="528" y="712"/>
      <point x="464" y="712" type="curve" smooth="yes"/>
      <point x="369" y="712"/>
      <point x="309" y="660"/>
      <point x="276" y="559" type="curve" smooth="yes"/>
    </contour>
    <contour>
      <point x="95" y="288" type="curve" smooth="yes"/>
      <point x="401" y="288" type="line" smooth="yes"/>
      <point x="406" y="288"/>
      <point x="412" y="293"/>
      <point x="415" y="303" type="curve" smooth="yes"/>
      <point x="418" y="313"/>
      <point x="415" y="316"/>
      <point x="410" y="316" type="curve" smooth="yes"/>
      <point x="104" y="316" type="line" smooth="yes"/>
      <point x="99" y="316"/>
      <point x="94" y="312"/>
      <point x="90" y="302" type="curve" smooth="yes"/>
      <point x="87" y="292"/>
      <point x="90" y="288"/>
    </contour>
    <contour>
      <point x="437" y="0" type="line" smooth="yes"/>
      <point x="442" y="0"/>
      <point x="448" y="5"/>
      <point x="451" y="15" type="curve" smooth="yes"/>
      <point x="454" y="25"/>
      <point x="451" y="28"/>
      <point x="446" y="28" type="curve" smooth="yes"/>
      <point x="-9" y="28" type="line" smooth="yes"/>
      <point x="-14" y="28"/>
      <point x="-19" y="25"/>
      <point x="-22" y="15" type="curve" smooth="yes"/>
      <point x="-25" y="5"/>
      <point x="-23" y="0"/>
      <point x="-18" y="0" type="curve" smooth="yes"/>
    </contour>
  </outline>
</glyph>
<glyph name="yen" format="2">
  <advance width="534"/>
  <unicode hex="00A5"/>
  <outline>
    <contour>
      <point x="204" y="-11" type="curve" smooth="yes"/>
      <point x="215" y="-11"/>
      <point x="221" y="-8"/>
      <point x="224" y="1" type="curve" smooth="yes"/>
      <point x="323" y="306" type="line"/>
      <point x="656" y="690" type="line" smooth="yes"/>
      <point x="663" y="698"/>
      <point x="662" y="703"/>
      <point x="656" y="709" type="curve" smooth="yes"/>
      <point x="647" y="717"/>
      <point x="642" y="715"/>
      <point x="629" y="700" type="curve" smooth="yes"/>
      <point x="314" y="335" type="line"/>
      <point x="223" y="700" type="line" smooth="yes"/>
      <point x="221" y="709"/>
      <point x="218" y="712"/>
      <point x="207" y="712" type="curve" smooth="yes"/>
      <point x="199" y="712"/>
      <point x="192" y="708"/>
      <point x="196" y="693" type="curve" smooth="yes"/>
      <point x="293" y="307" type="line"/>
      <point x="193" y="1" type="line" smooth="yes"/>
      <point x="190" y="-8"/>
      <point x="193" y="-11"/>
    </contour>
    <contour>
      <point x="113" y="298" type="curve" smooth="yes"/>
      <point x="495" y="298" type="line" smooth="yes"/>
      <point x="500" y="298"/>
      <point x="506" y="303"/>
      <point x="509" y="313" type="curve" smooth="yes"/>
      <point x="512" y="323"/>
      <point x="509" y="326"/>
      <point x="504" y="326" type="curve" smooth="yes"/>
      <point x="122" y="326" type="line" smooth="yes"/>
      <point x="117" y="326"/>
      <point x="112" y="322"/>
      <point x="109" y="312" type="curve" smooth="yes"/>
      <point x="106" y="302"/>
      <point x="108" y="298"/>
    </contour>
    <contour>
      <point x="80" y="194" type="curve" smooth="yes"/>
      <point x="462" y="194" type="line" smooth="yes"/>
      <point x="467" y="194"/>
      <point x="472" y="199"/>
      <point x="475" y="209" type="curve" smooth="yes"/>
      <point x="479" y="219"/>
      <point x="476" y="222"/>
      <point x="471" y="222" type="curve" smooth="yes"/>
      <point x="89" y="222" type="line" smooth="yes"/>
      <point x="84" y="222"/>
      <point x="78" y="218"/>
      <point x="75" y="208" type="curve" smooth="yes"/>
      <point x="72" y="198"/>
      <point x="75" y="194"/>
    </contour>
  </outline>
</glyph>
<glyph name="section" format="2">
  <advance width="666"/>
  <unicode hex="00A7"/>
  <outline>
    <contour>
      <point x="610" y="248" type="curve" smooth="yes"/>
      <point x="610" y="464"/>
      <point x="303" y="460"/>
      <point x="303" y="676" type="curve" smooth="yes"/>
      <point x="303" y="783"/>
      <point x="381" y="853"/>
      <point x="489" y="853" type="curve" smooth="yes"/>
      <point x="560" y="853"/>
      <point x="619" y="826"/>
      <point x="686" y="769" type="curve" smooth="yes"/>
      <point x="694" y="761"/>
      <point x="700" y="758"/>
      <point x="711" y="768" type="curve" smooth="yes"/>
      <point x="721" y="776"/>
      <point x="721" y="781"/>
      <point x="711" y="793" type="curve" smooth="yes"/>
      <point x="656" y="851"/>
      <point x="575" y="890"/>
      <point x="489" y="890" type="curve" smooth="yes"/>
      <point x="360" y="890"/>
      <point x="263" y="808"/>
      <point x="263" y="674" type="curve" smooth="yes"/>
      <point x="263" y="431"/>
      <point x="570" y="443"/>
      <point x="570" y="244" type="curve" smooth="yes"/>
      <point x="570" y="134"/>
      <point x="479" y="68"/>
      <point x="348" y="26" type="curve"/>
      <point x="379" y="1" type="line"/>
      <point x="514" y="45"/>
      <point x="610" y="124"/>
    </contour>
    <contour>
      <point x="110" y="286" type="curve" smooth="yes"/>
      <point x="110" y="76"/>
      <point x="415" y="79"/>
      <point x="415" y="-156" type="curve" smooth="yes"/>
      <point x="415" y="-290"/>
      <point x="296" y="-356"/>
      <point x="201" y="-356" type="curve" smooth="yes"/>
      <point x="109" y="-356"/>
      <point x="35" y="-321"/>
      <point x="-9" y="-272" type="curve" smooth="yes"/>
      <point x="-17" y="-262"/>
      <point x="-24" y="-257"/>
      <point x="-36" y="-267" type="curve" smooth="yes"/>
      <point x="-47" y="-276"/>
      <point x="-45" y="-284"/>
      <point x="-39" y="-292" type="curve" smooth="yes"/>
      <point x="-9" y="-334"/>
      <point x="78" y="-394"/>
      <point x="198" y="-394" type="curve" smooth="yes"/>
      <point x="324" y="-394"/>
      <point x="455" y="-310"/>
      <point x="455" y="-152" type="curve" smooth="yes"/>
      <point x="455" y="103"/>
      <point x="150" y="104"/>
      <point x="150" y="290" type="curve" smooth="yes"/>
      <point x="150" y="400"/>
      <point x="229" y="464"/>
      <point x="360" y="508" type="curve"/>
      <point x="329" y="531" type="line"/>
      <point x="194" y="485"/>
      <point x="110" y="410"/>
    </contour>
  </outline>
</glyph>
<glyph name="copyright" format="2">
  <advance width="724"/>
  <unicode hex="00A9"/>
  <outline>
    <contour>
      <point x="411" y="58" type="curve" smooth="yes"/>
      <point x="571" y="58"/>
      <point x="698" y="185"/>
      <point x="698" y="345" type="curve" smooth="yes"/>
      <point x="698" y="505"/>
      <point x="571" y="632"/>
      <point x="411" y="632" type="curve" smooth="yes"/>
      <point x="251" y="632"/>
      <point x="124" y="505"/>
      <point x="124" y="345" type="curve" smooth="yes"/>
      <point x="124" y="185"/>
      <point x="251" y="58"/>
    </contour>
    <contour>
      <point x="411" y="82" type="curve" smooth="yes"/>
      <point x="266" y="82"/>
      <point x="148" y="200"/>
      <point x="148" y="345" type="curve" smooth="yes"/>
      <point x="148" y="490"/>
      <point x="266" y="608"/>
      <point x="411" y="608" type="curve" smooth="yes"/>
      <point x="556" y="608"/>
      <point x="674" y="490"/>
      <point x="674" y="345" type="curve" smooth="yes"/>
      <point x="674" y="200"/>
      <point x="556" y="82"/>
    </contour>
    <contour>
      <point x="413" y="183" type="curve" smooth="yes"/>
      <point x="449" y="183"/>
      <point x="484" y="200"/>
      <point x="513" y="240" type="curve" smooth="yes"/>
      <point x="516" y="244"/>
      <point x="515" y="249"/>
      <point x="510" y="253" type="curve" smooth="yes"/>
      <point x="504" y="258"/>
      <point x="498" y="259"/>
      <point x="495" y="255" type="curve" smooth="yes"/>
      <point x="469" y="226"/>
      <point x="443" y="211"/>
      <point x="413" y="211" type="curve" smooth="yes"/>
      <point x="351" y="211"/>
      <point x="307" y="261"/>
      <point x="307" y="347" type="curve" smooth="yes"/>
      <point x="307" y="432"/>
      <point x="352" y="483"/>
      <point x="414" y="483" type="curve" smooth="yes"/>
      <point x="442" y="483"/>
      <point x="469" y="472"/>
      <point x="486" y="455" type="curve" smooth="yes"/>
      <point x="490" y="450"/>
      <point x="495" y="449"/>
      <point x="502" y="455" type="curve" smooth="yes"/>
      <point x="507" y="459"/>
      <point x="509" y="463"/>
      <point x="505" y="469" type="curve" smooth="yes"/>
      <point x="482" y="501"/>
      <point x="448" y="510"/>
      <point x="414" y="510" type="curve" smooth="yes"/>
      <point x="331" y="510"/>
      <point x="277" y="442"/>
      <point x="277" y="347" type="curve" smooth="yes"/>
      <point x="277" y="251"/>
      <point x="330" y="183"/>
    </contour>
  </outline>
</glyph>
<glyph name="ordfeminine" format="2">
  <advance width="383"/>
  <unicode hex="00AA"/>
  <outline>
    <contour>
      <point x="237" y="389" type="curve" smooth="yes"/>
      <point x="276" y="389"/>
      <point x="320" y="410"/>
      <point x="355" y="455" type="curve"/>
      <point x="354" y="451"/>
      <point x="354" y="447"/>
      <point x="354" y="445" type="curve" smooth="yes"/>
      <point x="352" y="409"/>
      <point x="368" y="389"/>
      <point x="403" y="389" type="curve" smooth="yes"/>
      <point x="435" y="389"/>
      <point x="458" y="407"/>
      <point x="478" y="441" type="curve" smooth="yes"/>
      <point x="483" y="449"/>
      <point x="480" y="454"/>
      <point x="474" y="457" type="curve" smooth="yes"/>
      <point x="464" y="462"/>
      <point x="459" y="457"/>
      <point x="456" y="452" type="curve" smooth="yes"/>
      <point x="441" y="427"/>
      <point x="425" y="414"/>
      <point x="406" y="414" type="curve" smooth="yes"/>
      <point x="384" y="414"/>
      <point x="375" y="435"/>
      <point x="387" y="471" type="curve" smooth="yes"/>
      <point x="463" y="702" type="line" smooth="yes"/>
      <point x="466" y="711"/>
      <point x="463" y="717"/>
      <point x="451" y="717" type="curve" smooth="yes"/>
      <point x="440" y="717"/>
      <point x="438" y="714"/>
      <point x="435" y="706" type="curve" smooth="yes"/>
      <point x="430" y="692" type="line"/>
      <point x="407" y="709"/>
      <point x="376" y="720"/>
      <point x="348" y="720" type="curve" smooth="yes"/>
      <point x="212" y="720"/>
      <point x="150" y="588"/>
      <point x="150" y="493" type="curve" smooth="yes"/>
      <point x="150" y="429"/>
      <point x="182" y="389"/>
    </contour>
    <contour>
      <point x="181" y="495" type="curve" smooth="yes"/>
      <point x="181" y="576"/>
      <point x="230" y="694"/>
      <point x="345" y="694" type="curve" smooth="yes"/>
      <point x="368" y="694"/>
      <point x="392" y="689"/>
      <point x="423" y="669" type="curve"/>
      <point x="373" y="517" type="line"/>
      <point x="332" y="443"/>
      <point x="285" y="415"/>
      <point x="244" y="415" type="curve" smooth="yes"/>
      <point x="200" y="415"/>
      <point x="181" y="447"/>
    </contour>
  </outline>
</glyph>
<glyph name="logicalnot" format="2">
  <advance width="610"/>
  <unicode hex="00AC"/>
  <outline>
    <contour>
      <point x="498" y="136" type="curve" smooth="yes"/>
      <point x="508" y="136"/>
      <point x="514" y="139"/>
      <point x="517" y="148" type="curve" smooth="yes"/>
      <point x="579" y="350" type="line" smooth="yes"/>
      <point x="582" y="359"/>
      <point x="581" y="364"/>
      <point x="570" y="364" type="curve" smooth="yes"/>
      <point x="146" y="364" type="line" smooth="yes"/>
      <point x="136" y="364"/>
      <point x="132" y="361"/>
      <point x="129" y="351" type="curve" smooth="yes"/>
      <point x="126" y="341"/>
      <point x="127" y="336"/>
      <point x="138" y="336" type="curve" smooth="yes"/>
      <point x="546" y="336" type="line"/>
      <point x="488" y="148" type="line" smooth="yes"/>
      <point x="485" y="139"/>
      <point x="489" y="136"/>
    </contour>
  </outline>
</glyph>
<glyph name="paragraph" format="2">
  <advance width="921"/>
  <unicode hex="00B6"/>
  <outline>
    <contour>
      <point x="248" y="-389" type="curve" smooth="yes"/>
      <point x="261" y="-389"/>
      <point x="268" y="-385"/>
      <point x="271" y="-374" type="curve" smooth="yes"/>
      <point x="665" y="840" type="line"/>
      <point x="846" y="840" type="line"/>
      <point x="453" y="-374" type="line" smooth="yes"/>
      <point x="449" y="-385"/>
      <point x="453" y="-389"/>
      <point x="466" y="-389" type="curve" smooth="yes"/>
      <point x="480" y="-389"/>
      <point x="486" y="-385"/>
      <point x="490" y="-374" type="curve" smooth="yes"/>
      <point x="884" y="840" type="line"/>
      <point x="1009" y="840" type="line" smooth="yes"/>
      <point x="1015" y="840"/>
      <point x="1023" y="846"/>
      <point x="1026" y="859" type="curve" smooth="yes"/>
      <point x="1030" y="871"/>
      <point x="1026" y="875"/>
      <point x="1020" y="875" type="curve" smooth="yes"/>
      <point x="639" y="875" type="line"/>
      <point x="234" y="-374" type="line" smooth="yes"/>
      <point x="230" y="-385"/>
      <point x="234" y="-389"/>
    </contour>
    <contour>
      <point x="433" y="286" type="curve"/>
      <point x="466" y="286" type="line"/>
      <point x="665" y="875" type="line"/>
      <point x="549" y="875" type="line" smooth="yes"/>
      <point x="325" y="875"/>
      <point x="201" y="704"/>
      <point x="201" y="530" type="curve" smooth="yes"/>
      <point x="201" y="375"/>
      <point x="303" y="286"/>
    </contour>
  </outline>
</glyph>
<glyph name="AE" format="2">
  <advance width="771"/>
  <unicode hex="00C6"/>
  <anchor x="667" y="670" name="top"/>
  <outline>
    <contour>
      <point x="655" y="0" type="line" smooth="yes"/>
      <point x="665" y="0"/>
      <point x="669" y="3"/>
      <point x="672" y="14" type="curve" smooth="yes"/>
      <point x="674" y="23"/>
      <point x="674" y="28"/>
      <point x="663" y="28" type="curve" smooth="yes"/>
      <point x="378" y="28" type="line"/>
      <point x="585" y="672" type="line"/>
      <point x="873" y="672" type="line" smooth="yes"/>
      <point x="883" y="672"/>
      <point x="887" y="675"/>
      <point x="890" y="686" type="curve" smooth="yes"/>
      <point x="892" y="695"/>
      <point x="892" y="700"/>
      <point x="881" y="700" type="curve" smooth="yes"/>
      <point x="558" y="700" type="line"/>
      <point x="548" y="701"/>
      <point x="544" y="699"/>
      <point x="539" y="693" type="curve" smooth="yes"/>
      <point x="-38" y="13" type="line" smooth="yes"/>
      <point x="-47" y="2"/>
      <point x="-46" y="-4"/>
      <point x="-37" y="-9" type="curve" smooth="yes"/>
      <point x="-28" y="-14"/>
      <point x="-21" y="-11"/>
      <point x="-13" y="-1" type="curve" smooth="yes"/>
      <point x="554" y="670" type="line"/>
      <point x="342" y="12" type="line" smooth="yes"/>
      <point x="339" y="3"/>
      <point x="344" y="0"/>
      <point x="354" y="0" type="curve" smooth="yes"/>
    </contour>
    <contour>
      <point x="717" y="336" type="line" smooth="yes"/>
      <point x="722" y="336"/>
      <point x="727" y="340"/>
      <point x="731" y="350" type="curve" smooth="yes"/>
      <point x="734" y="360"/>
      <point x="731" y="364"/>
      <point x="726" y="364" type="curve" smooth="yes"/>
      <point x="276" y="364" type="line"/>
      <point x="252" y="336" type="line"/>
    </contour>
  </outline>
</glyph>
<glyph name="Thorn" format="2">
  <advance width="580"/>
  <unicode hex="00DE"/>
  <outline>
    <contour>
      <point x="68" y="-11" type="curve" smooth="yes"/>
      <point x="80" y="-11"/>
      <point x="83" y="-8"/>
      <point x="86" y="1" type="curve" smooth="yes"/>
      <point x="149" y="194" type="line"/>
      <point x="198" y="196"/>
      <point x="251" y="199"/>
      <point x="300" y="205" type="curve" smooth="yes"/>
      <point x="476" y="227"/>
      <point x="594" y="309"/>
      <point x="594" y="459" type="curve" smooth="yes"/>
      <point x="594" y="563"/>
      <point x="529" y="600"/>
      <point x="402" y="600" type="curve" smooth="yes"/>
      <point x="281" y="600" type="line"/>
      <point x="314" y="700" type="line" smooth="yes"/>
      <point x="317" y="709"/>
      <point x="312" y="712"/>
      <point x="302" y="712" type="curve" smooth="yes"/>
      <point x="290" y="712"/>
      <point x="287" y="709"/>
      <point x="284" y="700" type="curve" smooth="yes"/>
      <point x="56" y="1" type="line" smooth="yes"/>
      <point x="53" y="-8"/>
      <point x="58" y="-11"/>
    </contour>
    <contour>
      <point x="158" y="222" type="curve"/>
      <point x="271" y="572" type="line"/>
      <point x="402" y="572" type="line" smooth="yes"/>
      <point x="508" y="572"/>
      <point x="562" y="543"/>
      <point x="562" y="458" type="curve" smooth="yes"/>
      <point x="562" y="325"/>
      <point x="457" y="254"/>
      <point x="300" y="233" type="curve" smooth="yes"/>
      <point x="254" y="227"/>
      <point x="205" y="223"/>
    </contour>
  </outline>
</glyph>
<glyph name="germandbls" format="2">
  <advance width="560"/>
  <unicode hex="00DF"/>
  <outline>
    <contour>
      <point x="477" y="242" type="curve" smooth="yes"/>
      <point x="477" y="335"/>
      <point x="422" y="387"/>
      <point x="326" y="391" type="curve"/>
      <point x="340" y="379" type="line"/>
      <point x="468" y="389"/>
      <point x="554" y="490"/>
      <point x="554" y="583" type="curve" smooth="yes"/>
      <point x="554" y="666"/>
      <point x="505" y="715"/>
      <point x="417" y="715" type="curve" smooth="yes"/>
      <point x="308" y="715"/>
      <point x="251" y="635"/>
      <point x="217" y="530" type="curve" smooth="yes"/>
      <point x="-54" y="-300" type="line" smooth="yes"/>
      <point x="-57" y="-308"/>
      <point x="-54" y="-312"/>
      <point x="-44" y="-312" type="curve" smooth="yes"/>
      <point x="-33" y="-312"/>
      <point x="-28" y="-308"/>
      <point x="-25" y="-300" type="curve" smooth="yes"/>
      <point x="244" y="524" type="line" smooth="yes"/>
      <point x="274" y="615"/>
      <point x="316" y="688"/>
      <point x="413" y="688" type="curve" smooth="yes"/>
      <point x="487" y="688"/>
      <point x="525" y="653"/>
      <point x="525" y="582" type="curve" smooth="yes"/>
      <point x="525" y="498"/>
      <point x="447" y="400"/>
      <point x="312" y="400" type="curve" smooth="yes"/>
      <point x="301" y="400" type="line" smooth="yes"/>
      <point x="296" y="400"/>
      <point x="292" y="397"/>
      <point x="288" y="387" type="curve" smooth="yes"/>
      <point x="285" y="377"/>
      <point x="288" y="374"/>
      <point x="293" y="374" type="curve" smooth="yes"/>
      <point x="298" y="374" type="line" smooth="yes"/>
      <point x="400" y="374"/>
      <point x="448" y="330"/>
      <point x="448" y="244" type="curve" smooth="yes"/>
      <point x="448" y="122"/>
      <point x="357" y="12"/>
      <point x="241" y="12" type="curve" smooth="yes"/>
      <point x="195" y="12"/>
      <point x="166" y="25"/>
      <point x="140" y="39" type="curve" smooth="yes"/>
      <point x="131" y="44"/>
      <point x="126" y="41"/>
      <point x="121" y="32" type="curve" smooth="yes"/>
      <point x="117" y="24"/>
      <point x="117" y="18"/>
      <point x="126" y="13" type="curve" smooth="yes"/>
      <point x="154" y="-2"/>
      <point x="189" y="-15"/>
      <point x="239" y="-15" type="curve" smooth="yes"/>
      <point x="374" y="-15"/>
      <point x="477" y="107"/>
    </contour>
  </outline>
</glyph>
<glyph name="eth" format="2">
  <advance width="482"/>
  <unicode hex="00F0"/>
  <outline>
    <contour>
      <point x="196" y="-15" type="curve" smooth="yes"/>
      <point x="335" y="-15"/>
      <point x="443" y="137"/>
      <point x="443" y="317" type="curve" smooth="yes"/>
      <point x="443" y="462"/>
      <point x="410" y="561"/>
      <point x="328" y="708" type="curve" smooth="yes"/>
      <point x="325" y="714"/>
      <point x="320" y="715"/>
      <point x="310" y="709" type="curve" smooth="yes"/>
      <point x="301" y="704"/>
      <point x="298" y="699"/>
      <point x="301" y="692" type="curve" smooth="yes"/>
      <point x="380" y="549"/>
      <point x="410" y="452"/>
      <point x="410" y="316" type="curve" smooth="yes"/>
      <point x="410" y="147"/>
      <point x="310" y="13"/>
      <point x="199" y="13" type="curve" smooth="yes"/>
      <point x="133" y="13"/>
      <point x="93" y="60"/>
      <point x="93" y="131" type="curve" smooth="yes"/>
      <point x="93" y="239"/>
      <point x="166" y="387"/>
      <point x="284" y="387" type="curve" smooth="yes"/>
      <point x="335" y="387"/>
      <point x="380" y="363"/>
      <point x="420" y="304" type="curve"/>
      <point x="435" y="327" type="line"/>
      <point x="394" y="385"/>
      <point x="346" y="415"/>
      <point x="289" y="415" type="curve" smooth="yes"/>
      <point x="145" y="415"/>
      <point x="61" y="256"/>
      <point x="61" y="131" type="curve" smooth="yes"/>
      <point x="61" y="44"/>
      <point x="111" y="-15"/>
    </contour>
    <contour>
      <point x="270" y="507" type="curve" smooth="yes"/>
      <point x="495" y="592" type="line" smooth="yes"/>
      <point x="503" y="595"/>
      <point x="504" y="600"/>
      <point x="502" y="609" type="curve" smooth="yes"/>
      <point x="499" y="620"/>
      <point x="493" y="623"/>
      <point x="485" y="620" type="curve" smooth="yes"/>
      <point x="261" y="535" type="line" smooth="yes"/>
      <point x="252" y="532"/>
      <point x="251" y="526"/>
      <point x="253" y="517" type="curve" smooth="yes"/>
      <point x="256" y="507"/>
      <point x="262" y="504"/>
    </contour>
  </outline>
</glyph>
<glyph name="thorn" format="2">
	<unicode hex="00FE"/>
	<advance width="478"/>
	<outline>
		<contour>
			<point x="-56" y="-312" type="curve" smooth="yes"/>
			<point x="-45" y="-312"/>
			<point x="-41" y="-309"/>
			<point x="-38" y="-300" type="curve" smooth="yes"/>
			<point x="67" y="24" type="line"/>
			<point x="100" y="0"/>
			<point x="141" y="-14"/>
			<point x="175" y="-14" type="curve" smooth="yes"/>
			<point x="354" y="-14"/>
			<point x="431" y="164"/>
			<point x="431" y="280" type="curve" smooth="yes"/>
			<point x="431" y="363"/>
			<point x="390" y="415"/>
			<point x="320" y="415" type="curve" smooth="yes"/>
			<point x="283" y="415"/>
			<point x="223" y="400"/>
			<point x="168" y="333" type="curve"/>
			<point x="287" y="700" type="line" smooth="yes"/>
			<point x="290" y="708"/>
			<point x="283" y="712"/>
			<point x="273" y="712" type="curve" smooth="yes"/>
			<point x="261" y="712"/>
			<point x="258" y="709"/>
			<point x="255" y="700" type="curve" smooth="yes"/>
			<point x="-68" y="-295" type="line" smooth="yes"/>
			<point x="-71" y="-304"/>
			<point x="-69" y="-312"/>
		</contour>
		<contour>
			<point x="76" y="49" type="curve"/>
			<point x="143" y="255" type="line"/>
			<point x="198" y="354"/>
			<point x="260" y="387"/>
			<point x="314" y="387" type="curve" smooth="yes"/>
			<point x="371" y="387"/>
			<point x="397" y="344"/>
			<point x="397" y="279" type="curve" smooth="yes"/>
			<point x="397" y="170"/>
			<point x="330" y="13"/>
			<point x="180" y="13" type="curve" smooth="yes"/>
			<point x="151" y="13"/>
			<point x="118" y="21"/>
		</contour>
	</outline>
</glyph>
<glyph name="idotless" format="2">
	<unicode hex="0131"/>
	<advance width="240"/>
	<outline>
		<contour>
			<point x="106" y="-14" type="curve" smooth="yes"/>
			<point x="152" y="-14"/>
			<point x="183" y="19"/>
			<point x="203" y="53" type="curve" smooth="yes"/>
			<point x="208" y="60"/>
			<point x="207" y="68"/>
			<point x="198" y="72" type="curve" smooth="yes"/>
			<point x="188" y="77"/>
			<point x="182" y="71"/>
			<point x="179" y="65" type="curve" smooth="yes"/>
			<point x="164" y="39"/>
			<point x="136" y="13"/>
			<point x="109" y="13" type="curve" smooth="yes"/>
			<point x="81" y="13"/>
			<point x="69" y="37"/>
			<point x="87" y="93" type="curve" smooth="yes"/>
			<point x="187" y="399" type="line"/>
			<point x="190" y="407"/>
			<point x="184" y="412"/>
			<point x="174" y="412" type="curve" smooth="yes"/>
			<point x="162" y="412"/>
			<point x="158" y="409"/>
			<point x="155" y="400" type="curve"/>
			<point x="57" y="99" type="line" smooth="yes"/>
			<point x="31" y="18"/>
			<point x="58" y="-14"/>
		</contour>
	</outline>
	<anchor name="bottom" x="100" y="0"/>
	<anchor name="ogonek" x="143" y="0"/>
	<anchor name="top" x="171" y="400"/>
</glyph>
<glyph name="Eng" format="2">
  <advance width="886"/>
  <unicode hex="014A"/>
  <outline>
    <contour>
      <point x="614" y="-124" type="curve" smooth="yes"/>
      <point x="938" y="875" type="line"/>
      <point x="941" y="886"/>
      <point x="935" y="890"/>
      <point x="923" y="890" type="curve" smooth="yes"/>
      <point x="908" y="890"/>
      <point x="904" y="886"/>
      <point x="900" y="875" type="curve" smooth="yes"/>
      <point x="636" y="56" type="line"/>
      <point x="393" y="880" type="line" smooth="yes"/>
      <point x="390" y="888"/>
      <point x="385" y="890"/>
      <point x="373" y="890" type="curve" smooth="yes"/>
      <point x="360" y="890"/>
      <point x="356" y="886"/>
      <point x="353" y="875" type="curve" smooth="yes"/>
      <point x="70" y="1" type="line" smooth="yes"/>
      <point x="66" y="-10"/>
      <point x="73" y="-14"/>
      <point x="85" y="-14" type="curve" smooth="yes"/>
      <point x="101" y="-14"/>
      <point x="105" y="-10"/>
      <point x="109" y="1" type="curve" smooth="yes"/>
      <point x="373" y="820" type="line"/>
      <point x="615" y="0" type="line"/>
      <point x="576" y="-120" type="line" smooth="yes"/>
      <point x="550" y="-200"/>
      <point x="530" y="-220"/>
      <point x="484" y="-220" type="curve" smooth="yes"/>
      <point x="453" y="-220"/>
      <point x="430" y="-202"/>
      <point x="415" y="-166" type="curve" smooth="yes"/>
      <point x="410" y="-156"/>
      <point x="403" y="-154"/>
      <point x="391" y="-160" type="curve" smooth="yes"/>
      <point x="380" y="-166"/>
      <point x="378" y="-174"/>
      <point x="381" y="-184" type="curve" smooth="yes"/>
      <point x="399" y="-229"/>
      <point x="436" y="-255"/>
      <point x="480" y="-255" type="curve" smooth="yes"/>
      <point x="548" y="-255"/>
      <point x="583" y="-221"/>
    </contour>
  </outline>
</glyph>
<glyph name="OE" format="2">
  <advance width="1022"/>
  <unicode hex="0152"/>
  <anchor x="689" y="670" name="top"/>
  <outline>
    <contour>
      <point x="309" y="-15" type="curve" smooth="yes"/>
      <point x="558" y="-15"/>
      <point x="706" y="273"/>
      <point x="706" y="479" type="curve" smooth="yes"/>
      <point x="706" y="624"/>
      <point x="624" y="712"/>
      <point x="491" y="712" type="curve" smooth="yes"/>
      <point x="252" y="712"/>
      <point x="103" y="433"/>
      <point x="103" y="225" type="curve" smooth="yes"/>
      <point x="103" y="67"/>
      <point x="181" y="-15"/>
    </contour>
    <contour>
      <point x="311" y="15" type="curve" smooth="yes"/>
      <point x="201" y="15"/>
      <point x="136" y="86"/>
      <point x="136" y="225" type="curve" smooth="yes"/>
      <point x="136" y="420"/>
      <point x="275" y="682"/>
      <point x="489" y="682" type="curve" smooth="yes"/>
      <point x="605" y="682"/>
      <point x="679" y="611"/>
      <point x="679" y="479" type="curve" smooth="yes"/>
      <point x="679" y="287"/>
      <point x="541" y="15"/>
    </contour>
    <contour>
      <point x="565" y="0" type="curve" smooth="yes"/>
      <point x="906" y="0" type="line" smooth="yes"/>
      <point x="916" y="0"/>
      <point x="920" y="3"/>
      <point x="923" y="14" type="curve" smooth="yes"/>
      <point x="925" y="23"/>
      <point x="925" y="28"/>
      <point x="914" y="28" type="curve" smooth="yes"/>
      <point x="589" y="28" type="line"/>
      <point x="694" y="356" type="line"/>
      <point x="971" y="356" type="line" smooth="yes"/>
      <point x="981" y="356"/>
      <point x="985" y="359"/>
      <point x="988" y="370" type="curve" smooth="yes"/>
      <point x="990" y="379"/>
      <point x="990" y="384"/>
      <point x="979" y="384" type="curve" smooth="yes"/>
      <point x="703" y="384" type="line"/>
      <point x="796" y="672" type="line"/>
      <point x="1124" y="672" type="line" smooth="yes"/>
      <point x="1134" y="672"/>
      <point x="1138" y="675"/>
      <point x="1141" y="686" type="curve" smooth="yes"/>
      <point x="1143" y="695"/>
      <point x="1143" y="700"/>
      <point x="1132" y="700" type="curve" smooth="yes"/>
      <point x="790" y="700" type="line" smooth="yes"/>
      <point x="777" y="700"/>
      <point x="774" y="697"/>
      <point x="771" y="688" type="curve" smooth="yes"/>
      <point x="553" y="12" type="line" smooth="yes"/>
      <point x="550" y="3"/>
      <point x="555" y="0"/>
    </contour>
  </outline>
</glyph>
<glyph name="jdotless" format="2">
	<unicode hex="0237"/>
	<advance width="214"/>
	<outline>
		<contour>
			<point x="-118" y="-314" type="curve" smooth="yes"/>
			<point x="-64" y="-314"/>
			<point x="-37" y="-287"/>
			<point x="-11" y="-209" type="curve" smooth="yes"/>
			<point x="188" y="399" type="line" smooth="yes"/>
			<point x="191" y="408"/>
			<point x="184" y="412"/>
			<point x="174" y="412" type="curve" smooth="yes"/>
			<point x="164" y="412"/>
			<point x="159" y="409"/>
			<point x="156" y="400" type="curve" smooth="yes"/>
			<point x="-41" y="-206" type="line" smooth="yes"/>
			<point x="-62" y="-269"/>
			<point x="-78" y="-286"/>
			<point x="-115" y="-286" type="curve" smooth="yes"/>
			<point x="-140" y="-286"/>
			<point x="-158" y="-272"/>
			<point x="-170" y="-243" type="curve" smooth="yes"/>
			<point x="-174" y="-235"/>
			<point x="-180" y="-233"/>
			<point x="-189" y="-238" type="curve" smooth="yes"/>
			<point x="-198" y="-243"/>
			<point x="-200" y="-249"/>
			<point x="-197" y="-257" type="curve" smooth="yes"/>
			<point x="-183" y="-293"/>
			<point x="-153" y="-314"/>
		</contour>
	</outline>
	<anchor name="top" x="169" y="400"/>
	<guideline x="185" y="489" angle="72"/>
</glyph>
<glyph name="acutecomb" format="2">
  <unicode hex="0301"/>
  <anchor x="65" y="400" name="_top"/>
  <anchor x="136" y="620" name="top"/>
  <outline>
    <contour>
      <point x="68" y="503" type="curve" smooth="yes"/>
      <point x="71" y="503"/>
      <point x="74" y="505"/>
      <point x="78" y="509" type="curve" smooth="yes"/>
      <point x="208" y="641" type="line" smooth="yes"/>
      <point x="212" y="645"/>
      <point x="213" y="648"/>
      <point x="213" y="651" type="curve" smooth="yes"/>
      <point x="213" y="659"/>
      <point x="202" y="670"/>
      <point x="194" y="670" type="curve" smooth="yes"/>
      <point x="190" y="670"/>
      <point x="186" y="668"/>
      <point x="182" y="663" type="curve" smooth="yes"/>
      <point x="59" y="527" type="line" smooth="yes"/>
      <point x="55" y="523"/>
      <point x="54" y="520"/>
      <point x="54" y="517" type="curve" smooth="yes"/>
      <point x="54" y="511"/>
      <point x="63" y="503"/>
    </contour>
  </outline>
</glyph>
<glyph name="tildecomb" format="2">
  <unicode hex="0303"/>
  <anchor x="65" y="400" name="_top"/>
  <anchor x="147" y="654" name="top"/>
  <outline>
    <contour>
      <point x="-10" y="523" type="curve" smooth="yes"/>
      <point x="0" y="523"/>
      <point x="5" y="527"/>
      <point x="7" y="537" type="curve" smooth="yes"/>
      <point x="15" y="577"/>
      <point x="35" y="597"/>
      <point x="58" y="597" type="curve" smooth="yes"/>
      <point x="108" y="597"/>
      <point x="127" y="526"/>
      <point x="189" y="526" type="curve" smooth="yes"/>
      <point x="234" y="526"/>
      <point x="262" y="556"/>
      <point x="273" y="612" type="curve" smooth="yes"/>
      <point x="275" y="623"/>
      <point x="272" y="627"/>
      <point x="261" y="627" type="curve" smooth="yes"/>
      <point x="251" y="627"/>
      <point x="246" y="624"/>
      <point x="244" y="613" type="curve" smooth="yes"/>
      <point x="238" y="574"/>
      <point x="217" y="554"/>
      <point x="193" y="554" type="curve" smooth="yes"/>
      <point x="143" y="554"/>
      <point x="126" y="625"/>
      <point x="61" y="625" type="curve" smooth="yes"/>
      <point x="18" y="625"/>
      <point x="-11" y="593"/>
      <point x="-21" y="538" type="curve" smooth="yes"/>
      <point x="-23" y="529"/>
      <point x="-19" y="523"/>
    </contour>
  </outline>
</glyph>
<glyph name="macroncomb" format="2">
	<unicode hex="0304"/>
	<outline>
		<contour>
			<point x="14" y="573" type="curve" smooth="yes"/>
			<point x="228" y="573" type="line" smooth="yes"/>
			<point x="237" y="573"/>
			<point x="242" y="577"/>
			<point x="245" y="586" type="curve" smooth="yes"/>
			<point x="248" y="596"/>
			<point x="247" y="601"/>
			<point x="238" y="601" type="curve" smooth="yes"/>
			<point x="24" y="601" type="line" smooth="yes"/>
			<point x="15" y="601"/>
			<point x="10" y="596"/>
			<point x="7" y="586" type="curve" smooth="yes"/>
			<point x="4" y="577"/>
			<point x="5" y="573"/>
		</contour>
	</outline>
	<anchor name="_top" x="65" y="400"/>
	<anchor name="top" x="136" y="619"/>
</glyph>
<glyph name="dotaccentcomb" format="2">
	<unicode hex="0307"/>
	<outline>
		<contour>
			<point x="120" y="552" type="curve" smooth="yes"/>
			<point x="145" y="552"/>
			<point x="160" y="574"/>
			<point x="160" y="597" type="curve" smooth="yes"/>
			<point x="160" y="613"/>
			<point x="148" y="620"/>
			<point x="131" y="620" type="curve" smooth="yes"/>
			<point x="106" y="620"/>
			<point x="91" y="598"/>
			<point x="91" y="575" type="curve" smooth="yes"/>
			<point x="91" y="559"/>
			<point x="102" y="552"/>
		</contour>
	</outline>
	<anchor name="_top" x="65" y="400"/>
	<anchor name="top" x="137" y="620"/>
</glyph>
<glyph name="dieresiscomb" format="2">
	<unicode hex="0308"/>
	<outline>
		<contour>
			<point x="24" y="552" type="curve" smooth="yes"/>
			<point x="49" y="552"/>
			<point x="64" y="574"/>
			<point x="64" y="597" type="curve" smooth="yes"/>
			<point x="64" y="613"/>
			<point x="52" y="620"/>
			<point x="35" y="620" type="curve" smooth="yes"/>
			<point x="10" y="620"/>
			<point x="-5" y="598"/>
			<point x="-5" y="575" type="curve" smooth="yes"/>
			<point x="-5" y="559"/>
			<point x="6" y="552"/>
		</contour>
		<contour>
			<point x="216" y="552" type="curve" smooth="yes"/>
			<point x="241" y="552"/>
			<point x="256" y="574"/>
			<point x="256" y="597" type="curve" smooth="yes"/>
			<point x="256" y="613"/>
			<point x="244" y="620"/>
			<point x="227" y="620" type="curve" smooth="yes"/>
			<point x="202" y="620"/>
			<point x="187" y="598"/>
			<point x="187" y="575" type="curve" smooth="yes"/>
			<point x="187" y="559"/>
			<point x="198" y="552"/>
		</contour>
	</outline>
	<anchor name="_top" x="65" y="400"/>
	<anchor name="top" x="127" y="589"/>
</glyph>
<glyph name="hungarumlautcomb" format="2">
  <unicode hex="030B"/>
  <guideline x="105" y="503" angle="0"/>
  <guideline x="237" y="670" angle="0"/>
  <anchor x="65" y="400" name="_top"/>
  <anchor x="175" y="654" name="top"/>
  <outline>
    <contour>
      <point x="21" y="503" type="curve" smooth="yes"/>
      <point x="25" y="503"/>
      <point x="28" y="504"/>
      <point x="32" y="510" type="curve" smooth="yes"/>
      <point x="129" y="644" type="line" smooth="yes"/>
      <point x="132" y="648"/>
      <point x="134" y="651"/>
      <point x="134" y="654" type="curve" smooth="yes"/>
      <point x="134" y="663"/>
      <point x="121" y="670"/>
      <point x="114" y="670" type="curve" smooth="yes"/>
      <point x="109" y="670"/>
      <point x="105" y="666"/>
      <point x="102" y="661" type="curve" smooth="yes"/>
      <point x="12" y="527" type="line" smooth="yes"/>
      <point x="8" y="521"/>
      <point x="7" y="518"/>
      <point x="7" y="516" type="curve" smooth="yes"/>
      <point x="7" y="509"/>
      <point x="16" y="503"/>
    </contour>
    <contour>
      <point x="141" y="503" type="curve" smooth="yes"/>
      <point x="145" y="503"/>
      <point x="148" y="504"/>
      <point x="152" y="510" type="curve" smooth="yes"/>
      <point x="249" y="644" type="line" smooth="yes"/>
      <point x="252" y="648"/>
      <point x="254" y="651"/>
      <point x="254" y="654" type="curve" smooth="yes"/>
      <point x="254" y="663"/>
      <point x="241" y="670"/>
      <point x="234" y="670" type="curve" smooth="yes"/>
      <point x="229" y="670"/>
      <point x="225" y="666"/>
      <point x="222" y="661" type="curve" smooth="yes"/>
      <point x="132" y="527" type="line" smooth="yes"/>
      <point x="128" y="521"/>
      <point x="127" y="518"/>
      <point x="127" y="516" type="curve" smooth="yes"/>
      <point x="127" y="509"/>
      <point x="136" y="503"/>
    </contour>
  </outline>
</glyph>
<glyph name="horncomb" format="2">
  <unicode hex="031B"/>
  <anchor x="69" y="412" name="_topright"/>
  <outline>
    <contour>
      <point x="192" y="552" type="curve" smooth="yes"/>
      <point x="185" y="569"/>
      <point x="156" y="556"/>
      <point x="161" y="541" type="curve" smooth="yes"/>
      <point x="183" y="472"/>
      <point x="171" y="416"/>
      <point x="69" y="412" type="curve"/>
      <point x="62" y="391" type="line"/>
      <point x="186" y="383"/>
      <point x="226" y="466"/>
    </contour>
  </outline>
</glyph>
<glyph name="dotbelowcomb" format="2">
  <unicode hex="0323"/>
  <anchor x="-81" y="0" name="_bottom"/>
  <anchor x="-144" y="-194" name="bottom"/>
  <outline>
    <contour>
      <point x="-144" y="-212" type="curve" smooth="yes"/>
      <point x="-112" y="-212"/>
      <point x="-94" y="-185"/>
      <point x="-94" y="-156" type="curve" smooth="yes"/>
      <point x="-94" y="-136"/>
      <point x="-109" y="-127"/>
      <point x="-130" y="-127" type="curve" smooth="yes"/>
      <point x="-161" y="-127"/>
      <point x="-180" y="-155"/>
      <point x="-180" y="-184" type="curve" smooth="yes"/>
      <point x="-180" y="-204"/>
      <point x="-166" y="-212"/>
    </contour>
  </outline>
</glyph>
<glyph name="strokelongcomb" format="2">
	<unicode hex="0336"/>
	<outline>
		<contour>
			<point x="-291" y="260" type="curve" smooth="yes"/>
			<point x="333" y="260" type="line" smooth="yes"/>
			<point x="343" y="260"/>
			<point x="347" y="263"/>
			<point x="350" y="274" type="curve" smooth="yes"/>
			<point x="352" y="283"/>
			<point x="352" y="288"/>
			<point x="341" y="288" type="curve" smooth="yes"/>
			<point x="-283" y="288" type="line" smooth="yes"/>
			<point x="-293" y="288"/>
			<point x="-297" y="285"/>
			<point x="-300" y="275" type="curve" smooth="yes"/>
			<point x="-303" y="265"/>
			<point x="-302" y="260"/>
		</contour>
	</outline>
	<anchor name="_center" x="25" y="274"/>
</glyph>
<glyph name="slashshortcomb" format="2">
  <unicode hex="0337"/>
  <anchor x="31" y="343" name="_center"/>
  <outline>
    <contour>
      <point x="-91" y="273" type="curve" smooth="yes"/>
      <point x="165" y="378" type="line" smooth="yes"/>
      <point x="178" y="383"/>
      <point x="183" y="389"/>
      <point x="179" y="401" type="curve" smooth="yes"/>
      <point x="175" y="413"/>
      <point x="170" y="418"/>
      <point x="158" y="413" type="curve" smooth="yes"/>
      <point x="-96" y="309" type="line" smooth="yes"/>
      <point x="-109" y="304"/>
      <point x="-114" y="299"/>
      <point x="-111" y="285" type="curve" smooth="yes"/>
      <point x="-109" y="273"/>
      <point x="-105" y="268"/>
    </contour>
  </outline>
</glyph>
<glyph name="Germandbls" format="2">
  <advance width="710"/>
  <unicode hex="1E9E"/>
  <outline>
    <contour>
      <point x="361" y="-15" type="curve" smooth="yes"/>
      <point x="499" y="-15"/>
      <point x="618" y="71"/>
      <point x="618" y="216" type="curve" smooth="yes"/>
      <point x="618" y="391"/>
      <point x="459" y="421"/>
      <point x="459" y="541" type="curve" smooth="yes"/>
      <point x="459" y="623"/>
      <point x="540" y="683"/>
      <point x="643" y="683" type="curve" smooth="yes"/>
      <point x="654" y="683"/>
      <point x="659" y="687"/>
      <point x="662" y="697" type="curve" smooth="yes"/>
      <point x="666" y="707"/>
      <point x="663" y="711"/>
      <point x="652" y="711" type="curve" smooth="yes"/>
      <point x="625" y="711" type="line"/>
      <point x="316" y="711"/>
      <point x="248" y="603"/>
      <point x="195" y="440" type="curve" smooth="yes"/>
      <point x="52" y="2" type="line" smooth="yes"/>
      <point x="49" y="-7"/>
      <point x="53" y="-10"/>
      <point x="64" y="-10" type="curve" smooth="yes"/>
      <point x="75" y="-10"/>
      <point x="80" y="-7"/>
      <point x="83" y="2" type="curve" smooth="yes"/>
      <point x="226" y="442" type="line" smooth="yes"/>
      <point x="272" y="585"/>
      <point x="337" y="686"/>
      <point x="624" y="686" type="curve"/>
      <point x="629" y="700" type="line"/>
      <point x="522" y="700"/>
      <point x="427" y="636"/>
      <point x="427" y="537" type="curve" smooth="yes"/>
      <point x="427" y="406"/>
      <point x="586" y="380"/>
      <point x="586" y="214" type="curve" smooth="yes"/>
      <point x="586" y="88"/>
      <point x="476" y="15"/>
      <point x="365" y="15" type="curve" smooth="yes"/>
      <point x="310" y="15"/>
      <point x="274" y="25"/>
      <point x="233" y="39" type="curve" smooth="yes"/>
      <point x="220" y="44"/>
      <point x="215" y="40"/>
      <point x="212" y="30" type="curve" smooth="yes"/>
      <point x="207" y="20"/>
      <point x="210" y="14"/>
      <point x="222" y="10" type="curve" smooth="yes"/>
      <point x="265" y="-5"/>
      <point x="305" y="-15"/>
    </contour>
  </outline>
</glyph>
<glyph name="quoteleft" format="2">
	<unicode hex="2018"/>
	<advance width="145"/>
	<outline>
		<contour>
			<point x="185" y="528" type="curve" smooth="yes"/>
			<point x="201" y="528"/>
			<point x="209" y="535"/>
			<point x="212" y="548" type="curve" smooth="yes"/>
			<point x="226" y="616"/>
			<point x="242" y="645"/>
			<point x="276" y="687" type="curve" smooth="yes"/>
			<point x="280" y="692"/>
			<point x="282" y="695"/>
			<point x="282" y="698" type="curve" smooth="yes"/>
			<point x="282" y="705"/>
			<point x="271" y="715"/>
			<point x="264" y="715" type="curve" smooth="yes"/>
			<point x="258" y="715"/>
			<point x="251" y="709"/>
			<point x="244" y="703" type="curve" smooth="yes"/>
			<point x="184" y="644"/>
			<point x="163" y="573"/>
			<point x="163" y="545" type="curve" smooth="yes"/>
			<point x="163" y="534"/>
			<point x="169" y="528"/>
		</contour>
	</outline>
</glyph>
<glyph name="minute" format="2">
  <advance width="161"/>
  <unicode hex="2032"/>
  <outline>
    <contour>
      <point x="175" y="660" type="curve" smooth="yes"/>
      <point x="189" y="660"/>
      <point x="193" y="667"/>
      <point x="196" y="671" type="curve" smooth="yes"/>
      <point x="308" y="860" type="line" smooth="yes"/>
      <point x="321" y="882"/>
      <point x="308" y="894"/>
      <point x="283" y="894" type="curve" smooth="yes"/>
      <point x="266" y="894"/>
      <point x="258" y="887"/>
      <point x="250" y="869" type="curve" smooth="yes"/>
      <point x="160" y="680" type="line" smooth="yes"/>
      <point x="155" y="669"/>
      <point x="160" y="660"/>
    </contour>
  </outline>
</glyph>
<glyph name="guilsinglleft" format="2">
  <advance width="475"/>
  <unicode hex="2039"/>
  <outline>
    <contour>
      <point x="249" y="-14" type="curve" smooth="yes"/>
      <point x="263" y="-14"/>
      <point x="275" y="-4"/>
      <point x="266" y="14" type="curve" smooth="yes"/>
      <point x="156" y="245" type="line"/>
      <point x="421" y="485" type="line" smooth="yes"/>
      <point x="430" y="494"/>
      <point x="429" y="501"/>
      <point x="421" y="509" type="curve" smooth="yes"/>
      <point x="411" y="519"/>
      <point x="400" y="514"/>
      <point x="390" y="504" type="curve" smooth="yes"/>
      <point x="141" y="278" type="line" smooth="yes"/>
      <point x="125" y="263"/>
      <point x="118" y="256"/>
      <point x="118" y="246" type="curve" smooth="yes"/>
      <point x="118" y="240"/>
      <point x="121" y="233"/>
      <point x="128" y="219" type="curve" smooth="yes"/>
      <point x="234" y="-2" type="line" smooth="yes"/>
      <point x="236" y="-7"/>
      <point x="240" y="-14"/>
    </contour>
  </outline>
</glyph>
<glyph name="euro" format="2">
  <advance width="753"/>
  <unicode hex="20AC"/>
  <outline>
    <contour>
      <point x="393" y="-19" type="curve" smooth="yes"/>
      <point x="481" y="-19"/>
      <point x="556" y="6"/>
      <point x="631" y="53" type="curve" smooth="yes"/>
      <point x="645" y="61"/>
      <point x="649" y="68"/>
      <point x="640" y="81" type="curve" smooth="yes"/>
      <point x="633" y="94"/>
      <point x="625" y="93"/>
      <point x="611" y="84" type="curve" smooth="yes"/>
      <point x="541" y="43"/>
      <point x="470" y="19"/>
      <point x="395" y="19" type="curve" smooth="yes"/>
      <point x="271" y="19"/>
      <point x="224" y="113"/>
      <point x="224" y="268" type="curve" smooth="yes"/>
      <point x="224" y="500"/>
      <point x="395" y="853"/>
      <point x="649" y="853" type="curve" smooth="yes"/>
      <point x="713" y="853"/>
      <point x="765" y="829"/>
      <point x="809" y="785" type="curve" smooth="yes"/>
      <point x="820" y="774"/>
      <point x="828" y="771"/>
      <point x="841" y="784" type="curve" smooth="yes"/>
      <point x="851" y="793"/>
      <point x="854" y="799"/>
      <point x="844" y="810" type="curve" smooth="yes"/>
      <point x="796" y="860"/>
      <point x="734" y="890"/>
      <point x="655" y="890" type="curve" smooth="yes"/>
      <point x="366" y="890"/>
      <point x="181" y="521"/>
      <point x="181" y="266" type="curve" smooth="yes"/>
      <point x="181" y="93"/>
      <point x="249" y="-19"/>
    </contour>
    <contour>
      <point x="141" y="490" type="curve" smooth="yes"/>
      <point x="635" y="490" type="line" smooth="yes"/>
      <point x="641" y="490"/>
      <point x="649" y="496"/>
      <point x="653" y="509" type="curve" smooth="yes"/>
      <point x="658" y="521"/>
      <point x="653" y="525"/>
      <point x="646" y="525" type="curve" smooth="yes"/>
      <point x="153" y="525" type="line" smooth="yes"/>
      <point x="146" y="525"/>
      <point x="140" y="520"/>
      <point x="136" y="508" type="curve" smooth="yes"/>
      <point x="133" y="495"/>
      <point x="135" y="490"/>
    </contour>
    <contour>
      <point x="100" y="360" type="curve" smooth="yes"/>
      <point x="594" y="360" type="line" smooth="yes"/>
      <point x="600" y="360"/>
      <point x="606" y="366"/>
      <point x="610" y="379" type="curve" smooth="yes"/>
      <point x="615" y="391"/>
      <point x="611" y="395"/>
      <point x="605" y="395" type="curve" smooth="yes"/>
      <point x="111" y="395" type="line" smooth="yes"/>
      <point x="105" y="395"/>
      <point x="98" y="390"/>
      <point x="94" y="378" type="curve" smooth="yes"/>
      <point x="90" y="365"/>
      <point x="94" y="360"/>
    </contour>
  </outline>
</glyph>
<glyph name="trademark" format="2">
  <advance width="768"/>
  <unicode hex="2122"/>
  <outline>
    <contour>
      <point x="274" y="355" type="curve" smooth="yes"/>
      <point x="283" y="355"/>
      <point x="289" y="358"/>
      <point x="289" y="365" type="curve" smooth="yes"/>
      <point x="289" y="685" type="line"/>
      <point x="396" y="685" type="line" smooth="yes"/>
      <point x="402" y="685"/>
      <point x="405" y="689"/>
      <point x="405" y="698" type="curve" smooth="yes"/>
      <point x="405" y="707"/>
      <point x="402" y="711"/>
      <point x="396" y="711" type="curve" smooth="yes"/>
      <point x="153" y="711" type="line" smooth="yes"/>
      <point x="147" y="711"/>
      <point x="144" y="708"/>
      <point x="144" y="698" type="curve" smooth="yes"/>
      <point x="144" y="688"/>
      <point x="147" y="685"/>
      <point x="153" y="685" type="curve" smooth="yes"/>
      <point x="260" y="685" type="line"/>
      <point x="260" y="365" type="line" smooth="yes"/>
      <point x="260" y="358"/>
      <point x="265" y="355"/>
    </contour>
    <contour>
      <point x="479" y="355" type="curve" smooth="yes"/>
      <point x="488" y="355"/>
      <point x="493" y="357"/>
      <point x="493" y="364" type="curve" smooth="yes"/>
      <point x="493" y="649" type="line"/>
      <point x="606" y="458" type="line" smooth="yes"/>
      <point x="609" y="452"/>
      <point x="614" y="451"/>
      <point x="622" y="451" type="curve" smooth="yes"/>
      <point x="629" y="451"/>
      <point x="633" y="452"/>
      <point x="637" y="459" type="curve" smooth="yes"/>
      <point x="750" y="649" type="line"/>
      <point x="750" y="364" type="line" smooth="yes"/>
      <point x="750" y="357"/>
      <point x="756" y="355"/>
      <point x="764" y="355" type="curve" smooth="yes"/>
      <point x="773" y="355"/>
      <point x="778" y="357"/>
      <point x="778" y="364" type="curve" smooth="yes"/>
      <point x="778" y="702" type="line" smooth="yes"/>
      <point x="778" y="708"/>
      <point x="774" y="711"/>
      <point x="764" y="711" type="curve" smooth="yes"/>
      <point x="756" y="711"/>
      <point x="752" y="708"/>
      <point x="749" y="702" type="curve" smooth="yes"/>
      <point x="622" y="484" type="line"/>
      <point x="494" y="702" type="line" smooth="yes"/>
      <point x="491" y="708"/>
      <point x="487" y="711"/>
      <point x="479" y="711" type="curve" smooth="yes"/>
      <point x="470" y="711"/>
      <point x="465" y="708"/>
      <point x="465" y="702" type="curve" smooth="yes"/>
      <point x="465" y="364" type="line" smooth="yes"/>
      <point x="465" y="357"/>
      <point x="471" y="355"/>
    </contour>
  </outline>
</glyph>
<glyph name="minus" format="2">
  <advance width="763"/>
  <unicode hex="2212"/>
  <outline>
    <contour>
      <point x="173" y="420" type="curve" smooth="yes"/>
      <point x="703" y="420" type="line" smooth="yes"/>
      <point x="715" y="420"/>
      <point x="720" y="424"/>
      <point x="724" y="438" type="curve" smooth="yes"/>
      <point x="726" y="449"/>
      <point x="726" y="455"/>
      <point x="713" y="455" type="curve" smooth="yes"/>
      <point x="183" y="455" type="line" smooth="yes"/>
      <point x="170" y="455"/>
      <point x="165" y="451"/>
      <point x="161" y="439" type="curve" smooth="yes"/>
      <point x="158" y="426"/>
      <point x="159" y="420"/>
    </contour>
  </outline>
</glyph>
<glyph name="A.cur" format="2">
  <advance width="783"/>
  <anchor x="287" y="0" name="bottom"/>
  <anchor x="680" y="10" name="ogonek"/>
  <anchor x="494" y="670" name="top"/>
  <outline>
    <contour>
      <point x="288" y="-14" type="curve" smooth="yes"/>
      <point x="444" y="-14"/>
      <point x="564" y="111"/>
      <point x="659" y="374" type="curve"/>
      <point x="640" y="382" type="line"/>
      <point x="549" y="143"/>
      <point x="434" y="16"/>
      <point x="293" y="16" type="curve" smooth="yes"/>
      <point x="219" y="16"/>
      <point x="132" y="63"/>
      <point x="132" y="215" type="curve" smooth="yes"/>
      <point x="132" y="461"/>
      <point x="304" y="682"/>
      <point x="506" y="682" type="curve" smooth="yes"/>
      <point x="597" y="682"/>
      <point x="672" y="635"/>
      <point x="690" y="533" type="curve" smooth="yes"/>
      <point x="691" y="526"/>
      <point x="699" y="522"/>
      <point x="709" y="526" type="curve" smooth="yes"/>
      <point x="721" y="531"/>
      <point x="721" y="540"/>
      <point x="719" y="550" type="curve" smooth="yes"/>
      <point x="695" y="660"/>
      <point x="609" y="712"/>
      <point x="510" y="712" type="curve" smooth="yes"/>
      <point x="276" y="712"/>
      <point x="99" y="471"/>
      <point x="99" y="213" type="curve" smooth="yes"/>
      <point x="99" y="45"/>
      <point x="200" y="-14"/>
    </contour>
    <contour>
      <point x="614" y="-14" type="curve" smooth="yes"/>
      <point x="676" y="-14"/>
      <point x="708" y="35"/>
      <point x="730" y="77" type="curve" smooth="yes"/>
      <point x="734" y="85"/>
      <point x="734" y="92"/>
      <point x="725" y="96" type="curve" smooth="yes"/>
      <point x="715" y="101"/>
      <point x="708" y="95"/>
      <point x="705" y="89" type="curve" smooth="yes"/>
      <point x="691" y="60"/>
      <point x="662" y="15"/>
      <point x="620" y="15" type="curve" smooth="yes"/>
      <point x="557" y="15"/>
      <point x="572" y="80"/>
      <point x="587" y="126" type="curve" smooth="yes"/>
      <point x="671" y="382" type="line" smooth="yes"/>
      <point x="674" y="391"/>
      <point x="669" y="394"/>
      <point x="659" y="394" type="curve" smooth="yes"/>
      <point x="646" y="394"/>
      <point x="643" y="391"/>
      <point x="640" y="382" type="curve" smooth="yes"/>
      <point x="555" y="125" type="line" smooth="yes"/>
      <point x="532" y="55"/>
      <point x="539" y="-14"/>
    </contour>
  </outline>
</glyph>
<glyph name="A.cur.ini" format="2">
  <advance width="743"/>
  <guideline x="461" y="388" angle="79.51"/>
  <guideline x="386" y="415" angle="251.32"/>
  <guideline x="587" y="111" angle="72.78"/>
  <guideline x="551" y="111" angle="72.78"/>
  <guideline y="73"/>
  <guideline x="731"/>
  <anchor x="287" y="0" name="bottom"/>
  <anchor x="678" y="0" name="cnct"/>
  <anchor x="680" y="10" name="ogonek"/>
  <anchor x="494" y="670" name="top"/>
  <outline>
    <contour>
      <point x="288" y="-14" type="curve" smooth="yes"/>
      <point x="455" y="-14"/>
      <point x="566" y="118"/>
      <point x="659" y="373" type="curve"/>
      <point x="640" y="381" type="line"/>
      <point x="542" y="125"/>
      <point x="428" y="16"/>
      <point x="293" y="16" type="curve" smooth="yes"/>
      <point x="219" y="16"/>
      <point x="132" y="63"/>
      <point x="132" y="215" type="curve" smooth="yes"/>
      <point x="132" y="461"/>
      <point x="304" y="682"/>
      <point x="506" y="682" type="curve" smooth="yes"/>
      <point x="597" y="682"/>
      <point x="672" y="635"/>
      <point x="690" y="533" type="curve" smooth="yes"/>
      <point x="691" y="526"/>
      <point x="699" y="522"/>
      <point x="709" y="526" type="curve" smooth="yes"/>
      <point x="721" y="531"/>
      <point x="721" y="540"/>
      <point x="719" y="550" type="curve" smooth="yes"/>
      <point x="695" y="660"/>
      <point x="609" y="712"/>
      <point x="510" y="712" type="curve" smooth="yes"/>
      <point x="276" y="712"/>
      <point x="99" y="471"/>
      <point x="99" y="213" type="curve" smooth="yes"/>
      <point x="99" y="45"/>
      <point x="200" y="-14"/>
    </contour>
    <contour>
      <point x="635" y="-14" type="curve" smooth="yes"/>
      <point x="653" y="-14"/>
      <point x="659" y="14"/>
      <point x="644" y="14" type="curve" smooth="yes"/>
      <point x="571" y="14"/>
      <point x="572" y="80"/>
      <point x="589" y="132" type="curve" smooth="yes"/>
      <point x="671" y="382" type="line" smooth="yes"/>
      <point x="674" y="391"/>
      <point x="669" y="394"/>
      <point x="659" y="394" type="curve" smooth="yes"/>
      <point x="646" y="394"/>
      <point x="643" y="391"/>
      <point x="640" y="382" type="curve" smooth="yes"/>
      <point x="557" y="130" type="line" smooth="yes"/>
      <point x="533" y="58"/>
      <point x="553" y="-14"/>
    </contour>
  </outline>
</glyph>
<glyph name="A.cur_locl.ini" format="2">
  <advance width="743"/>
  <anchor x="287" y="0" name="bottom"/>
  <anchor x="678" y="0" name="cnct"/>
  <anchor x="680" y="10" name="ogonek"/>
  <anchor x="494" y="670" name="top"/>
  <outline>
    <contour>
      <point x="288" y="-14" type="curve" smooth="yes"/>
      <point x="444" y="-14"/>
      <point x="564" y="111"/>
      <point x="659" y="374" type="curve"/>
      <point x="640" y="382" type="line"/>
      <point x="549" y="143"/>
      <point x="434" y="16"/>
      <point x="293" y="16" type="curve" smooth="yes"/>
      <point x="219" y="16"/>
      <point x="132" y="63"/>
      <point x="132" y="215" type="curve" smooth="yes"/>
      <point x="132" y="461"/>
      <point x="304" y="682"/>
      <point x="506" y="682" type="curve" smooth="yes"/>
      <point x="604" y="682"/>
      <point x="668" y="623"/>
      <point x="693" y="527" type="curve"/>
      <point x="707" y="573" type="line"/>
      <point x="676" y="659"/>
      <point x="601" y="712"/>
      <point x="510" y="712" type="curve" smooth="yes"/>
      <point x="276" y="712"/>
      <point x="99" y="471"/>
      <point x="99" y="213" type="curve" smooth="yes"/>
      <point x="99" y="45"/>
      <point x="200" y="-14"/>
    </contour>
    <contour>
      <point x="635" y="-14" type="curve" smooth="yes"/>
      <point x="653" y="-14"/>
      <point x="659" y="14"/>
      <point x="644" y="14" type="curve" smooth="yes"/>
      <point x="571" y="14"/>
      <point x="572" y="80"/>
      <point x="589" y="132" type="curve" smooth="yes"/>
      <point x="776" y="700" type="line" smooth="yes"/>
      <point x="779" y="708"/>
      <point x="774" y="712"/>
      <point x="764" y="712" type="curve" smooth="yes"/>
      <point x="751" y="712"/>
      <point x="748" y="708"/>
      <point x="745" y="700" type="curve" smooth="yes"/>
      <point x="557" y="130" type="line" smooth="yes"/>
      <point x="533" y="58"/>
      <point x="553" y="-14"/>
    </contour>
  </outline>
</glyph>
<glyph name="A.dec" format="2">
	<advance width="734"/>
	<outline>
		<contour>
			<point x="58" y="-14" type="curve" smooth="yes"/>
			<point x="157" y="-14"/>
			<point x="257" y="25"/>
			<point x="603" y="683" type="curve"/>
			<point x="588" y="682" type="line"/>
			<point x="561" y="461"/>
			<point x="545" y="243"/>
			<point x="557" y="2" type="curve" smooth="yes"/>
			<point x="558" y="-11"/>
			<point x="562" y="-14"/>
			<point x="574" y="-13" type="curve" smooth="yes"/>
			<point x="586" y="-12"/>
			<point x="589" y="-7"/>
			<point x="589" y="5" type="curve" smooth="yes"/>
			<point x="579" y="247"/>
			<point x="592" y="470"/>
			<point x="619" y="694" type="curve" smooth="yes"/>
			<point x="621" y="706"/>
			<point x="615" y="712"/>
			<point x="603" y="712" type="curve" smooth="yes"/>
			<point x="591" y="712"/>
			<point x="584" y="705"/>
			<point x="578" y="694" type="curve" smooth="yes"/>
			<point x="238" y="57"/>
			<point x="141" y="16"/>
			<point x="59" y="16" type="curve" smooth="yes"/>
			<point x="35" y="16"/>
			<point x="14" y="22"/>
			<point x="-1" y="29" type="curve" smooth="yes"/>
			<point x="-7" y="32"/>
			<point x="-14" y="29"/>
			<point x="-19" y="18" type="curve" smooth="yes"/>
			<point x="-24" y="7"/>
			<point x="-19" y="2"/>
			<point x="-12" y="-1" type="curve" smooth="yes"/>
			<point x="3" y="-7"/>
			<point x="29" y="-14"/>
		</contour>
		<contour>
			<point x="558" y="7" type="curve"/>
			<point x="580" y="17" type="line"/>
			<point x="567" y="264"/>
			<point x="436" y="321"/>
			<point x="321" y="321" type="curve" smooth="yes"/>
			<point x="242" y="321"/>
			<point x="175" y="274"/>
			<point x="175" y="211" type="curve" smooth="yes"/>
			<point x="175" y="151"/>
			<point x="237" y="105"/>
			<point x="348" y="105" type="curve" smooth="yes"/>
			<point x="500" y="105"/>
			<point x="602" y="156"/>
			<point x="720" y="268" type="curve" smooth="yes"/>
			<point x="725" y="273"/>
			<point x="726" y="279"/>
			<point x="717" y="287" type="curve" smooth="yes"/>
			<point x="710" y="293"/>
			<point x="705" y="293"/>
			<point x="701" y="289" type="curve" smooth="yes"/>
			<point x="590" y="182"/>
			<point x="490" y="133"/>
			<point x="351" y="133" type="curve" smooth="yes"/>
			<point x="254" y="133"/>
			<point x="208" y="167"/>
			<point x="208" y="214" type="curve" smooth="yes"/>
			<point x="208" y="264"/>
			<point x="257" y="293"/>
			<point x="320" y="293" type="curve" smooth="yes"/>
			<point x="431" y="293"/>
			<point x="538" y="236"/>
		</contour>
	</outline>
	<anchor name="bottom" x="364" y="0"/>
	<anchor name="ogonek" x="585" y="0"/>
	<anchor name="top" x="581" y="670"/>
</glyph>
<glyph name="A.dec2.ini" format="2">
	<advance width="734"/>
	<outline>
		<contour>
			<point x="627" y="-14" type="curve" smooth="yes"/>
			<point x="643" y="-14"/>
			<point x="646" y="14"/>
			<point x="630" y="14" type="curve" smooth="yes"/>
			<point x="580" y="14"/>
			<point x="550" y="47"/>
			<point x="558" y="127" type="curve" smooth="yes"/>
			<point x="576" y="312"/>
			<point x="610" y="486"/>
			<point x="658" y="694" type="curve"/>
			<point x="625" y="686" type="line"/>
			<point x="577" y="481"/>
			<point x="541" y="313"/>
			<point x="525" y="126" type="curve" smooth="yes"/>
			<point x="517" y="35"/>
			<point x="556" y="-14"/>
		</contour>
		<contour>
			<point x="148" y="-14" type="curve" smooth="yes"/>
			<point x="380" y="-14"/>
			<point x="386" y="620"/>
			<point x="652" y="688" type="curve" smooth="yes"/>
			<point x="661" y="690"/>
			<point x="666" y="695"/>
			<point x="661" y="705" type="curve" smooth="yes"/>
			<point x="659" y="714"/>
			<point x="655" y="717"/>
			<point x="647" y="715" type="curve" smooth="yes"/>
			<point x="362" y="644"/>
			<point x="343" y="16"/>
			<point x="151" y="16" type="curve" smooth="yes"/>
			<point x="102" y="16"/>
			<point x="71" y="51"/>
			<point x="71" y="111" type="curve" smooth="yes"/>
			<point x="71" y="263"/>
			<point x="240" y="312"/>
			<point x="429" y="312" type="curve" smooth="yes"/>
			<point x="623" y="312" type="line" smooth="yes"/>
			<point x="629" y="312"/>
			<point x="634" y="317"/>
			<point x="636" y="326" type="curve" smooth="yes"/>
			<point x="639" y="335"/>
			<point x="636" y="340"/>
			<point x="630" y="340" type="curve" smooth="yes"/>
			<point x="432" y="340" type="line" smooth="yes"/>
			<point x="221" y="340"/>
			<point x="38" y="281"/>
			<point x="38" y="108" type="curve" smooth="yes"/>
			<point x="38" y="36"/>
			<point x="82" y="-14"/>
		</contour>
	</outline>
	<anchor name="bottom" x="410" y="0"/>
	<anchor name="cnct" x="669" y="0"/>
	<anchor name="ogonek" x="624" y="-2"/>
	<anchor name="top" x="550" y="670"/>
</glyph>
<glyph name="A.dec_locl" format="2">
  <advance width="1043"/>
  <anchor x="455" y="0" name="bottom"/>
  <anchor x="873" y="0" name="ogonek"/>
  <anchor x="726" y="838" name="top"/>
  <outline>
    <contour>
      <point x="73" y="-17" type="curve" smooth="yes"/>
      <point x="196" y="-17"/>
      <point x="321" y="31"/>
      <point x="754" y="854" type="curve"/>
      <point x="735" y="853" type="line"/>
      <point x="709" y="640"/>
      <point x="695" y="430"/>
      <point x="695" y="231" type="curve" smooth="yes"/>
      <point x="695" y="56"/>
      <point x="726" y="-17"/>
      <point x="811" y="-17" type="curve" smooth="yes"/>
      <point x="875" y="-17"/>
      <point x="944" y="35"/>
      <point x="1004" y="216" type="curve" smooth="yes"/>
      <point x="1006" y="225"/>
      <point x="1005" y="234"/>
      <point x="991" y="238" type="curve" smooth="yes"/>
      <point x="976" y="241"/>
      <point x="971" y="235"/>
      <point x="969" y="225" type="curve" smooth="yes"/>
      <point x="924" y="78"/>
      <point x="866" y="19"/>
      <point x="815" y="19" type="curve" smooth="yes"/>
      <point x="756" y="19"/>
      <point x="733" y="71"/>
      <point x="733" y="231" type="curve" smooth="yes"/>
      <point x="733" y="436"/>
      <point x="748" y="651"/>
      <point x="774" y="868" type="curve" smooth="yes"/>
      <point x="776" y="883"/>
      <point x="769" y="890"/>
      <point x="754" y="890" type="curve" smooth="yes"/>
      <point x="739" y="890"/>
      <point x="730" y="881"/>
      <point x="723" y="868" type="curve" smooth="yes"/>
      <point x="298" y="71"/>
      <point x="176" y="20"/>
      <point x="74" y="20" type="curve" smooth="yes"/>
      <point x="44" y="20"/>
      <point x="18" y="28"/>
      <point x="-1" y="36" type="curve" smooth="yes"/>
      <point x="-9" y="40"/>
      <point x="-17" y="36"/>
      <point x="-24" y="23" type="curve" smooth="yes"/>
      <point x="-30" y="9"/>
      <point x="-24" y="3"/>
      <point x="-15" y="-1" type="curve" smooth="yes"/>
      <point x="4" y="-9"/>
      <point x="36" y="-17"/>
    </contour>
    <contour>
      <point x="424" y="303" type="line"/>
      <point x="713" y="303" type="line"/>
      <point x="719" y="335" type="line"/>
      <point x="430" y="335" type="line"/>
    </contour>
  </outline>
</glyph>
<glyph name="A.dec_locl.ini" format="2">
  <advance width="764"/>
  <anchor x="364" y="0" name="bottom"/>
  <anchor x="699" y="0" name="cnct"/>
  <anchor x="585" y="0" name="ogonek"/>
  <anchor x="581" y="670" name="top"/>
  <outline>
    <contour>
      <point x="58" y="-14" type="curve" smooth="yes"/>
      <point x="157" y="-14"/>
      <point x="257" y="25"/>
      <point x="603" y="683" type="curve"/>
      <point x="588" y="682" type="line"/>
      <point x="567" y="512"/>
      <point x="556" y="344"/>
      <point x="556" y="149" type="curve" smooth="yes"/>
      <point x="556" y="36"/>
      <point x="585" y="-14"/>
      <point x="656" y="-14" type="curve" smooth="yes"/>
      <point x="676" y="-14"/>
      <point x="685" y="14"/>
      <point x="665" y="14" type="curve" smooth="yes"/>
      <point x="609" y="14"/>
      <point x="586" y="45"/>
      <point x="586" y="155" type="curve" smooth="yes"/>
      <point x="586" y="349"/>
      <point x="598" y="521"/>
      <point x="619" y="694" type="curve" smooth="yes"/>
      <point x="621" y="706"/>
      <point x="615" y="712"/>
      <point x="603" y="712" type="curve" smooth="yes"/>
      <point x="591" y="712"/>
      <point x="584" y="705"/>
      <point x="578" y="694" type="curve" smooth="yes"/>
      <point x="238" y="57"/>
      <point x="141" y="16"/>
      <point x="59" y="16" type="curve" smooth="yes"/>
      <point x="35" y="16"/>
      <point x="14" y="22"/>
      <point x="-1" y="29" type="curve" smooth="yes"/>
      <point x="-7" y="32"/>
      <point x="-14" y="29"/>
      <point x="-19" y="18" type="curve" smooth="yes"/>
      <point x="-24" y="7"/>
      <point x="-19" y="2"/>
      <point x="-12" y="-1" type="curve" smooth="yes"/>
      <point x="3" y="-7"/>
      <point x="29" y="-14"/>
    </contour>
    <contour>
      <point x="339" y="242" type="line"/>
      <point x="570" y="242" type="line"/>
      <point x="575" y="268" type="line"/>
      <point x="344" y="268" type="line"/>
    </contour>
  </outline>
</glyph>
<glyph name="AE.cur" format="2">
  <advance width="1289"/>
  <anchor x="914" y="838" name="top"/>
  <outline>
    <contour>
      <point x="54" y="-17" type="curve" smooth="yes"/>
      <point x="150" y="-17"/>
      <point x="214" y="34"/>
      <point x="404" y="288" type="curve"/>
      <point x="695" y="288" type="line"/>
      <point x="692" y="262"/>
      <point x="690" y="237"/>
      <point x="688" y="211" type="curve" smooth="yes"/>
      <point x="686" y="195"/>
      <point x="689" y="190"/>
      <point x="704" y="189" type="curve" smooth="yes"/>
      <point x="719" y="189"/>
      <point x="723" y="194"/>
      <point x="724" y="209" type="curve" smooth="yes"/>
      <point x="743" y="431"/>
      <point x="784" y="665"/>
      <point x="834" y="868" type="curve" smooth="yes"/>
      <point x="838" y="883"/>
      <point x="829" y="890"/>
      <point x="814" y="890" type="curve" smooth="yes"/>
      <point x="799" y="890"/>
      <point x="791" y="883"/>
      <point x="781" y="869" type="curve" smooth="yes"/>
      <point x="251" y="135"/>
      <point x="173" y="20"/>
      <point x="55" y="20" type="curve" smooth="yes"/>
      <point x="35" y="20"/>
      <point x="16" y="24"/>
      <point x="-2" y="33" type="curve" smooth="yes"/>
      <point x="-10" y="36"/>
      <point x="-19" y="33"/>
      <point x="-25" y="19" type="curve" smooth="yes"/>
      <point x="-31" y="5"/>
      <point x="-25" y="-1"/>
      <point x="-16" y="-5" type="curve" smooth="yes"/>
      <point x="3" y="-12"/>
      <point x="25" y="-17"/>
    </contour>
    <contour>
      <point x="428" y="320" type="line"/>
      <point x="517" y="439"/>
      <point x="630" y="599"/>
      <point x="784" y="813" type="curve"/>
      <point x="747" y="659"/>
      <point x="716" y="490"/>
      <point x="698" y="320" type="curve"/>
    </contour>
    <contour>
      <point x="899" y="-19" type="curve" smooth="yes"/>
      <point x="1000" y="-19"/>
      <point x="1093" y="15"/>
      <point x="1198" y="115" type="curve" smooth="yes"/>
      <point x="1210" y="128"/>
      <point x="1215" y="136"/>
      <point x="1206" y="145" type="curve" smooth="yes"/>
      <point x="1198" y="154"/>
      <point x="1190" y="155"/>
      <point x="1178" y="144" type="curve" smooth="yes"/>
      <point x="1084" y="55"/>
      <point x="994" y="19"/>
      <point x="904" y="19" type="curve" smooth="yes"/>
      <point x="774" y="19"/>
      <point x="729" y="104"/>
      <point x="729" y="200" type="curve" smooth="yes"/>
      <point x="729" y="369"/>
      <point x="894" y="441"/>
      <point x="1058" y="441" type="curve" smooth="yes"/>
      <point x="1130" y="441" type="line" smooth="yes"/>
      <point x="1136" y="441"/>
      <point x="1146" y="445"/>
      <point x="1149" y="458" type="curve" smooth="yes"/>
      <point x="1151" y="470"/>
      <point x="1145" y="476"/>
      <point x="1139" y="476" type="curve" smooth="yes"/>
      <point x="1063" y="476" type="line" smooth="yes"/>
      <point x="949" y="476"/>
      <point x="909" y="543"/>
      <point x="909" y="631" type="curve" smooth="yes"/>
      <point x="909" y="750"/>
      <point x="1000" y="853"/>
      <point x="1126" y="853" type="curve" smooth="yes"/>
      <point x="1200" y="853"/>
      <point x="1251" y="828"/>
      <point x="1303" y="773" type="curve" smooth="yes"/>
      <point x="1309" y="766"/>
      <point x="1318" y="760"/>
      <point x="1329" y="769" type="curve" smooth="yes"/>
      <point x="1345" y="781"/>
      <point x="1338" y="789"/>
      <point x="1333" y="795" type="curve" smooth="yes"/>
      <point x="1293" y="848"/>
      <point x="1228" y="890"/>
      <point x="1136" y="890" type="curve" smooth="yes"/>
      <point x="971" y="890"/>
      <point x="868" y="763"/>
      <point x="868" y="629" type="curve" smooth="yes"/>
      <point x="868" y="554"/>
      <point x="901" y="491"/>
      <point x="975" y="464" type="curve"/>
      <point x="813" y="438"/>
      <point x="688" y="355"/>
      <point x="688" y="191" type="curve" smooth="yes"/>
      <point x="688" y="85"/>
      <point x="749" y="-19"/>
    </contour>
  </outline>
</glyph>
<glyph name="AE.cur.locl" format="2">
  <advance width="960"/>
  <anchor x="679" y="670" name="top"/>
  <outline>
    <contour>
      <point x="5" y="-14" type="curve" smooth="yes"/>
      <point x="114" y="-14"/>
      <point x="208" y="69"/>
      <point x="664" y="671" type="curve"/>
      <point x="681" y="671" type="line"/>
      <point x="690" y="700" type="line"/>
      <point x="672" y="700" type="line"/>
      <point x="656" y="700"/>
      <point x="647" y="693"/>
      <point x="639" y="682" type="curve" smooth="yes"/>
      <point x="186" y="95"/>
      <point x="100" y="16"/>
      <point x="6" y="16" type="curve" smooth="yes"/>
      <point x="-10" y="16"/>
      <point x="-22" y="20"/>
      <point x="-34" y="25" type="curve" smooth="yes"/>
      <point x="-40" y="27"/>
      <point x="-47" y="25"/>
      <point x="-52" y="14" type="curve" smooth="yes"/>
      <point x="-57" y="3"/>
      <point x="-52" y="-2"/>
      <point x="-45" y="-5" type="curve" smooth="yes"/>
      <point x="-31" y="-11"/>
      <point x="-16" y="-14"/>
    </contour>
    <contour>
      <point x="570" y="336" type="line"/>
      <point x="579" y="364" type="line"/>
      <point x="407" y="364" type="line"/>
      <point x="388" y="336" type="line"/>
    </contour>
    <contour>
      <point x="684" y="0" type="line" smooth="yes"/>
      <point x="783" y="0"/>
      <point x="872" y="54"/>
      <point x="917" y="138" type="curve" smooth="yes"/>
      <point x="922" y="146"/>
      <point x="918" y="153"/>
      <point x="911" y="157" type="curve" smooth="yes"/>
      <point x="900" y="163"/>
      <point x="895" y="158"/>
      <point x="890" y="149" type="curve" smooth="yes"/>
      <point x="847" y="73"/>
      <point x="762" y="28"/>
      <point x="690" y="28" type="curve" smooth="yes"/>
      <point x="485" y="28" type="line"/>
      <point x="586" y="336" type="line"/>
      <point x="767" y="336" type="line" smooth="yes"/>
      <point x="772" y="336"/>
      <point x="777" y="340"/>
      <point x="781" y="350" type="curve" smooth="yes"/>
      <point x="784" y="360"/>
      <point x="781" y="364"/>
      <point x="776" y="364" type="curve" smooth="yes"/>
      <point x="595" y="364" type="line"/>
      <point x="694" y="672" type="line"/>
      <point x="943" y="672" type="line" smooth="yes"/>
      <point x="948" y="672"/>
      <point x="953" y="676"/>
      <point x="956" y="686" type="curve" smooth="yes"/>
      <point x="960" y="696"/>
      <point x="957" y="700"/>
      <point x="952" y="700" type="curve" smooth="yes"/>
      <point x="687" y="700" type="line" smooth="yes"/>
      <point x="676" y="700"/>
      <point x="672" y="697"/>
      <point x="669" y="688" type="curve" smooth="yes"/>
      <point x="449" y="12" type="line" smooth="yes"/>
      <point x="446" y="3"/>
      <point x="450" y="0"/>
      <point x="461" y="0" type="curve" smooth="yes"/>
    </contour>
  </outline>
</glyph>
<glyph name="AE.cur.locl.ini" format="2">
  <advance width="1100"/>
  <anchor x="849" y="838" name="top"/>
  <outline>
    <contour>
      <point x="6" y="-17" type="curve" smooth="yes"/>
      <point x="143" y="-17"/>
      <point x="260" y="86"/>
      <point x="830" y="839" type="curve"/>
      <point x="851" y="839" type="line"/>
      <point x="863" y="875" type="line"/>
      <point x="840" y="875" type="line"/>
      <point x="820" y="875"/>
      <point x="809" y="866"/>
      <point x="799" y="853" type="curve" smooth="yes"/>
      <point x="233" y="119"/>
      <point x="125" y="20"/>
      <point x="8" y="20" type="curve" smooth="yes"/>
      <point x="-12" y="20"/>
      <point x="-27" y="25"/>
      <point x="-42" y="31" type="curve" smooth="yes"/>
      <point x="-50" y="34"/>
      <point x="-59" y="31"/>
      <point x="-65" y="18" type="curve" smooth="yes"/>
      <point x="-71" y="4"/>
      <point x="-65" y="-2"/>
      <point x="-56" y="-6" type="curve" smooth="yes"/>
      <point x="-39" y="-14"/>
      <point x="-20" y="-17"/>
    </contour>
    <contour>
      <point x="713" y="420" type="line"/>
      <point x="724" y="455" type="line"/>
      <point x="509" y="455" type="line"/>
      <point x="485" y="420" type="line"/>
    </contour>
    <contour>
      <point x="965" y="-17" type="line" smooth="yes"/>
      <point x="985" y="-17"/>
      <point x="996" y="18"/>
      <point x="976" y="18" type="curve" smooth="yes"/>
      <point x="600" y="18" type="line"/>
      <point x="733" y="420" type="line"/>
      <point x="959" y="420" type="line" smooth="yes"/>
      <point x="965" y="420"/>
      <point x="971" y="425"/>
      <point x="976" y="438" type="curve" smooth="yes"/>
      <point x="980" y="450"/>
      <point x="976" y="455"/>
      <point x="970" y="455" type="curve" smooth="yes"/>
      <point x="744" y="455" type="line"/>
      <point x="868" y="840" type="line"/>
      <point x="1179" y="840" type="line" smooth="yes"/>
      <point x="1185" y="840"/>
      <point x="1191" y="845"/>
      <point x="1195" y="858" type="curve" smooth="yes"/>
      <point x="1200" y="870"/>
      <point x="1196" y="875"/>
      <point x="1190" y="875" type="curve" smooth="yes"/>
      <point x="859" y="875" type="line" smooth="yes"/>
      <point x="845" y="875"/>
      <point x="840" y="871"/>
      <point x="836" y="860" type="curve" smooth="yes"/>
      <point x="555" y="-2" type="line" smooth="yes"/>
      <point x="551" y="-13"/>
      <point x="557" y="-17"/>
      <point x="570" y="-17" type="curve" smooth="yes"/>
    </contour>
  </outline>
</glyph>
<glyph name="B.cur" format="2">
  <advance width="715"/>
  <guideline x="222" y="104" angle="72.99"/>
  <anchor x="374" y="0" name="bottom"/>
  <anchor x="235" y="206" name="center"/>
  <anchor x="523" y="670" name="top"/>
  <outline>
    <contour>
      <point x="372" y="-10" type="curve" smooth="yes"/>
      <point x="500" y="-10"/>
      <point x="657" y="70"/>
      <point x="657" y="240" type="curve" smooth="yes"/>
      <point x="657" y="312"/>
      <point x="609" y="368"/>
      <point x="520" y="381" type="curve"/>
      <point x="521" y="383" type="line"/>
      <point x="624" y="403"/>
      <point x="722" y="472"/>
      <point x="722" y="577" type="curve" smooth="yes"/>
      <point x="722" y="664"/>
      <point x="641" y="712"/>
      <point x="502" y="712" type="curve" smooth="yes"/>
      <point x="377" y="712"/>
      <point x="288" y="686"/>
      <point x="195" y="622" type="curve" smooth="yes"/>
      <point x="186" y="616"/>
      <point x="184" y="607"/>
      <point x="190" y="600" type="curve" smooth="yes"/>
      <point x="198" y="591"/>
      <point x="204" y="592"/>
      <point x="212" y="598" type="curve" smooth="yes"/>
      <point x="304" y="664"/>
      <point x="389" y="683"/>
      <point x="501" y="683" type="curve" smooth="yes"/>
      <point x="620" y="683"/>
      <point x="689" y="645"/>
      <point x="689" y="572" type="curve" smooth="yes"/>
      <point x="689" y="472"/>
      <point x="573" y="412"/>
      <point x="482" y="398" type="curve"/>
      <point x="473" y="402"/>
      <point x="460" y="404"/>
      <point x="444" y="404" type="curve" smooth="yes"/>
      <point x="423" y="404"/>
      <point x="403" y="393"/>
      <point x="398" y="376" type="curve" smooth="yes"/>
      <point x="394" y="361"/>
      <point x="406" y="354"/>
      <point x="423" y="354" type="curve" smooth="yes"/>
      <point x="439" y="354"/>
      <point x="459" y="360"/>
      <point x="474" y="366" type="curve"/>
      <point x="561" y="359"/>
      <point x="624" y="314"/>
      <point x="624" y="237" type="curve" smooth="yes"/>
      <point x="624" y="93"/>
      <point x="484" y="19"/>
      <point x="377" y="19" type="curve" smooth="yes"/>
      <point x="333" y="19"/>
      <point x="302" y="26"/>
      <point x="264" y="52" type="curve" smooth="yes"/>
      <point x="258" y="56"/>
      <point x="252" y="57"/>
      <point x="245" y="47" type="curve" smooth="yes"/>
      <point x="237" y="36"/>
      <point x="242" y="30"/>
      <point x="248" y="26" type="curve" smooth="yes"/>
      <point x="283" y="1"/>
      <point x="329" y="-10"/>
    </contour>
    <contour>
      <point x="88" y="-14" type="curve" smooth="yes"/>
      <point x="154" y="-14"/>
      <point x="195" y="32"/>
      <point x="222" y="114" type="curve" smooth="yes"/>
      <point x="380" y="597" type="line" smooth="yes"/>
      <point x="383" y="606"/>
      <point x="377" y="609"/>
      <point x="368" y="609" type="curve" smooth="yes"/>
      <point x="357" y="609"/>
      <point x="352" y="606"/>
      <point x="349" y="597" type="curve" smooth="yes"/>
      <point x="193" y="121" type="line" smooth="yes"/>
      <point x="168" y="46"/>
      <point x="135" y="14"/>
      <point x="91" y="14" type="curve" smooth="yes"/>
      <point x="60" y="14"/>
      <point x="29" y="21"/>
      <point x="10" y="67" type="curve" smooth="yes"/>
      <point x="7" y="74"/>
      <point x="-1" y="74"/>
      <point x="-8" y="70" type="curve" smooth="yes"/>
      <point x="-13" y="67"/>
      <point x="-17" y="61"/>
      <point x="-15" y="55" type="curve" smooth="yes"/>
      <point x="4" y="10"/>
      <point x="38" y="-14"/>
    </contour>
  </outline>
</glyph>
<glyph name="B.dec" format="2">
  <advance width="918"/>
  <anchor x="474" y="0" name="bottom"/>
  <anchor x="254" y="258" name="center"/>
  <anchor x="666" y="838" name="top"/>
  <outline>
    <contour>
      <point x="494" y="-12" type="curve" smooth="yes"/>
      <point x="650" y="-12"/>
      <point x="845" y="88"/>
      <point x="845" y="300" type="curve" smooth="yes"/>
      <point x="845" y="390"/>
      <point x="786" y="460"/>
      <point x="675" y="476" type="curve"/>
      <point x="676" y="479" type="line"/>
      <point x="811" y="511"/>
      <point x="921" y="591"/>
      <point x="921" y="731" type="curve" smooth="yes"/>
      <point x="921" y="826"/>
      <point x="858" y="890"/>
      <point x="740" y="890" type="curve" smooth="yes"/>
      <point x="634" y="890"/>
      <point x="509" y="831"/>
      <point x="413" y="689" type="curve"/>
      <point x="471" y="870" type="line" smooth="yes"/>
      <point x="475" y="880"/>
      <point x="470" y="888"/>
      <point x="458" y="888" type="curve" smooth="yes"/>
      <point x="445" y="888"/>
      <point x="439" y="883"/>
      <point x="435" y="875" type="curve" smooth="yes"/>
      <point x="378" y="754"/>
      <point x="293" y="685"/>
      <point x="174" y="636" type="curve" smooth="yes"/>
      <point x="166" y="634"/>
      <point x="163" y="629"/>
      <point x="166" y="616" type="curve" smooth="yes"/>
      <point x="170" y="605"/>
      <point x="174" y="601"/>
      <point x="184" y="605" type="curve" smooth="yes"/>
      <point x="274" y="643"/>
      <point x="345" y="689"/>
      <point x="398" y="759" type="curve"/>
      <point x="151" y="1" type="line" smooth="yes"/>
      <point x="148" y="-9"/>
      <point x="154" y="-14"/>
      <point x="166" y="-14" type="curve" smooth="yes"/>
      <point x="180" y="-14"/>
      <point x="185" y="-9"/>
      <point x="189" y="1" type="curve" smooth="yes"/>
      <point x="351" y="503" type="line"/>
      <point x="441" y="758"/>
      <point x="615" y="856"/>
      <point x="738" y="856" type="curve" smooth="yes"/>
      <point x="833" y="856"/>
      <point x="880" y="809"/>
      <point x="880" y="724" type="curve" smooth="yes"/>
      <point x="880" y="591"/>
      <point x="748" y="515"/>
      <point x="628" y="498" type="curve"/>
      <point x="616" y="503"/>
      <point x="600" y="505"/>
      <point x="580" y="505" type="curve" smooth="yes"/>
      <point x="554" y="505"/>
      <point x="529" y="491"/>
      <point x="523" y="470" type="curve" smooth="yes"/>
      <point x="518" y="451"/>
      <point x="533" y="443"/>
      <point x="554" y="443" type="curve" smooth="yes"/>
      <point x="574" y="443"/>
      <point x="599" y="450"/>
      <point x="618" y="458" type="curve"/>
      <point x="726" y="449"/>
      <point x="804" y="393"/>
      <point x="804" y="296" type="curve" smooth="yes"/>
      <point x="804" y="116"/>
      <point x="630" y="24"/>
      <point x="500" y="24" type="curve" smooth="yes"/>
      <point x="445" y="24"/>
      <point x="406" y="33"/>
      <point x="359" y="65" type="curve" smooth="yes"/>
      <point x="351" y="70"/>
      <point x="344" y="71"/>
      <point x="335" y="59" type="curve" smooth="yes"/>
      <point x="325" y="45"/>
      <point x="331" y="38"/>
      <point x="339" y="33" type="curve" smooth="yes"/>
      <point x="383" y="1"/>
      <point x="440" y="-12"/>
    </contour>
  </outline>
</glyph>
<glyph name="C.cur" format="2">
  <advance width="620"/>
  <anchor x="285" y="0" name="bottom"/>
  <anchor x="492" y="670" name="top"/>
  <outline>
    <contour>
      <point x="308" y="-15" type="curve" smooth="yes"/>
      <point x="392" y="-15"/>
      <point x="479" y="23"/>
      <point x="554" y="98" type="curve" smooth="yes"/>
      <point x="562" y="106"/>
      <point x="563" y="111"/>
      <point x="556" y="118" type="curve" smooth="yes"/>
      <point x="548" y="126"/>
      <point x="543" y="125"/>
      <point x="535" y="118" type="curve" smooth="yes"/>
      <point x="468" y="52"/>
      <point x="390" y="15"/>
      <point x="310" y="15" type="curve" smooth="yes"/>
      <point x="205" y="15"/>
      <point x="137" y="94"/>
      <point x="137" y="214" type="curve" smooth="yes"/>
      <point x="137" y="440"/>
      <point x="281" y="682"/>
      <point x="512" y="682" type="curve" smooth="yes"/>
      <point x="570" y="682"/>
      <point x="618" y="661"/>
      <point x="653" y="621" type="curve" smooth="yes"/>
      <point x="664" y="609"/>
      <point x="667" y="606"/>
      <point x="676" y="610" type="curve"/>
      <point x="688" y="616"/>
      <point x="692" y="623"/>
      <point x="686" y="632" type="curve" smooth="yes"/>
      <point x="649" y="684"/>
      <point x="589" y="712"/>
      <point x="514" y="712" type="curve" smooth="yes"/>
      <point x="258" y="712"/>
      <point x="104" y="453"/>
      <point x="104" y="214" type="curve" smooth="yes"/>
      <point x="104" y="76"/>
      <point x="185" y="-15"/>
    </contour>
  </outline>
</glyph>
<glyph name="D.cur" format="2">
	<advance width="804"/>
	<outline>
		<contour>
			<point x="387" y="-13" type="curve" smooth="yes"/>
			<point x="638" y="-13"/>
			<point x="794" y="243"/>
			<point x="794" y="460" type="curve" smooth="yes"/>
			<point x="794" y="632"/>
			<point x="679" y="712"/>
			<point x="507" y="712" type="curve" smooth="yes"/>
			<point x="381" y="712"/>
			<point x="292" y="686"/>
			<point x="199" y="622" type="curve" smooth="yes"/>
			<point x="190" y="616"/>
			<point x="188" y="607"/>
			<point x="194" y="600" type="curve" smooth="yes"/>
			<point x="202" y="591"/>
			<point x="208" y="592"/>
			<point x="216" y="598" type="curve" smooth="yes"/>
			<point x="308" y="664"/>
			<point x="393" y="685"/>
			<point x="505" y="685" type="curve" smooth="yes"/>
			<point x="661" y="685"/>
			<point x="761" y="615"/>
			<point x="761" y="458" type="curve" smooth="yes"/>
			<point x="761" y="266"/>
			<point x="620" y="16"/>
			<point x="390" y="16" type="curve" smooth="yes"/>
			<point x="346" y="16"/>
			<point x="305" y="27"/>
			<point x="271" y="52" type="curve" smooth="yes"/>
			<point x="264" y="57"/>
			<point x="258" y="56"/>
			<point x="252" y="47" type="curve" smooth="yes"/>
			<point x="245" y="36"/>
			<point x="248" y="31"/>
			<point x="255" y="26" type="curve" smooth="yes"/>
			<point x="287" y="2"/>
			<point x="339" y="-13"/>
		</contour>
		<contour>
			<point x="92" y="-14" type="curve" smooth="yes"/>
			<point x="158" y="-14"/>
			<point x="199" y="32"/>
			<point x="226" y="114" type="curve" smooth="yes"/>
			<point x="385" y="604" type="line" smooth="yes"/>
			<point x="388" y="613"/>
			<point x="382" y="616"/>
			<point x="373" y="616" type="curve" smooth="yes"/>
			<point x="362" y="616"/>
			<point x="357" y="613"/>
			<point x="354" y="604" type="curve" smooth="yes"/>
			<point x="197" y="121" type="line" smooth="yes"/>
			<point x="173" y="46"/>
			<point x="139" y="14"/>
			<point x="95" y="14" type="curve" smooth="yes"/>
			<point x="64" y="14"/>
			<point x="33" y="21"/>
			<point x="14" y="67" type="curve" smooth="yes"/>
			<point x="11" y="74"/>
			<point x="3" y="74"/>
			<point x="-4" y="70" type="curve" smooth="yes"/>
			<point x="-9" y="67"/>
			<point x="-13" y="61"/>
			<point x="-11" y="55" type="curve" smooth="yes"/>
			<point x="8" y="10"/>
			<point x="42" y="-14"/>
		</contour>
	</outline>
	<anchor name="bottom" x="382" y="0"/>
	<anchor name="center" x="339" y="350"/>
	<anchor name="top" x="568" y="670"/>
	<guideline x="191" y="42" angle="230.19"/>
</glyph>
<glyph name="D.dec" format="2">
	<advance width="799"/>
	<outline>
		<contour>
			<point x="120" y="-17" type="curve" smooth="yes"/>
			<point x="184" y="-17"/>
			<point x="223" y="44"/>
			<point x="253" y="137" type="curve" smooth="yes"/>
			<point x="404" y="603" type="line" smooth="yes"/>
			<point x="407" y="611"/>
			<point x="403" y="616"/>
			<point x="393" y="616" type="curve" smooth="yes"/>
			<point x="382" y="616"/>
			<point x="377" y="612"/>
			<point x="374" y="604" type="curve" smooth="yes"/>
			<point x="226" y="146" type="line" smooth="yes"/>
			<point x="204" y="78"/>
			<point x="171" y="10"/>
			<point x="123" y="10" type="curve" smooth="yes"/>
			<point x="98" y="10"/>
			<point x="80" y="25"/>
			<point x="80" y="45" type="curve" smooth="yes"/>
			<point x="80" y="71"/>
			<point x="103" y="84"/>
			<point x="131" y="84" type="curve" smooth="yes"/>
			<point x="217" y="84"/>
			<point x="266" y="-9"/>
			<point x="417" y="-9" type="curve" smooth="yes"/>
			<point x="618" y="-9"/>
			<point x="778" y="180"/>
			<point x="778" y="384" type="curve" smooth="yes"/>
			<point x="778" y="599"/>
			<point x="638" y="712"/>
			<point x="448" y="712" type="curve" smooth="yes"/>
			<point x="303" y="712"/>
			<point x="230" y="654"/>
			<point x="175" y="542" type="curve" smooth="yes"/>
			<point x="170" y="531"/>
			<point x="172" y="526"/>
			<point x="180" y="522" type="curve" smooth="yes"/>
			<point x="188" y="518"/>
			<point x="196" y="519"/>
			<point x="201" y="529" type="curve" smooth="yes"/>
			<point x="254" y="635"/>
			<point x="310" y="684"/>
			<point x="445" y="684" type="curve" smooth="yes"/>
			<point x="620" y="684"/>
			<point x="745" y="579"/>
			<point x="745" y="381" type="curve" smooth="yes"/>
			<point x="745" y="191"/>
			<point x="593" y="18"/>
			<point x="419" y="18" type="curve" smooth="yes"/>
			<point x="281" y="18"/>
			<point x="231" y="112"/>
			<point x="132" y="112" type="curve" smooth="yes"/>
			<point x="79" y="112"/>
			<point x="47" y="80"/>
			<point x="47" y="42" type="curve" smooth="yes"/>
			<point x="47" y="9"/>
			<point x="79" y="-17"/>
		</contour>
	</outline>
	<anchor name="bottom" x="382" y="0"/>
	<anchor name="center" x="339" y="350"/>
	<anchor name="top" x="568" y="670"/>
</glyph>
<glyph name="E.cur" format="2">
  <advance width="698"/>
  <guideline x="250" y="15" angle="255.07"/>
  <guideline x="221" y="492" angle="183.47"/>
  <anchor x="316" y="0" name="bottom"/>
  <anchor x="425" y="0" name="ogonek"/>
  <anchor x="533" y="838" name="top"/>
  <outline>
    <contour>
      <point x="306" y="-19" type="curve" smooth="yes"/>
      <point x="401" y="-19"/>
      <point x="501" y="15"/>
      <point x="606" y="115" type="curve" smooth="yes"/>
      <point x="619" y="128"/>
      <point x="624" y="136"/>
      <point x="615" y="145" type="curve" smooth="yes"/>
      <point x="606" y="154"/>
      <point x="599" y="155"/>
      <point x="586" y="144" type="curve" smooth="yes"/>
      <point x="493" y="55"/>
      <point x="404" y="19"/>
      <point x="316" y="19" type="curve" smooth="yes"/>
      <point x="199" y="19"/>
      <point x="129" y="75"/>
      <point x="129" y="168" type="curve" smooth="yes"/>
      <point x="129" y="319"/>
      <point x="263" y="441"/>
      <point x="426" y="441" type="curve" smooth="yes"/>
      <point x="539" y="441" type="line" smooth="yes"/>
      <point x="545" y="441"/>
      <point x="555" y="445"/>
      <point x="558" y="458" type="curve" smooth="yes"/>
      <point x="560" y="470"/>
      <point x="554" y="476"/>
      <point x="548" y="476" type="curve" smooth="yes"/>
      <point x="431" y="476" type="line" smooth="yes"/>
      <point x="321" y="476"/>
      <point x="276" y="539"/>
      <point x="276" y="615" type="curve" smooth="yes"/>
      <point x="276" y="734"/>
      <point x="379" y="853"/>
      <point x="533" y="853" type="curve" smooth="yes"/>
      <point x="615" y="853"/>
      <point x="671" y="828"/>
      <point x="719" y="773" type="curve" smooth="yes"/>
      <point x="725" y="766"/>
      <point x="734" y="760"/>
      <point x="745" y="769" type="curve" smooth="yes"/>
      <point x="761" y="781"/>
      <point x="753" y="789"/>
      <point x="749" y="795" type="curve" smooth="yes"/>
      <point x="713" y="848"/>
      <point x="643" y="890"/>
      <point x="543" y="890" type="curve" smooth="yes"/>
      <point x="350" y="890"/>
      <point x="235" y="746"/>
      <point x="235" y="613" type="curve" smooth="yes"/>
      <point x="235" y="548"/>
      <point x="265" y="489"/>
      <point x="341" y="461" type="curve"/>
      <point x="196" y="430"/>
      <point x="88" y="305"/>
      <point x="88" y="159" type="curve" smooth="yes"/>
      <point x="88" y="56"/>
      <point x="169" y="-19"/>
    </contour>
  </outline>
</glyph>
<glyph name="E.cur.ini" format="2">
  <advance width="690"/>
  <anchor x="316" y="0" name="bottom"/>
  <anchor x="609" y="0" name="cnct"/>
  <anchor x="425" y="0" name="ogonek"/>
  <anchor x="533" y="838" name="top"/>
  <outline>
    <contour>
      <point x="324" y="-17" type="curve" smooth="yes"/>
      <point x="344" y="-17"/>
      <point x="349" y="16"/>
      <point x="329" y="16" type="curve" smooth="yes"/>
      <point x="210" y="16"/>
      <point x="129" y="76"/>
      <point x="129" y="194" type="curve" smooth="yes"/>
      <point x="129" y="322"/>
      <point x="245" y="441"/>
      <point x="426" y="441" type="curve" smooth="yes"/>
      <point x="539" y="441" type="line" smooth="yes"/>
      <point x="545" y="441"/>
      <point x="555" y="445"/>
      <point x="558" y="458" type="curve" smooth="yes"/>
      <point x="560" y="470"/>
      <point x="554" y="476"/>
      <point x="548" y="476" type="curve" smooth="yes"/>
      <point x="431" y="476" type="line" smooth="yes"/>
      <point x="321" y="476"/>
      <point x="276" y="539"/>
      <point x="276" y="615" type="curve" smooth="yes"/>
      <point x="276" y="734"/>
      <point x="379" y="853"/>
      <point x="533" y="853" type="curve" smooth="yes"/>
      <point x="615" y="853"/>
      <point x="671" y="828"/>
      <point x="719" y="773" type="curve" smooth="yes"/>
      <point x="725" y="766"/>
      <point x="734" y="760"/>
      <point x="745" y="769" type="curve" smooth="yes"/>
      <point x="761" y="781"/>
      <point x="753" y="789"/>
      <point x="749" y="795" type="curve" smooth="yes"/>
      <point x="713" y="848"/>
      <point x="643" y="890"/>
      <point x="543" y="890" type="curve" smooth="yes"/>
      <point x="350" y="890"/>
      <point x="235" y="746"/>
      <point x="235" y="613" type="curve" smooth="yes"/>
      <point x="235" y="548"/>
      <point x="265" y="489"/>
      <point x="341" y="461" type="curve"/>
      <point x="186" y="428"/>
      <point x="88" y="316"/>
      <point x="88" y="189" type="curve" smooth="yes"/>
      <point x="88" y="53"/>
      <point x="183" y="-17"/>
    </contour>
  </outline>
</glyph>
<glyph name="F.cur" format="2">
	<advance width="606"/>
	<outline>
		<contour>
			<point x="118" y="-14" type="curve" smooth="yes"/>
			<point x="181" y="-14"/>
			<point x="219" y="32"/>
			<point x="246" y="114" type="curve" smooth="yes"/>
			<point x="319" y="336" type="line"/>
			<point x="574" y="336" type="line" smooth="yes"/>
			<point x="584" y="336"/>
			<point x="588" y="339"/>
			<point x="591" y="350" type="curve" smooth="yes"/>
			<point x="593" y="359"/>
			<point x="593" y="364"/>
			<point x="582" y="364" type="curve" smooth="yes"/>
			<point x="328" y="364" type="line"/>
			<point x="428" y="672" type="line"/>
			<point x="725" y="672" type="line" smooth="yes"/>
			<point x="735" y="672"/>
			<point x="739" y="675"/>
			<point x="742" y="686" type="curve" smooth="yes"/>
			<point x="744" y="695"/>
			<point x="744" y="700"/>
			<point x="733" y="700" type="curve" smooth="yes"/>
			<point x="369" y="700" type="line" smooth="yes"/>
			<point x="288" y="700"/>
			<point x="222" y="676"/>
			<point x="170" y="626" type="curve" smooth="yes"/>
			<point x="161" y="617"/>
			<point x="162" y="611"/>
			<point x="170" y="604" type="curve" smooth="yes"/>
			<point x="178" y="596"/>
			<point x="184" y="599"/>
			<point x="191" y="606" type="curve" smooth="yes"/>
			<point x="237" y="652"/>
			<point x="295" y="673"/>
			<point x="366" y="673" type="curve" smooth="yes"/>
			<point x="397" y="673" type="line"/>
			<point x="217" y="121" type="line" smooth="yes"/>
			<point x="193" y="46"/>
			<point x="162" y="14"/>
			<point x="121" y="14" type="curve" smooth="yes"/>
			<point x="89" y="14"/>
			<point x="54" y="21"/>
			<point x="35" y="67" type="curve" smooth="yes"/>
			<point x="32" y="74"/>
			<point x="24" y="74"/>
			<point x="17" y="70" type="curve" smooth="yes"/>
			<point x="12" y="67"/>
			<point x="8" y="61"/>
			<point x="10" y="55" type="curve" smooth="yes"/>
			<point x="29" y="10"/>
			<point x="67" y="-14"/>
		</contour>
	</outline>
</glyph>
<glyph name="F.cur_locl" format="2">
	<advance width="660"/>
	<outline>
		<contour>
			<point x="173" y="-14" type="curve" smooth="yes"/>
			<point x="387" y="-14"/>
			<point x="599" y="336"/>
			<point x="599" y="536" type="curve" smooth="yes"/>
			<point x="599" y="647"/>
			<point x="542" y="712"/>
			<point x="430" y="712" type="curve" smooth="yes"/>
			<point x="348" y="712"/>
			<point x="284" y="680"/>
			<point x="216" y="631" type="curve" smooth="yes"/>
			<point x="207" y="625"/>
			<point x="204" y="618"/>
			<point x="209" y="610" type="curve" smooth="yes"/>
			<point x="215" y="600"/>
			<point x="220" y="599"/>
			<point x="230" y="606" type="curve" smooth="yes"/>
			<point x="298" y="652"/>
			<point x="351" y="684"/>
			<point x="427" y="684" type="curve" smooth="yes"/>
			<point x="522" y="684"/>
			<point x="566" y="627"/>
			<point x="566" y="533" type="curve" smooth="yes"/>
			<point x="566" y="346"/>
			<point x="358" y="14"/>
			<point x="176" y="14" type="curve" smooth="yes"/>
			<point x="119" y="14"/>
			<point x="92" y="45"/>
			<point x="92" y="100" type="curve" smooth="yes"/>
			<point x="92" y="258"/>
			<point x="279" y="419"/>
			<point x="701" y="456" type="curve"/>
			<point x="685" y="465" type="line"/>
			<point x="654" y="372" type="line" smooth="yes"/>
			<point x="651" y="363"/>
			<point x="655" y="360"/>
			<point x="666" y="360" type="curve" smooth="yes"/>
			<point x="676" y="360"/>
			<point x="681" y="364"/>
			<point x="684" y="372" type="curve" smooth="yes"/>
			<point x="715" y="467" type="line" smooth="yes"/>
			<point x="719" y="478"/>
			<point x="716" y="485"/>
			<point x="705" y="484" type="curve" smooth="yes"/>
			<point x="248" y="444"/>
			<point x="59" y="263"/>
			<point x="59" y="97" type="curve" smooth="yes"/>
			<point x="59" y="30"/>
			<point x="99" y="-14"/>
		</contour>
	</outline>
</glyph>
<glyph name="F.dec" format="2">
	<advance width="735"/>
	<outline>
		<contour>
			<point x="250" y="-14" type="curve" smooth="yes"/>
			<point x="371" y="-14"/>
			<point x="465" y="64"/>
			<point x="531" y="266" type="curve" smooth="yes"/>
			<point x="653" y="641" type="line"/>
			<point x="623" y="641" type="line"/>
			<point x="504" y="274" type="line" smooth="yes"/>
			<point x="446" y="95"/>
			<point x="359" y="15"/>
			<point x="252" y="15" type="curve" smooth="yes"/>
			<point x="152" y="15"/>
			<point x="94" y="76"/>
			<point x="77" y="227" type="curve"/>
			<point x="65" y="215" type="line"/>
			<point x="134" y="190"/>
			<point x="195" y="181"/>
			<point x="274" y="181" type="curve" smooth="yes"/>
			<point x="283" y="181"/>
			<point x="287" y="184"/>
			<point x="290" y="194" type="curve" smooth="yes"/>
			<point x="293" y="204"/>
			<point x="288" y="209"/>
			<point x="280" y="209" type="curve" smooth="yes"/>
			<point x="205" y="209"/>
			<point x="145" y="217"/>
			<point x="90" y="237" type="curve" smooth="yes"/>
			<point x="85" y="239"/>
			<point x="75" y="243"/>
			<point x="63" y="236" type="curve" smooth="yes"/>
			<point x="51" y="229"/>
			<point x="49" y="218"/>
			<point x="50" y="211" type="curve" smooth="yes"/>
			<point x="68" y="60"/>
			<point x="137" y="-14"/>
		</contour>
		<contour>
			<point x="396" y="345" type="curve" smooth="yes"/>
			<point x="670" y="345" type="line" smooth="yes"/>
			<point x="676" y="345"/>
			<point x="680" y="349"/>
			<point x="682" y="359" type="curve" smooth="yes"/>
			<point x="684" y="368"/>
			<point x="681" y="373"/>
			<point x="675" y="373" type="curve" smooth="yes"/>
			<point x="401" y="373" type="line" smooth="yes"/>
			<point x="395" y="373"/>
			<point x="392" y="369"/>
			<point x="390" y="360" type="curve" smooth="yes"/>
			<point x="388" y="351"/>
			<point x="390" y="345"/>
		</contour>
		<contour>
			<point x="224" y="547" type="curve" smooth="yes"/>
			<point x="235" y="547"/>
			<point x="238" y="551"/>
			<point x="241" y="559" type="curve" smooth="yes"/>
			<point x="267" y="634"/>
			<point x="310" y="685"/>
			<point x="398" y="685" type="curve" smooth="yes"/>
			<point x="494" y="685"/>
			<point x="557" y="626"/>
			<point x="678" y="626" type="curve" smooth="yes"/>
			<point x="746" y="626"/>
			<point x="799" y="643"/>
			<point x="858" y="675" type="curve"/>
			<point x="868" y="680"/>
			<point x="871" y="685"/>
			<point x="866" y="695" type="curve" smooth="yes"/>
			<point x="861" y="705"/>
			<point x="856" y="709"/>
			<point x="846" y="703" type="curve" smooth="yes"/>
			<point x="795" y="674"/>
			<point x="740" y="653"/>
			<point x="681" y="653" type="curve" smooth="yes"/>
			<point x="570" y="653"/>
			<point x="504" y="712"/>
			<point x="401" y="712" type="curve" smooth="yes"/>
			<point x="294" y="712"/>
			<point x="241" y="647"/>
			<point x="211" y="559" type="curve" smooth="yes"/>
			<point x="208" y="551"/>
			<point x="214" y="547"/>
		</contour>
	</outline>
</glyph>
